<?xml version="1.0" encoding="utf-8"?>
<!-- Generator: Adobe Illustrator 23.0.2, SVG Export Plug-In . SVG Version: 6.00 Build 0)  -->
<svg version="1.1" id="Layer_1" xmlns="http://www.w3.org/2000/svg" xmlns:xlink="http://www.w3.org/1999/xlink" x="0px" y="0px"
	 viewBox="0 0 1152.7 96.6" style="enable-background:new 0 0 1152.7 96.6;" xml:space="preserve">
<style type="text/css">
	.st0{fill:#312163;}
</style>
<g>
	<g>
		<path class="st0" d="M403.7,95.9c-11.1,0-21.7,0-32.8,0c3.9-4.3,4-9.3,4.3-14c0.6-10.2,1-20.4,1-30.6c0-9.6-0.4-19.3-0.8-28.9
			c-0.3-6.2-1-12.3-1.5-18.7c2,0.3,4.2,0.6,6.5,1c4.9,0.8,9.9,1.5,14.9,0.3c1.2-0.3,2.6,0.2,3.9,0.4C406.3,21.7,415,37,428,49.6
			c-0.2-15.2-1.3-30.2-3.9-45c4.8,0.4,9.5,1.1,14.2,1c4.7,0,9.3-0.8,14-1.2c-1.6,6.6-2,13.5-2.1,20.4c-0.2,9.3-0.4,18.6-0.3,27.8
			c0.1,9.1,0.3,18.2,0.8,27.3c0.3,5.4,0.2,10.9,3.4,16c-2.1,0-3.7,0-5.4,0c-5.7-0.1-11.4-0.2-17-0.3c-1.5,0-2.8-0.1-3.7-1.8
			c-4.3-7.4-8.5-14.9-13.2-22.1c-4.6-7-9.6-13.6-14.5-20.4c-0.5-0.7-1.1-1.4-2-2.4c-0.2,12.9-0.7,25.1,1.3,37.3
			C400,89.8,400.9,93.2,403.7,95.9z"/>
		<path class="st0" d="M489.1,96c-10.5,0-21,0-31.5,0c0.1-0.3,0.2-0.7,0.4-1.1c2.5-3.9,3.1-8.3,3.3-12.7c0.4-9.1,0.7-18.3,0.7-27.4
			c0-7.2-0.6-14.5-0.9-21.7c-0.1-2.5,0-4.9-0.1-7.4c-0.2-7.3-0.8-14.6-3-22c2.6,0.3,5.2,0.6,7.7,0.8c2.7,0.2,5.3,0.3,8,0.4
			c2.2,0.1,4.4,0,6.6,0c0.3,0,0.6,0,1,0c3.8-0.1,3.7-0.1,5.1,3.7c2.8,7.4,6.4,14.4,10.9,21c4,5.9,8.5,11.5,12.8,17.2
			c0.5,0.6,1.2,1,2.1,1.7c-0.2-15.2-0.7-30.1-2.9-44.9c9.1,0.5,18.3,2.4,27.7-0.5c-0.7,4.6-1.5,8.7-2,12.9c-0.3,2.4-0.4,4.8-0.4,7.2
			c-0.2,9.4-0.7,18.9-0.6,28.3c0.1,9.6,0.7,19.1,1.4,28.7c0.4,5.2,1.4,10.3,2.2,15.6c-8,0-16.3,0-24.6,0c-3.1-5.8-6.4-11.6-9.5-17.5
			c-2.1-4-3.7-8.2-6-12.1c-2.4-4.1-5.2-7.9-7.8-11.8c-1.4-2.1-2.9-4.1-4.3-6c0,4.6-0.1,9.2,0,13.7c0.1,7,0.2,14.1,0.5,21.1
			c0.1,2.2,0.4,4.3,1,6.4C487.2,91.5,488.1,93.5,489.1,96z"/>
		<path class="st0" d="M1.6,2.1c1.4,0,3,0,4.6,0c2.7-0.1,5.3-0.4,8-0.4c4.4,0,8.8,0.2,13.2,0.4C33.1,2.4,38.4,4,43.6,6
			c4.1,1.6,8.1,3.5,11,6.9c4.1,4.8,6.2,10.3,5.1,16.9C59,34,58,38,55.7,41.6c-2.8,4.5-6.9,7.6-11.7,9.9c1.7,0.6,3.4,1,5.1,1.7
			c4.3,1.6,7.8,4.5,10.4,8.1c3.5,4.9,3.7,10.5,2.6,16.2c-0.7,3.4-1.5,6.8-3.9,9.5c-4.1,4.6-9.1,7.3-15.3,8.1
			c-12.3,1.6-24.6,0.9-36.9,1c-2,0-3.9-0.3-6.1-0.5c0.7-1.1,1.4-2.1,2-3.2c1.7-3.4,1.7-7.1,1.9-10.7c0.3-5.6,0.4-11.2,0.3-16.8
			c0-6.7-0.2-13.4-0.3-20.1C3.8,38.2,3.7,31.6,3.5,25C3.3,19.4,2.8,13.8,2.4,8.2C2.2,6.2,1.9,4.3,1.6,2.1z M23.7,39.5
			c3.5-0.8,5.9-2.6,8.3-4.5c4.4-3.6,3.1-10-1.5-11.9c-2.2-0.9-4.5-1.5-6.8-2.2C23.7,27.3,23.7,33.3,23.7,39.5z M25.1,79.3
			c3.6-0.7,6.8-1.9,9.4-4.5c1.9-1.9,2-4.8,0.5-6.9c-2.5-3.3-6.2-3.4-9.9-4.3C25.1,68.9,25.1,74,25.1,79.3z"/>
		<path class="st0" d="M295.2,48.2c3.9,1,6.7,3.3,9.5,5.9c3.5,3.3,5.2,7.5,6.1,12c0.9,4.7,1.1,9.5-0.8,14c-3.5,8.3-8.6,15-18.4,15.7
			c-7.6,0.5-15.2,0.4-22.8,0.5c-6.6,0-13.1-0.2-20-0.3c3.5-6.2,3.8-12.6,3.7-19.1c-0.1-5.1,0-10.2,0-15.4c0-7.7,0.1-15.3-0.1-23
			c-0.2-8.5-0.5-17.1-1.1-25.6c-0.3-3.3-1.5-6.6-2.5-10.3c2.3,0,4.9,0,7.4,0c7.2-0.1,14.4-0.4,21.6-0.1c7.1,0.2,13.9,1.7,19.7,6.2
			c4.7,3.7,7.8,8.3,8.7,14.2c0.7,4.2,0,8.3-1.7,12.1c-1.5,3.2-3.3,6.3-5.3,9.3C298.2,45.8,296.7,46.8,295.2,48.2z M274.1,39.9
			c1-0.3,1.9-0.6,2.8-0.9c4.6-1.8,7.2-5.3,7.7-10.1c0.4-3.8-6.2-8.8-10.5-8.1C274.1,27.1,274.1,33.4,274.1,39.9z M273.6,77.8
			c4.2-0.3,7.9-1.6,10.7-4.6c1.6-1.8,2-4,1-5.2c-3.1-3.6-7-5.8-11.7-6.9C273.6,66.7,273.6,72.2,273.6,77.8z"/>
		<path class="st0" d="M154.3,4.9c4.7,0,9.4,0.3,14-0.1c4.6-0.3,9.1-1.2,13.7-1.9c-1.7,6.9-2.5,14.1-2.4,21.5
			c0.1,5.6,0.3,11.2,0.4,16.9c0.1,6.8,0.2,13.6,0,20.4c-0.1,4.7-0.5,9.4-1.1,14.1c-1,8-5.6,13.8-12.4,17.6c-2.9,1.6-6.5,2-9.9,2.5
			c-3.3,0.5-6.7,0.9-10,0.8c-5.3-0.1-10.7-0.9-15.2-3.8c-4.4-2.8-8.1-6.6-10.4-11.5c-2.8-6-3.8-12.4-4.1-19c-0.2-6-0.6-12-0.8-18
			c-0.3-7.3-0.2-14.6-0.7-21.8c-0.4-6.2-1.5-12.4-2.2-18.6c9.6,1.2,19.5,3.1,29.3-0.1c-1.1,4.6-2.5,8.7-3,13
			c-0.7,5.2-0.8,10.5-0.8,15.8c0,7.4,0.3,14.8,0.8,22.2c0.3,5.1,0.7,10.3,3,15c1.4,3,3.9,4.4,7,4.9c3.2,0.5,7-2.7,7.5-6.5
			c0.7-6,1.5-12,1.6-18c0.2-8.7,0-17.4-0.5-26.1c-0.3-5.1-1.4-10.1-2.2-15.2C155.7,7.5,154.8,6.1,154.3,4.9z"/>
		<path class="st0" d="M371.1,44.3c0,2.2,0.1,4.5,0,6.7c-0.3,4.4-0.7,8.7-1.1,13.1c-0.4,5.8-1.7,11.3-4.3,16.5
			c-3.3,6.6-8.1,12.1-15.2,14.8c-2,0.8-4.4,0.8-6.5,0.8c-3,0-6,0-8.9-0.6c-4.5-1-7.4-4.4-10.2-7.8c-5.4-6.5-8.2-14-10-22
			c-0.8-3.3-1.1-6.7-1.3-10.1c-0.3-3.7-0.6-7.4-0.4-11.1c0.7-10.1,1.8-20.2,6.8-29.3c4.6-8.5,12.1-12.8,21.6-13.3
			C345.3,1.7,349.3,2,353,3c5.1,1.4,8.5,5.3,11.3,9.8c3.4,5.5,4.8,11.7,5.7,18c0.6,4.5,1,9,1.5,13.5L371.1,44.3z M350.3,42.6
			c-0.3-4.1-0.6-9.1-1.1-14.1c-0.3-3-1.3-5.9-3.5-8.2c-1.5-1.6-2.6-1.8-4.2-0.3c-0.6,0.5-1.1,1.1-1.5,1.7c-2.2,3.5-3.2,7.5-3.4,11.6
			c-0.5,7.8-0.7,15.6-0.8,23.3c-0.1,5.7,1.4,11.2,4,16.2c1.5,2.9,2.9,3.9,5.4,1c2.3-2.7,3.6-5.9,3.9-9.4
			C349.5,57.5,349.8,50.5,350.3,42.6z"/>
		<path class="st0" d="M185.5,2.9c19.3,0,38.3,0,57.5,0c-2.7,8.7-4.6,17.3-1.1,26.6c-1.1-0.3-1.8-0.4-2.4-0.6
			c-2.7-1.1-5.4-2.5-8.1-3.4c-4.3-1.3-8.6-2.4-12.9-3.3c-2.1-0.4-4.3-0.1-6.7-0.1c-0.5,6.9-0.9,13.6-1.4,20.8
			c6.6-1.6,12.8-3,19.6-4.7c-4,7.9-5.1,15.6,0,23.6c-6.8-1.3-13.2-2.4-19.5-3.6c0,5.9,0,11.6,0,17.6c10.9,0,20.8-3.2,31-7.1
			c-0.5,2.6-0.9,5-1.5,7.3c-1.6,6.2-1.3,12.1,1.9,17.8c0.3,0.6,0.8,1.1,1.4,2.1c-19.2,0-38.1,0-57.1,0c0.5-3.3,1-6.4,1.4-9.5
			c0.4-3.1,1-6.1,1.1-9.2c0.2-12.3,0.4-24.5,0.4-36.8c0-8.4-0.4-16.8-0.8-25.3c-0.2-3.8-0.7-7.5-2.3-11
			C185.7,3.8,185.6,3.5,185.5,2.9z"/>
		<path class="st0" d="M566.2,44.3c5.5-2.1,10.7-4.1,16.3-6.3c-0.2,1.3-0.2,2.3-0.5,3.2c-2.2,6.5-1,12.5,2.6,18.2
			c0.1,0.2,0.2,0.4,0.4,1.1c-6.3-0.2-12.1-2.5-18.3-2.7c-0.9,6.6-0.4,13.1,0,19.9c8.9-1.2,17.5-2.8,25.5-7.4
			c-0.4,2.8-0.8,5.3-1.1,7.9c-0.6,5.6,0,11.1,2.1,16.3c0.7,1.6,0.3,2.1-1.4,2.1c-11.4-0.1-22.7-0.2-34.1-0.2c-4.9,0-9.8,0-14.9,0
			c0.6-2,1.3-3.5,1.5-5.1c0.5-5.2,1.1-10.5,1.2-15.7c0.2-6.1,0-12.1-0.1-18.2c-0.1-4.5-0.3-8.9-0.4-13.4
			c-0.2-10.2-0.2-20.4-0.6-30.6c-0.1-3.2-1.1-6.4-1.7-10c16.9,0,34.3,0,52.2,0c-5.4,8.4-5.1,17.4-3.6,26.5c-4.1-1.4-8-3-12.1-4.1
			c-4-1.1-8.1-1.7-12.3-2.5C565.7,30.2,566.4,37.1,566.2,44.3z"/>
		<path class="st0" d="M645.1,96c-11.1,0-21.9,0-32.5,0c1.1-5,2.6-9.7,3.2-14.5c0.8-5.4,0.9-10.9,1.2-16.4c0.4-5.7,0.8-11.4,1-17.1
			c0.2-5.8,0-11.6,0.1-17.3c0-1.6,0-3.3,0-5.2c-6.4,2-12.5,3.9-19,5.9c2.4-9.6,1.3-18.7-1.1-27.8c21.1,0,42.3,0,63.5,0
			c-4.1,8.8-4.1,18-2.8,27.8c-6.4-2.3-12.5-4.6-18.9-6.9c-0.2,2.8-0.5,5.3-0.6,7.8c-0.2,4-0.4,7.9-0.3,11.9
			c0.1,4.8,0.4,9.7,0.7,14.5c0.2,3.3,0.4,6.5,0.4,9.8c0.1,6.9,0.4,13.7,2.4,20.3C643,91.1,644,93.3,645.1,96z"/>
		<path class="st0" d="M61.3,4c5.8,0.4,11.5,1.2,17.2,1.1C84.2,5,89.8,4,94.9,3.4c-0.8,3.3-2,7-2.7,10.8c-0.7,4-1.3,8.1-1.5,12.2
			c-0.5,12.1-0.9,24.2-1.2,36.4c-0.1,4.3,0.3,8.6,0.5,13.2c8.1-0.5,15.5-3,22.5-6.7c-0.4,4.5-0.9,8.9-1.2,13.4
			c-0.3,4.7,1.4,8.9,4,13.1c-18.2,0-36.1,0-54.3,0c4.1-3.8,4.8-8.8,5.4-13.7c0.5-4.8,0.7-9.7,0.7-14.5c0-4-0.4-8.1-0.6-12.2
			c0-0.8,0-1.7-0.1-2.5c-0.3-7.5-0.5-14.9-0.8-22.4c-0.2-4.4-0.4-8.8-0.8-13.1C64.6,12.7,63.3,8.2,61.3,4z"/>
	</g>
	<g>
		<path class="st0" d="M735.1,1.8c1-0.1,2.1-0.2,3.2-0.2c4.8,0,9.6,0,14.4,0c1.5,0,3-0.3,4.6-0.4c6.5-0.3,12.8,0.8,19.2,1.5
			c5.5,0.6,10.3,2.7,14.3,6.3c4.1,3.8,6.8,8.5,6.6,14.4c-0.1,4.2-0.2,8.4-2,12.4c-1.4,3.1-3.5,5.8-6.2,7.8
			c-3.2,2.4-6.7,4.5-10.1,6.9c2.9,4.3,5.8,8.9,9.9,12.5c4.1,3.7,9.1,5.9,14.3,7.8c0.1,0.2,0.3,0.4,0.4,0.7c-1.6,1.3-3.2,2.6-4.7,4.1
			c-4.3,4.5-6.8,10-8.4,15.8c-0.3,1.1-0.6,1.3-1.6,0.9c-3.2-1.1-5.5-3.5-8-5.6c-7.4-6.6-12-15-15.9-24c-0.8-1.9-1.7-3.7-2.6-5.7
			c-0.7,0.3-1.5,0.6-2.1,0.9c-1,7.1-0.2,13.9,0.9,20.8c0.7,4.3,2.4,7.9,4.9,11.3c0.3,0.4,0.6,0.7,1.3,1.4c-1,0.2-1.7,0.4-2.4,0.4
			c-7.2,0-14.4,0-21.7,0.1c-2.3,0-4.5,0.2-6.8,0.3c-0.4,0-0.8-0.2-1-0.3c1-2.4,2-4.6,2.8-6.9c0.4-1.3,0.7-2.7,0.7-4.1
			c0.2-9.3,0.4-18.5,0.4-27.8c0-5.1-0.2-10.2-0.4-15.3c-0.1-4.5-0.2-9-0.5-13.6c-0.4-5.5-0.8-11-1.5-16.5
			C736.7,5.8,735.8,3.9,735.1,1.8z M760.8,37.3c1.3-0.4,2.2-0.6,3-1c4.3-2,6.9-5.7,9-9.7c1.3-2.5,0.8-4.1-1.3-6
			c-3.4-3.2-7.6-3.1-11.9-2.7C760.1,24.2,760.4,30.5,760.8,37.3z"/>
		<path class="st0" d="M997.1,58.6c-2.5,1.1-2.8,1.8-2.3,4.9c0.3,2.6,0.5,5.2,0.7,7.8c0.4,6.2,1.3,12.3,4.5,17.8
			c0.5,0.9,1.4,1.5,2.5,2.7c-11.6,0-22.6,0-33.9,0c3.6-3.6,4.4-8,4.6-12.4c0.5-11.3,0.7-22.6,0.8-33.8c0.1-7.7,0-15.5-0.4-23.2
			c-0.3-5.8-1.3-11.5-2-17.3c-0.1-1-0.7-2-1.3-3.3c4.2,0,8.3,0,12.4,0c5.3-0.1,10.6-0.5,15.9-0.3c5.1,0.2,10.2,0.7,15.3,1.6
			c2.5,0.4,4.9,1.9,7.2,3.2c4.3,2.4,7.4,5.9,9.2,10.7c1.2,3.1,1.3,6.3,1,9.4c-0.6,5.2-2.4,10.2-6,14.2c-3.4,3.9-6.7,8-12,10.6
			c3.3,4,6.2,8,9.7,11.4c3.5,3.4,7.5,6.5,12.7,7c0.9,0.1,1.7,0.2,2.7,0.3c-6.4,6.1-10.3,13-9.9,22.1c-0.1,0-0.6,0.2-0.9,0.1
			c-3.6-0.8-6.9-1.9-10-4c-6-4.1-10.3-9.7-13.6-16.1C1001.4,67.7,999.3,63.2,997.1,58.6z M994.5,40.2c4.7-1.9,8.4-4.2,10.9-8.1
			c1.8-2.8,2.5-5.5,0.6-8.5c-2.4-3.9-6.5-4.3-10.8-5.4C995.1,25.7,994.8,32.8,994.5,40.2z"/>
		<path class="st0" d="M1037.5,91.9c0.7-3.4,1.8-6.6,2.1-9.8c0.6-8.4,0.9-16.9,1-25.4c0.1-7.7-0.3-15.4-0.5-23.2
			c-0.1-2.8-0.7-5.7-0.7-8.5c0-5.7-0.3-11.3-1.6-16.9c-0.3-1.4-0.9-2.7-1.5-4.2c4.9-0.2,9.8-0.3,14.8-0.6c7-0.3,13.9,0.4,20.5,2.7
			c8.4,2.9,15.3,7.7,19.6,15.8c4.2,7.8,7,15.9,7.2,24.7c0.1,5.3-0.4,10.7-2.7,15.7c-1.8,4-3.2,8.1-5.1,12c-2.3,4.7-6,8.5-10.5,11.1
			c-6.5,3.6-13.4,6.5-21.1,6.7c-4.7,0.1-9.4,0-14.2,0C1042.2,91.8,1039.7,91.9,1037.5,91.9z M1061.8,72.5c1.7-0.9,3.1-1.3,4.1-2.1
			c5.8-5,8.7-11.5,8.8-19.1c0-3.8-0.2-7.6-0.8-11.3c-0.8-4.9-2.1-9.8-6.2-13.1c-1.8-1.5-3.9-2.7-5.9-4c-0.2,0.2-0.4,0.3-0.6,0.5
			C1061.2,39.5,1061.5,55.8,1061.8,72.5z"/>
		<path class="st0" d="M969.7,40.6c0,5.3,0.1,10.7,0,16c-0.2,6.3-1.3,12.5-4.3,18c-3.2,5.9-7.1,11.4-12.9,15.1
			c-1.7,1.1-3.9,1.8-5.8,1.9c-3.7,0.2-7.3,0.9-11.1-0.5c-2.2-0.8-4.6-1-6.6-2.4c-2.7-1.8-5.2-3.7-7-6.5c-1.5-2.3-3.2-4.5-4.5-6.9
			c-1.4-2.6-2.4-5.4-3.4-8.2c-1.9-5.5-2.4-11.3-2.8-17.1c-0.2-3.7-0.4-7.4-0.4-11.1c0.1-5.9,1.6-11.6,4-16.9
			c0.8-1.9,1.5-3.9,2.5-5.6c1.4-2.3,2.8-4.7,4.6-6.7c3.5-4,7.8-7.1,13-8.7c6.3-2,12.3-1.4,18.2,1.5c3.9,2,6.5,5.2,8.8,8.9
			c3.3,5.3,5.4,11.1,6.6,17.2c0.8,3.9,1.1,7.9,1.6,11.8C970.2,40.5,970,40.6,969.7,40.6z M949.4,41.5c0.1-7.3-0.8-14.3-3.9-21
			c-1.4-3.1-4.6-4.1-6.3-1.6c-1.5,2.1-3,4.5-3.5,7c-1,5.5-1.8,11.2-1.9,16.7c-0.1,6.6,0.5,13.2,1.1,19.8c0.4,3.6,1.6,7.1,3.8,10.2
			c1.2,1.7,3,1.9,4.5,0.5c0.8-0.8,1.6-1.7,2-2.7c1-3.2,2.2-6.5,2.6-9.8C948.6,54.4,948.9,47.9,949.4,41.5z"/>
		<path class="st0" d="M851.9,66.2c-1.8,9.1-1.4,17.6,3.3,25.7c-17.9,0-35.5,0-53.5,0c3-4.6,3.6-9.6,4-14.5c0.3-3.3,0.3-6.6,0.4-9.9
			c0.2-7.7,0.4-15.4,0.4-23.2c-0.1-9.1-0.3-18.1-0.7-27.2c-0.2-4.9-0.9-9.7-1.4-14.7c17.4,0,35.3,0,53.4,0c-4.2,8.1-5,16.7-4.4,25.9
			c-8.3-3.2-16-7.2-24.9-7.8c-0.1,0.3-0.4,0.8-0.4,1.2c-0.2,6.3-0.3,12.6-0.4,18.9c0,1.1,0.4,1.7,1.6,1.5c4.1-0.6,8.2-1.1,12.4-1.7
			c1.4-0.2,2.8-0.7,4.2-1c1.2-0.3,1.8-0.2,1.4,1.5c-0.8,3.3-1.7,6.7-1.7,10c0,3,1.2,6.1,1.8,9.2c-6.7-0.3-12.8-3.7-19.5-3.8
			c0,6,0,11.8,0,17.8C836.3,72.1,844.6,70.9,851.9,66.2z"/>
		<path class="st0" d="M1143.7,32.2c-1.1-0.7-2.2-1.4-3.4-2.1c-4.5-2.5-9-5.1-13.7-7.3c-1.6-0.8-3.9-0.6-5.8-0.2
			c-2.2,0.4-3.2,3-2.6,5.2c0.8,3.2,3.6,4.7,5.9,6.2c4.3,2.9,9,5.2,13.3,8.1c3,2.1,5.9,4.5,8.3,7.2c2.1,2.3,3.9,5.1,5.1,8
			c2.2,5.2,2.2,10.8,0.3,16.1c-1.7,4.9-4.4,9.4-9,12.5c-2.5,1.7-4.7,3.8-7.7,4.4c-10.8,2.3-21.7,3.3-32.6,0.4
			c-3.5-0.9-7-1.6-10.6-2.7c7.9-6.3,10.7-14.3,8.8-24.1c2.4,1.2,4.8,2.3,7,3.6c3.8,2.2,7.7,4,12.3,3.5c1.5-0.2,3.1,0.1,4.6-0.1
			c1-0.2,2.2-0.6,3-1.4c4-3.8,4.3-8,0.3-11.8c-2.7-2.6-6.3-4.2-9.5-6.3c-2-1.3-3.9-2.7-5.9-4c-4.2-2.6-8-5.8-10.4-10.2
			c-1.6-2.9-2.9-6.2-3.7-9.4c-0.9-3.9-0.9-8,0.5-12c2.5-7.2,7.7-11.3,14.9-12.7c6.4-1.3,12.9-0.4,19.2,1.2c4.5,1.1,9,1.2,13.5,0.8
			c0.6-0.1,1.3-0.1,2.1-0.1c-3.7,8.7-6.3,17.5-3.8,27C1144,32,1143.9,32.1,1143.7,32.2z"/>
		<path class="st0" d="M914.5,2.8c-5.2,8.5-6.4,17.8-6.4,27.5c-3.6-2.9-7.3-4.9-11.5-5.9c-7.1-1.7-11.4,0.7-16.1,6.7
			c-3.4,4.4-4.2,9.6-3.9,14.8c0.2,5,1.7,9.8,4.3,14.1c1.2,2,2.4,4.2,4.2,5.5c6.2,4.9,9.6,4.4,15.4,1.2c2.6-1.5,5.1-3.3,7.7-5
			c-0.2,9.3,2.6,17.6,9.7,24.5c-3.4,1.4-6.6,3.2-10.1,4.2c-3,0.9-6.2,0.9-9.3,1.4c-5.1,0.8-10.2,0-15.1-1.3
			c-2.6-0.7-4.9-2.5-7.1-4.1c-5.2-3.6-9.2-8.4-12-14c-3.3-6.6-5.8-13.5-6.6-20.9c-0.7-6.2-0.7-12.4,0.4-18.6
			c1.7-9.8,5.9-18.3,14-24.4c4.8-3.6,10.1-6.2,16.4-5.9c6,0.3,12.1,0.6,18.1,0.7c2,0,3.9-0.4,5.9-0.6C912.9,2.8,913.5,2.8,914.5,2.8
			z"/>
	</g>
</g>
</svg>
