<?xml version="1.0" encoding="utf-8"?>
<!-- Generator: Adobe Illustrator 23.0.2, SVG Export Plug-In . SVG Version: 6.00 Build 0)  -->
<svg version="1.1" id="Layer_1" xmlns="http://www.w3.org/2000/svg" xmlns:xlink="http://www.w3.org/1999/xlink" x="0px" y="0px"
	 viewBox="0 0 503.6 44.5" style="enable-background:new 0 0 503.6 44.5;" xml:space="preserve">
<style type="text/css">
	.st0{fill:#312163;}
</style>
<g>
	<path class="st0" d="M40.4,43.5c-4.3,0-8.5,0-12.9,0c-1.6-5.3-3.2-10.5-5.8-15.3c-0.2-0.4-0.5-0.8-0.9-1.4
		c-2.8,5.4-4.6,11-6.2,16.8c-4.1,0-8.1,0-12.4,0c0.1-0.9,0.2-1.7,0.2-2.5c0-4,0.1-8.1,0-12.1c-0.1-5.6-0.4-11.1-0.6-16.7
		C1.8,9.1,1.3,6,0.5,3C0.3,2.4,0.2,1.9,0,1.1c4.5,0.8,8.9,0.1,13.3,0C11.4,9,12,17,12.3,24.9c1.3-2.2,2-4.6,2.9-6.9
		c0.9-2.3,1.6-4.7,2.4-7.2c2.2,0,4.4,0,6.8,0c1.5,4.6,2.9,9.3,5.4,13.6c0-7.8,0.9-15.6-1.5-23.2c4.5-0.1,9-0.2,13.5-0.3
		c-1.6,7-1.9,14.1-2.1,21.2C39.6,29.2,39.3,36.3,40.4,43.5z"/>
	<path class="st0" d="M388.9,1.4c5.5-0.1,10.9-0.1,16.3-0.2c2.6,0,5,0.4,7.4,1.5c3.7,1.6,6.8,7.3,5.5,12.1c-1,3.8-3.2,6.6-6.6,8.7
		c-0.6,0.4-1.2,0.8-1.9,1.3c1.7,2.8,3.3,5.4,6.1,7.1c1.9,1.2,4,1.3,6.4,0.6c-1.9,3.9-3.6,7.6-5.5,11.5c-0.9,0.3-2.1-0.2-3.2-0.6
		c-3.3-1.4-6.1-3.6-8-6.6c-1.3-2.1-2.3-4.4-3.4-6.6c-0.2-0.3-0.3-0.6-0.5-1.1c-0.2,0.3-0.5,0.5-0.5,0.7c-0.2,3.9,0,7.9,1.2,11.6
		c0.3,0.8,0.7,1.6,1.2,2.6c-5.1-0.1-10.2-0.2-15.3-0.3c0.2-0.6,0.6-1.3,0.8-2c0.4-2.1,0.9-4.3,1-6.4c0.2-5.7,0.3-11.4,0.2-17
		c0-4.2-0.3-8.5-0.6-12.7C389.4,4,389.1,2.7,388.9,1.4z M400.9,19.9c3-0.6,6.1-3.9,6.5-6.7c0.2-1.2-0.2-1.9-1.4-2.6
		c-1.8-0.9-3.7-1-5.8-0.9C400.2,13.2,400.1,16.6,400.9,19.9z"/>
	<path class="st0" d="M148.9,1.5c4.8,1.1,9.5,0.8,14.2-0.5c0,0.3,0.1,0.5,0,0.8c-1.5,5.6-1.7,11.3-1.5,17.1c0.2,4,0.2,8.1,0,12.1
		c-0.1,2-0.5,4.1-1.1,6.1c-1.4,4-4.2,6.4-8.5,7c-2.8,0.4-5.6,0.6-8.4,0.1c-5.5-1-8.9-4.5-10.3-9.8c-0.6-2.2-0.9-4.6-1-6.9
		c-0.4-5.9-0.5-11.9-0.9-17.8c-0.2-2.6-0.6-5.3-1-8c1.4,0.3,3,0.7,4.7,0.9c1.6,0.2,3.3,0.2,4.9,0c1.7-0.1,3.3-0.5,5.1-0.9
		c0,0.2,0,0.4,0,0.6c-1.8,4.8-2.6,9.9-2.4,15c0.1,3.3,0.3,6.7,0.5,10c0.1,0.8,0.3,1.7,0.7,2.4c0.8,1.4,2,2.2,3.7,2.1
		c1.7-0.1,2.8-1.1,3.2-2.6c0.5-1.8,0.8-3.6,0.9-5.5c0.2-4.9,0.1-9.9-0.6-14.8c-0.3-2.1-1.2-4.2-1.8-6.3C149.2,2.3,149.1,2,148.9,1.5
		z"/>
	<path class="st0" d="M100.5,1.2c4.3,0,8.6-0.1,13,0c3.7,0.1,7.1,1.3,10,3.6c3.3,2.6,4.5,6.7,3,10.7c-0.9,2.4-2.4,4.5-4.5,6
		c-0.2,0.2-0.5,0.4-0.7,0.6c0.9,0.4,1.8,0.7,2.6,1c3.5,1.3,6.1,6,5.4,9.7c-0.4,2.1-0.8,4.1-2.1,5.9c-1.8,2.5-4.3,3.9-7.2,4.5
		c-2.1,0.4-4.2,0.4-6.3,0.4c-3.8,0.1-7.5,0-11.3,0c-0.4,0-0.7-0.1-1.2-0.1c0.3-1.2,0.8-2.4,0.9-3.6c0.2-1.7,0.3-3.5,0.3-5.2
		c0-6.1-0.1-12.2-0.3-18.3c-0.1-3.8-0.3-7.5-0.6-11.3C101.3,3.8,100.8,2.4,100.5,1.2z M111.7,18c2.2-0.5,3.8-1.5,4.9-3.2
		c0.7-1,0.6-2.1-0.2-3.1c-1.2-1.5-2.8-2.1-4.8-1.8C111.7,12.6,111.7,15.1,111.7,18z M111.4,35.2c1.6,0.3,3,0.1,4.4-0.5
		c1.6-0.7,2.1-2.1,1.3-3.5c-1-1.7-3.6-2.8-5.7-2.4C111.4,30.8,111.4,32.9,111.4,35.2z"/>
	<path class="st0" d="M420.6,43.9c0.8-2.5,1.5-4.9,2.2-7.3c1.4-4.6,1.9-9.5,2.4-14.3c0.7-6.7,1.2-13.4,1.9-20.1
		c0-0.2,0.1-0.4,0.2-0.8c4.8,0.6,9.6,0.3,14.6-0.2c0.2,1.3,0.3,2.6,0.4,3.8c0.8,5.7,1.7,11.4,2.6,17.1c0.6,4,1.2,8.1,2.4,12
		c1,3.3,2,6.6,3.8,9.6c-4.7,0-9.3,0-14.1,0c0.1-0.5,0.2-1.1,0.3-1.7c0.4-2.4,0.4-4.9-0.2-7.3c-0.3-1.3-0.6-1.5-1.9-1.4
		c-1.8,0.1-2.4,0.5-2.5,2.4c-0.1,2.3,0.2,4.7,0.9,6.9c0.1,0.4,0.2,0.8,0.4,1.3C429.4,43.9,425,43.9,420.6,43.9z M433.4,23.5
		c1.4-0.1,2.5-0.3,3.8-0.4c-0.6-3-1-5.9-2.2-9C434.1,17.3,433.4,20.2,433.4,23.5z"/>
	<path class="st0" d="M453.3,43.8c0.7-3.9,0.7-7.7,0.7-11.5c0-6.9,0.1-13.7,0.1-20.6c0-3.4,0-6.8-0.9-10.3c2.6-0.1,5.2-0.2,7.7-0.2
		c2,0,3.9,0.2,5.9,0.5c1.5,0.2,2.9,0.9,4.2,1.8c3.9,2.7,6.3,6.3,7.4,11c1.4,6,1.5,11.9-1,17.6c-1.7,3.9-4,7.2-7.8,9.3
		c-2,1.1-4.1,1.5-6.2,1.9C460,44,456.7,43.8,453.3,43.8z M462.8,34.6c3.2-0.8,5.2-2.5,6.3-5.3c0.5-1.2,0.8-2.5,0.9-3.8
		c0.4-3.4,0.1-6.7-1.4-9.8c-1.1-2.2-2.9-3.5-5.6-4.1C463,19.3,462.9,26.9,462.8,34.6z"/>
	<path class="st0" d="M45.5,43.5c1.1-4.3,1-8.5,1.1-12.8c0-6.6,0.1-13.2,0-19.7c0-3.3-0.2-6.6-0.4-10.2c8.2,0.9,16.5,0.2,25,0
		c-1.5,4.1-1.4,8.2-1.3,12.4c-0.4-0.1-0.8-0.1-1.1-0.2c-2.7-0.7-5.4-1.5-8.1-2.1c-1.1-0.3-2.3-0.2-3.6-0.3c-0.4,2.7-0.7,5.3-0.5,8
		c2.6,0.6,5-0.4,7.7-0.5c-0.4,3.4-1,6.7,0.2,10.2c-2.6-0.3-5-0.5-7.6-0.8c-0.6,2.4-0.4,4.7-0.3,7c1.8,0.3,3.3-0.3,4.7-0.8
		c3-0.9,6-1.9,9-2.8c-0.3,2.1-0.7,4.1-0.7,6.2c-0.1,2.1,0.2,4.2,0.4,6.4C61.9,43.5,53.8,43.5,45.5,43.5z"/>
	<path class="st0" d="M478.6,1.2c8.3,0,16.6,0,25.1,0c-0.3,2.2-0.7,4.4-0.9,6.5c-0.2,2.1-0.2,4.2-0.3,6.5c-3.9-1-7.6-2.8-11.9-3.3
		c-0.1,2.7,0,5.2,0.1,7.9c2.8,0.1,5-1.6,7.7-2.3c-0.5,3.8-0.7,7.5,1.1,11.2c-2.9,0.4-5.6-1.1-8.3-0.4c-0.6,1.6-0.6,4.4-0.1,7
		c4.1,0.1,7.7-1.7,11.6-3.1c-1,4.3-1.6,8.5,0.5,12.7c-8,0-15.7,0-23.6,0c0.3-1.5,0.7-2.9,0.9-4.2c0.6-5,0.7-10,0.5-14.9
		c-0.3-5.5-0.7-10.9-1.1-16.4C479.5,6,479,3.7,478.6,1.2z"/>
	<path class="st0" d="M220.5,41.6c3.9-2.8,4.4-6.8,4.7-10.8c0.8-0.1,1.3,0.5,1.8,0.9c2.4,1.7,5,2.2,7.8,2.1c0.3,0,0.5,0,0.8-0.1
		c1.1-0.2,2.1-0.7,2.5-1.8c0.4-1.1,0.2-2.3-0.7-3.1c-0.9-0.9-1.9-1.8-3-2.6c-2.1-1.5-4.3-2.8-6.2-4.4c-5.1-4.3-7.6-11.5-2.6-18
		c1.3-1.7,3.1-2.6,5.1-3c2.4-0.5,4.9-0.3,7.3,0.2c2.3,0.5,4.7,1,7.1,0.8c0.8-0.1,1.7-0.2,2.8-0.3c-2.7,4.6-3.5,9.4-2.9,14.8
		c-0.8-0.4-1.4-0.7-2-0.9c-1.9-1-3.8-2-5.8-2.9c-0.7-0.3-1.6-0.4-2.3-0.3c-1.5,0.2-2.1,1.3-1.2,2.5c0.6,0.9,1.5,1.6,2.4,2.3
		c1.8,1.3,3.7,2.3,5.4,3.6c1.5,1.1,2.8,2.4,4.1,3.7c4,4,4,11.3-0.3,15.7c-2.2,2.3-4.9,3.7-8.1,4c-4.5,0.5-8.9,0-13.2-1.3
		C222.9,42.3,221.8,42,220.5,41.6z"/>
	<path class="st0" d="M249.7,43.7c1.4-2.9,1.9-6,1.8-9.2c0-5.6-0.2-11.3-0.3-16.9c0-2.5,0-5-0.1-7.5c0-3,0-6-1-9.2
		c8.2,0.3,16.2,1.2,24.2-0.1c-1.6,4.2-2.9,8.4-1.8,13.1c-3.7-0.9-7.1-2.4-11-2.6c-0.6,2.7-0.4,5.3-0.1,8c1.3,0.2,2.4-0.2,3.6-0.5
		c1.1-0.3,2.2-0.6,3.7-0.9c-1,3.5-1.2,6.7,0.3,9.9c-2.6-0.2-5-0.4-7.3-0.6c-0.5,1.5-0.5,5,0,8c4-0.4,7.6-2.3,11.5-3.9
		c-0.5,4.2-0.8,8.1,1.1,12c-0.7,0.1-1.3,0.2-1.9,0.2c-4.4,0.1-8.7,0.1-13.1,0.2C256.2,43.7,253,43.7,249.7,43.7z"/>
	<path class="st0" d="M164.6,0.9c5,1.1,9.9,1.1,14.8,0.2c-0.6,5.4,0.3,10.4,2.8,15.5c2.3-5.2,2.6-10.4,2.5-15.8
		c5,1.1,9.8,1.2,14.9,0.2c-0.2,0.4-0.2,0.7-0.4,0.9c-3.4,5.3-6.1,10.9-8.5,16.7c-0.6,1.5-1.3,2.9-2.1,4.3c-1,1.7-1,3.6-1,5.4
		c0,3.7,0.5,7.3,1.4,10.9c0.4,1.5,1.1,3,1.7,4.6c-5.5,0-11,0-16.7,0c1.7-2.9,2.1-6.2,2.5-9.4c0.4-2.9,0.5-5.8,0.2-8.7
		c-0.1-0.7-0.4-1.3-0.7-1.9c-1-1.9-2.1-3.7-3-5.6c-2.7-5.5-5.4-11-8.1-16.6C164.7,1.5,164.7,1.3,164.6,0.9z"/>
	<path class="st0" d="M387.3,15.1c-3.6-1.6-7-3-10.8-3.2c-0.1,0.4-0.3,0.8-0.3,1.1c-0.5,7.9-0.7,15.7,0.4,23.5
		c0.3,2.5,0.8,4.9,2.2,7.2c-5.3-0.3-10.4-0.5-15.7,0.1c0.4-1.3,0.9-2.5,1.1-3.7c0.4-2.3,0.9-4.6,1.1-6.9c0.4-5.6,0.6-11.1,0.8-16.7
		c0.1-1.5-0.1-3-0.1-4.8c-3.7,0.3-6.9,1.5-10.2,3c0.8-4.7,0.1-9-1-13.5c3.7-0.1,7.3,0.5,11,0.5c3.6,0,7.2,0.1,10.8,0
		c3.7-0.1,7.3-0.3,11.2-0.5C385.9,5.8,386.5,10.3,387.3,15.1z"/>
	<path class="st0" d="M327.3,28.9c-0.3,2.6-0.7,5-0.8,7.4c-0.1,2.4,0.1,4.7,0.2,7.3c-8.2-0.4-16.3-0.6-24.6,0.1
		c0.2-1.3,0.4-2.5,0.5-3.6c0.7-6.6,1.1-13.3,1-20c-0.1-5.3-0.1-10.6-1.1-15.9c-0.2-1-0.4-2.1-0.7-3.3c1.8,0.3,3.5,0.7,5.2,0.8
		c1.8,0.1,3.6,0.1,5.4-0.1c1.7-0.1,3.4-0.5,5.2-0.8c-3,10.7-4.1,21.4-2.5,32.5C319.7,33,323.5,30.9,327.3,28.9z"/>
	<path class="st0" d="M291.8,0.9c-1.7,5.1-2.4,10.1-2.6,15.2c-0.3,5.6-1,11.2-0.3,16.8c0,0.3,0.2,0.6,0.2,0.9c1.1,0.4,2,0.1,3-0.3
		c2.1-0.8,4.1-1.7,6.1-2.6c0.7-0.3,1.4-0.6,2.4-1.1c-0.9,4.7-2,9.1-0.3,13.6c-8,0-15.8,0-23.7,0c0.3-1.4,0.9-2.7,1-4.1
		c0.3-4.3,0.5-8.6,0.6-12.9c0.1-4,0-8-0.3-11.9c-0.2-3.4-0.6-6.7-1-10.1c-0.1-1.1-0.6-2.2-0.9-3.6C281.3,2,286.4,1.8,291.8,0.9z"/>
	<path class="st0" d="M220.3,0c-1.8,4.1-3.6,8.1-5.3,12.1c-1.5,3.4-2.9,6.8-4.4,10.2c-2,4.6-4.1,9.2-6.1,13.8
		c-1,2.3-1.7,4.7-2.6,7.1c-2.6,0.4-5.2,0.8-8,1.2c0.2-0.5,0.3-0.8,0.5-1.1c4.1-8.4,8-16.9,11.3-25.6c1.6-4.3,3.5-8.5,5.3-12.8
		c0.4-0.9,0.7-1.9,1-2.9c0.2-0.5,0.3-0.9,0.9-0.9C215.3,0.7,217.7,0.4,220.3,0z"/>
	<path class="st0" d="M335.6,43c-2.6,0.5-4.8,1-7.2,1.5c0.4-1,0.7-1.8,1-2.6c1.8-4.6,3.6-9.3,5.4-13.9c1.9-4.9,3.7-9.8,5.5-14.8
		c1.2-3.4,2.4-6.9,3.5-10.4c0.4-1.1,0.8-1.7,2.1-1.8c1.7-0.1,3.4-0.5,5.4-0.8c-1.9,4.9-3.7,9.6-5.5,14.3c-1.8,4.7-3.5,9.4-5.2,14.2
		C338.8,33.5,337.2,38.3,335.6,43z"/>
</g>
</svg>
