<?xml version="1.0" encoding="utf-8"?>
<!-- Generator: Adobe Illustrator 23.0.2, SVG Export Plug-In . SVG Version: 6.00 Build 0)  -->
<svg version="1.1" id="Layer_1" xmlns="http://www.w3.org/2000/svg" xmlns:xlink="http://www.w3.org/1999/xlink" x="0px" y="0px"
	 viewBox="0 0 417.6 92.6" style="enable-background:new 0 0 417.6 92.6;" xml:space="preserve">
<style type="text/css">
	.st0{fill:#312163;}
</style>
<g>
	<path class="st0" d="M0,1.8c1-0.1,2.1-0.2,3.2-0.2c4.8,0,9.6,0,14.4,0c1.5,0,3-0.3,4.6-0.4C28.6,0.8,34.9,2,41.3,2.7
		C46.8,3.2,51.7,5.4,55.6,9c4.1,3.8,6.8,8.5,6.6,14.4c-0.1,4.2-0.2,8.4-2,12.4c-1.4,3.1-3.5,5.8-6.2,7.8c-3.2,2.4-6.7,4.5-10.1,6.9
		c2.9,4.3,5.8,8.9,9.9,12.5c4.1,3.7,9.1,5.9,14.3,7.8c0.1,0.2,0.3,0.4,0.4,0.7c-1.6,1.3-3.2,2.6-4.7,4.1c-4.3,4.5-6.8,10-8.4,15.8
		c-0.3,1.1-0.6,1.3-1.6,0.9c-3.2-1.1-5.5-3.5-8-5.6c-7.4-6.6-12-15-15.9-24c-0.8-1.9-1.7-3.7-2.6-5.7c-0.7,0.3-1.5,0.6-2.1,0.9
		c-1,7.1-0.2,13.9,0.9,20.8c0.7,4.3,2.4,7.9,4.9,11.3c0.3,0.4,0.6,0.7,1.3,1.4c-1,0.2-1.7,0.4-2.4,0.4c-7.2,0-14.4,0-21.7,0.1
		c-2.3,0-4.5,0.2-6.8,0.3c-0.4,0-0.8-0.2-1-0.3c1-2.4,2-4.6,2.8-6.9c0.4-1.3,0.7-2.7,0.7-4.1C4,71.6,4.2,62.3,4.2,53.1
		C4.2,48,4,42.9,3.8,37.8c-0.1-4.5-0.2-9-0.5-13.6C3,18.7,2.5,13.2,1.9,7.7C1.6,5.8,0.7,3.9,0,1.8z M25.7,37.3c1.3-0.4,2.2-0.6,3-1
		c4.3-2,6.9-5.7,9-9.7c1.3-2.5,0.8-4.1-1.3-6c-3.4-3.2-7.6-3.1-11.9-2.7C25,24.2,25.3,30.5,25.7,37.3z"/>
	<path class="st0" d="M262,58.6c-2.5,1.1-2.8,1.8-2.3,4.9c0.3,2.6,0.5,5.2,0.7,7.8c0.4,6.2,1.3,12.3,4.5,17.8
		c0.5,0.9,1.4,1.5,2.5,2.7c-11.6,0-22.6,0-33.9,0c3.6-3.6,4.4-8,4.6-12.4c0.5-11.3,0.7-22.6,0.8-33.8c0.1-7.7,0-15.5-0.4-23.2
		c-0.3-5.8-1.3-11.5-2-17.3c-0.1-1-0.7-2-1.3-3.3c4.2,0,8.3,0,12.4,0c5.3-0.1,10.6-0.5,15.9-0.3c5.1,0.2,10.2,0.7,15.3,1.6
		c2.5,0.4,4.9,1.9,7.2,3.2c4.3,2.4,7.4,5.9,9.2,10.7c1.2,3.1,1.3,6.3,1,9.4c-0.6,5.2-2.4,10.2-6,14.2c-3.4,3.9-6.7,8-12,10.6
		c3.3,4,6.2,8,9.7,11.4c3.5,3.4,7.5,6.5,12.7,7c0.9,0.1,1.7,0.2,2.7,0.3c-6.4,6.1-10.3,13-9.9,22.1c-0.1,0-0.6,0.2-0.9,0.1
		c-3.6-0.8-6.9-1.9-10-4c-6-4.1-10.3-9.7-13.6-16.1C266.3,67.7,264.2,63.2,262,58.6z M259.5,40.2c4.7-1.9,8.4-4.2,10.9-8.1
		c1.8-2.8,2.5-5.5,0.6-8.5c-2.4-3.9-6.5-4.3-10.8-5.4C260,25.7,259.7,32.8,259.5,40.2z"/>
	<path class="st0" d="M302.5,91.9c0.7-3.4,1.8-6.6,2.1-9.8c0.6-8.4,0.9-16.9,1-25.4c0.1-7.7-0.3-15.4-0.5-23.2
		c-0.1-2.8-0.7-5.7-0.7-8.5c0-5.7-0.3-11.3-1.6-16.9c-0.3-1.4-0.9-2.7-1.5-4.2c4.9-0.2,9.8-0.3,14.8-0.6c7-0.3,13.9,0.4,20.5,2.7
		c8.4,2.9,15.3,7.7,19.6,15.8c4.2,7.8,7,15.9,7.2,24.7c0.1,5.3-0.4,10.7-2.7,15.7c-1.8,4-3.2,8.1-5.1,12c-2.3,4.7-6,8.5-10.5,11.1
		c-6.5,3.6-13.4,6.5-21.1,6.7c-4.7,0.1-9.4,0-14.2,0C307.2,91.8,304.6,91.9,302.5,91.9z M326.7,72.5c1.7-0.9,3.1-1.3,4.1-2.1
		c5.8-5,8.7-11.5,8.8-19.1c0-3.8-0.2-7.6-0.8-11.3c-0.8-4.9-2.1-9.8-6.2-13.1c-1.8-1.5-3.9-2.7-5.9-4c-0.2,0.2-0.4,0.3-0.6,0.5
		C326.2,39.5,326.4,55.8,326.7,72.5z"/>
	<path class="st0" d="M234.7,40.6c0,5.3,0.1,10.7,0,16c-0.2,6.3-1.3,12.5-4.3,18c-3.2,5.9-7.1,11.4-12.9,15.1
		c-1.7,1.1-3.9,1.8-5.8,1.9c-3.7,0.2-7.3,0.9-11.1-0.5c-2.2-0.8-4.6-1-6.6-2.4c-2.7-1.8-5.2-3.7-7-6.5c-1.5-2.3-3.2-4.5-4.5-6.9
		c-1.4-2.6-2.4-5.4-3.4-8.2c-1.9-5.5-2.4-11.3-2.8-17.1c-0.2-3.7-0.4-7.4-0.4-11.1c0.1-5.9,1.6-11.6,4-16.9c0.8-1.9,1.5-3.9,2.5-5.6
		c1.4-2.3,2.8-4.7,4.6-6.7c3.5-4,7.8-7.1,13-8.7c6.3-2,12.3-1.4,18.2,1.5c3.9,2,6.5,5.2,8.8,8.9c3.3,5.3,5.4,11.1,6.6,17.2
		c0.8,3.9,1.1,7.9,1.6,11.8C235.1,40.5,234.9,40.6,234.7,40.6z M214.3,41.5c0.1-7.3-0.8-14.3-3.9-21c-1.4-3.1-4.6-4.1-6.3-1.6
		c-1.5,2.1-3,4.5-3.5,7c-1,5.5-1.8,11.2-1.9,16.7c-0.1,6.6,0.5,13.2,1.1,19.8c0.4,3.6,1.6,7.1,3.8,10.2c1.2,1.7,3,1.9,4.5,0.5
		c0.8-0.8,1.6-1.7,2-2.7c1-3.2,2.2-6.5,2.6-9.8C213.5,54.4,213.8,47.9,214.3,41.5z"/>
	<path class="st0" d="M116.8,66.2c-1.8,9.1-1.4,17.6,3.3,25.7c-17.9,0-35.5,0-53.5,0c3-4.6,3.6-9.6,4-14.5c0.3-3.3,0.3-6.6,0.4-9.9
		c0.2-7.7,0.4-15.4,0.4-23.2c-0.1-9.1-0.3-18.1-0.7-27.2c-0.2-4.9-0.9-9.7-1.4-14.7c17.4,0,35.3,0,53.4,0c-4.2,8.1-5,16.7-4.4,25.9
		c-8.3-3.2-16-7.2-24.9-7.8c-0.1,0.3-0.4,0.8-0.4,1.2c-0.2,6.3-0.3,12.6-0.4,18.9c0,1.1,0.4,1.7,1.6,1.5c4.1-0.6,8.2-1.1,12.4-1.7
		c1.4-0.2,2.8-0.7,4.2-1c1.2-0.3,1.8-0.2,1.4,1.5c-0.8,3.3-1.7,6.7-1.7,10c0,3,1.2,6.1,1.8,9.2c-6.7-0.3-12.8-3.7-19.5-3.8
		c0,6,0,11.8,0,17.8C101.3,72.1,109.5,70.9,116.8,66.2z"/>
	<path class="st0" d="M408.6,32.2c-1.1-0.7-2.2-1.4-3.4-2.1c-4.5-2.5-9-5.1-13.7-7.3c-1.6-0.8-3.9-0.6-5.8-0.2
		c-2.2,0.4-3.2,3-2.6,5.2c0.8,3.2,3.6,4.7,5.9,6.2c4.3,2.9,9,5.2,13.3,8.1c3,2.1,5.9,4.5,8.3,7.2c2.1,2.3,3.9,5.1,5.1,8
		c2.2,5.2,2.2,10.8,0.3,16.1c-1.7,4.9-4.4,9.4-9,12.5c-2.5,1.7-4.7,3.8-7.7,4.4c-10.8,2.3-21.7,3.3-32.6,0.4
		c-3.5-0.9-7-1.6-10.6-2.7c7.9-6.3,10.7-14.3,8.8-24.1c2.4,1.2,4.8,2.3,7,3.6c3.8,2.2,7.7,4,12.3,3.5c1.5-0.2,3.1,0.1,4.6-0.1
		c1-0.2,2.2-0.6,3-1.4c4-3.8,4.3-8,0.3-11.8c-2.7-2.6-6.3-4.2-9.5-6.3c-2-1.3-3.9-2.7-5.9-4c-4.2-2.6-8-5.8-10.4-10.2
		c-1.6-2.9-2.9-6.2-3.7-9.4c-0.9-3.9-0.9-8,0.5-12c2.5-7.2,7.7-11.3,14.9-12.7c6.4-1.3,12.9-0.4,19.2,1.2c4.5,1.1,9,1.2,13.5,0.8
		c0.6-0.1,1.3-0.1,2.1-0.1c-3.7,8.7-6.3,17.5-3.8,27C408.9,32,408.8,32.1,408.6,32.2z"/>
	<path class="st0" d="M179.4,2.8c-5.2,8.5-6.4,17.8-6.4,27.5c-3.6-2.9-7.3-4.9-11.5-5.9c-7.1-1.7-11.4,0.7-16.1,6.7
		c-3.4,4.4-4.2,9.6-3.9,14.8c0.2,5,1.7,9.8,4.3,14.1c1.2,2,2.4,4.2,4.2,5.5c6.2,4.9,9.6,4.4,15.4,1.2c2.6-1.5,5.1-3.3,7.7-5
		c-0.2,9.3,2.6,17.6,9.7,24.5c-3.4,1.4-6.6,3.2-10.1,4.2c-3,0.9-6.2,0.9-9.3,1.4c-5.1,0.8-10.2,0-15.1-1.3c-2.6-0.7-4.9-2.5-7.1-4.1
		c-5.2-3.6-9.2-8.4-12-14c-3.3-6.6-5.8-13.5-6.6-20.9c-0.7-6.2-0.7-12.4,0.4-18.6c1.7-9.8,5.9-18.3,14-24.4
		c4.8-3.6,10.1-6.2,16.4-5.9c6,0.3,12.1,0.6,18.1,0.7c2,0,3.9-0.4,5.9-0.6C177.9,2.8,178.4,2.8,179.4,2.8z"/>
</g>
</svg>
