<?xml version="1.0" encoding="utf-8"?>
<!-- Generator: Adobe Illustrator 23.0.2, SVG Export Plug-In . SVG Version: 6.00 Build 0)  -->
<svg version="1.1" id="Layer_1" xmlns="http://www.w3.org/2000/svg" xmlns:xlink="http://www.w3.org/1999/xlink" x="0px" y="0px"
	 viewBox="0 0 574.6 43.6" style="enable-background:new 0 0 574.6 43.6;" xml:space="preserve">
<style type="text/css">
	.st0{fill:#312163;}
</style>
<g>
	<path class="st0" d="M67.6,43c-4.7,0-9.3,0-14.1,0c0.1-0.4,0.3-0.7,0.3-1c0.3-1.4,0.8-2.8,0.8-4.2c0.1-11.5,0.1-22.9,0.1-34.4
		c0-0.8,0-1.6,0-2.3c1.9,0.1,3.6,0.3,5.3,0.2c1.7-0.1,3.3-0.4,5.1-0.7c1.4,4.2,3.8,7.8,6.1,11.6c2.2,3.7,4.7,7.2,8.2,10
		C79.1,15.1,78.8,8,77.1,1.3c2.3,0,4.6,0.1,6.8,0c2.3-0.1,4.5-0.3,6.9-0.5c0,0.1,0,0.3-0.1,0.5c-1,3.2-1.4,6.4-1.4,9.7
		c-0.1,7.7-0.2,15.4-0.2,23.1c0,2.6,0.4,5.3,0.5,7.9c0,0.3,0,0.5,0,0.8c-3.3,0-6.7,0-10.1,0c-5.1-7.4-10.1-14.7-15.2-22.2
		C64.1,24.6,64.5,36.3,67.6,43z"/>
	<path class="st0" d="M201.7,43c1.3-4.9,1-9.9,1-14.8c0-6.1,0-12.1-0.1-18.2c0-2.2-0.2-4.5-0.4-6.7c-0.1-0.8-0.4-1.6-0.6-2.5
		l0.2-0.2c5.1-0.4,10.1-0.3,14.9,1.6c5.6,2.2,9.8,5.9,11.6,11.9c1,3.5,0.9,7.1,0.7,10.8c-0.3,3.5-1.6,6.7-3.4,9.7
		c-1.2,2.1-3.2,3.5-5.3,4.8c-2.9,1.8-6.2,2.8-9.6,3.3C207.7,43.1,204.7,43.1,201.7,43z M212.2,33c5.3-2.2,8-6.7,7.2-13.7
		c-0.5-4.3-3.7-8.5-7.2-9.2C211.6,11.9,211.5,31,212.2,33z"/>
	<path class="st0" d="M371.7,43.1c-4.8,0-9.4,0-14.1,0c0.1-1,0.2-1.9,0.4-2.9c0.3-1.9,0.2-3.7-0.2-5.5c-0.3-1.8-0.8-2.2-2-2.1
		c-1.9,0.3-2.4,0.3-2.4,2.4c0,2.3,0.2,4.7,0.9,6.9c0.1,0.4,0.2,0.8,0.4,1.3c-4.6,0-9,0-13.5,0c0-0.2,0-0.4,0.1-0.6
		c3.1-7.5,4.1-15.4,4.8-23.4c0.4-5.3,1-10.6,1.5-15.8c0.1-0.8,0.1-1.6,0.2-2.5c4.9,0.5,9.8,0.3,14.7-0.2c0.1,1.1,0.2,2,0.3,3
		c0.5,3.9,1.1,7.9,1.7,11.8c0.9,5.4,1.8,10.9,2.8,16.3C368,35.6,369.4,39.4,371.7,43.1z M357.8,22.4c-0.6-3.1-1.1-5.9-2.1-8.7
		c-0.9,2.9-1.6,5.7-1.6,9C355.4,22.6,356.5,22.5,357.8,22.4z"/>
	<path class="st0" d="M24.6,43c-4.6,0-9,0-13.7,0C8.8,28.5,4.3,14.7,0,0.6c4.6,0.6,9,0.6,13.5-0.6c-0.2,9.6,0.4,18.9,4.2,27.7
		c1.7-4.4,2.1-8.9,2.4-13.5c0.4-4.6,0.2-9.1-0.6-13.7c2.5,0.1,4.8,0.4,7.1,0.3c2.3-0.1,4.5-0.5,6.8-0.7C28.6,14.1,26.5,28.5,24.6,43
		z"/>
	<path class="st0" d="M446.2,27.1c-3-0.1-5.7-0.7-8.4-0.2c-0.6,1.6-0.6,4.2-0.1,6.8c4.1,0.1,7.7-1.6,11.5-3.1
		c-0.3,2.1-0.6,4.2-0.7,6.2c-0.2,2.1,0.3,4.1,1.2,6.2c-0.9,0.1-1.7,0.2-2.5,0.2c-5.3,0-10.6,0-15.9,0c-1.6,0-3.3-0.2-4.9-0.3
		c1.6-6.4,1.5-12.8,1.3-19.2c-0.2-5.4-0.6-10.7-1.1-16c-0.2-2.3-0.7-4.6-1.1-7.1c8.3-0.3,16.6,0.3,25.2-0.2c-1.4,4.1-1.8,8-1.1,12.2
		c-4-1.2-7.9-2.3-12-2.6c0,2.7,0,5.2,0,7.8c2.8,0,5.1-1.1,7.7-2C444.6,19.7,444.4,23.3,446.2,27.1z"/>
	<path class="st0" d="M195.1,14.4c-1.9-0.8-3.6-1.7-5.4-2.4c-1.1-0.4-2.3-0.5-3.4-0.4c-3.6,0.2-5.5,2.6-7,5.5
		c-1.6,3.1-1.4,9.6,1.8,12.7c3.1,3,7.9,3.5,11.5,1.1c0.7-0.5,1.4-1,2.2-1.6c0.3,1.5,0.6,2.9,1,4.3c0.4,1.4,1,2.7,1.6,4
		c0.7,1.3,1.6,2.5,2.4,3.8c-5.5,1.2-11,2.4-16.7,1.4c-4.7-0.8-8.3-3.2-11-7c-3.9-5.6-5.3-11.9-4-18.6c0.9-4.7,3.1-8.8,6.6-12.1
		c2.5-2.4,5.7-3.6,9.1-4.4c2.1-0.5,4.1-0.3,6.2,0.1c2.8,0.5,5.6,0.7,8.4-0.1c0.1,0,0.2,0,0.5,0.1C196.7,5,195.2,9.6,195.1,14.4z"/>
	<path class="st0" d="M253.7,1.4c-1.4,4.3-2.6,8.6-2.3,13.4c-0.7-0.4-1.2-0.7-1.6-1c-1.6-1.1-3.2-2.3-4.8-3.4
		c-0.5-0.3-1.2-0.5-1.8-0.7c-1.2-0.3-2.4,0.1-2.9,1c-0.6,1-0.4,1.9,0.2,2.8c1.2,1.7,2.7,3.1,4.4,4.3c2.4,1.7,4.6,3.7,6.6,6
		c3.6,4.1,4.1,9.2,1.4,13.9c-1.6,2.8-4.3,4.4-7.5,4.9c-2.9,0.5-5.8,0.6-8.7,0.3c-3.1-0.4-6.1-0.8-9.2-1.2c-0.5-0.1-1-0.2-1.7-0.4
		c2.8-3.7,4.8-7.7,5.7-12.1c1.9,0.9,3.7,1.9,5.6,2.6c1.1,0.4,2.4,0.5,3.6,0.5c0.7,0,1.5-0.4,2.1-0.9c0.9-0.6,1-1.6,0.5-2.6
		c-0.4-0.7-0.8-1.4-1.4-1.9c-1.6-1.5-3.3-2.9-4.9-4.3c-3.3-2.9-6-6.1-6.9-10.6c-0.4-2.4-0.2-4.8,0.8-7c0.9-1.9,2.3-3.2,4.3-4
		c2.8-1.1,5.7-1.2,8.6-0.6c3,0.6,6,1,9,1C253.1,1.3,253.3,1.4,253.7,1.4z"/>
	<path class="st0" d="M545.4,43c-7.8,0-15.5,0-23.2,0c1.6-6.5,1.3-13,1.3-19.5c-0.1-6.7-0.3-13.4-0.5-20.1c0-1-0.3-2-0.4-2.9
		c8,0,15.9,0,23.8,0c-1.1,3.4-1.7,6.8-1.3,10.6c-3.9-1.1-7.8-1.4-11.9-1.7c-0.2,3,0,5.8,0.2,8.6c2.8,0.3,5-1.3,7.6-2.1
		c-0.6,3.9-0.7,7.5,1,11.3c-2.9,0.1-5.6-1-8.5-0.5c-0.3,2.3-0.3,4.5,0,7c4.2,0.1,7.8-1.6,11.7-3c-0.2,0.9-0.3,1.6-0.5,2.3
		C543.9,36.8,544.1,39.4,545.4,43z"/>
	<path class="st0" d="M572.7,2.4c-1.2,3.8-2.3,7.7-2.1,12c-0.8-0.5-1.4-0.9-2.1-1.2c-1.8-0.9-3.7-1.9-5.6-2.7
		c-0.6-0.2-1.4-0.3-2-0.1c-1.4,0.5-1.9,2-1.1,3.2c0.7,0.9,1.5,1.8,2.5,2.4c1.8,1.3,3.7,2.4,5.5,3.6c0.7,0.5,1.4,1.1,2.1,1.6
		c3.3,2.7,4.7,6.2,4.6,10.4c-0.1,2.2-0.9,4.2-2.2,6c-2.7,3.5-6.4,5-10.7,5.6c-3.7,0.5-7.3,0-10.9-0.7c-0.9-0.2-1.8-0.4-2.8-0.7
		c0.6-2.1,1.3-4.1,1.7-6.2c0.5-2.1,0.7-4.2,1.1-6.4c1,0.6,1.8,1.2,2.7,1.7c2.1,1.2,4.4,1.9,6.8,1.5c1.1-0.2,2.1-0.6,2.8-1.6
		c0.7-1.1,0.9-2.3,0.1-3.4c-0.7-0.9-1.4-1.9-2.4-2.5c-1.6-1.2-3.4-2.2-5.1-3.2c-2-1.2-3.7-2.6-4.9-4.6c-3.9-6.5-0.2-15.1,7.3-16.5
		c2.2-0.4,4.4-0.3,6.6,0.1C567.3,1.2,570,1.8,572.7,2.4z"/>
	<path class="st0" d="M393.5,15.6c-1.3-0.8-2.2-1.5-3.2-2c-1.1-0.6-2.2-1.2-3.4-1.7c-0.5-0.2-1-0.3-1.5-0.3c-1-0.1-2,0-2.5,1
		c-0.5,0.9-0.3,1.9,0.3,2.7c0.6,0.8,1.3,1.5,2.1,2.1c1,0.8,2.2,1.5,3.3,2.3c1.7,1.3,3.4,2.7,5,4.1c3.2,2.9,4.6,11.1,0.4,15.3
		c-2.6,2.7-5.8,4.1-9.5,4.1c-3.8,0-7.5-0.3-11.3-0.4c-0.2,0-0.4-0.1-0.7-0.2c1.6-4.2,1.7-8.5,1.5-13.1c0.8,0.6,1.3,1,1.8,1.4
		c1.5,1.2,3.2,2.1,5.1,2.5c2.3,0.4,3.9-0.6,4.4-2.6c0.2-1-0.1-1.9-0.7-2.5c-1.2-1.2-2.5-2.2-3.8-3.3c-1.5-1.2-3-2.1-4.4-3.4
		c-4.5-3.9-5.8-10.8-3-16.5c1.2-2.4,3.4-3.9,6-4.6c2.5-0.6,5-0.2,7.4,0.2c2.9,0.4,5.7,1.1,8.9,0.7C394.2,6,393.1,10.5,393.5,15.6z"
		/>
	<path class="st0" d="M420.5,15.6c-1.3-0.8-2.2-1.5-3.2-2c-1.1-0.6-2.2-1.2-3.4-1.7c-0.5-0.2-1-0.3-1.5-0.3c-1-0.1-2,0-2.5,1
		c-0.5,0.9-0.3,1.9,0.3,2.7c0.6,0.8,1.3,1.5,2.1,2.1c1,0.8,2.2,1.5,3.3,2.3c1.7,1.3,3.4,2.7,5,4.1c3.2,2.9,4.6,11.1,0.4,15.3
		c-2.6,2.7-5.8,4.1-9.5,4.1c-3.8,0-7.5-0.3-11.3-0.4c-0.2,0-0.4-0.1-0.7-0.2c1.6-4.2,1.7-8.5,1.5-13.1c0.8,0.6,1.3,1,1.8,1.4
		c1.5,1.2,3.2,2.1,5.1,2.5c2.3,0.4,3.9-0.6,4.4-2.6c0.2-1-0.1-1.9-0.7-2.5c-1.2-1.2-2.5-2.2-3.8-3.3c-1.5-1.2-3-2.1-4.4-3.4
		c-4.5-3.9-5.8-10.8-3-16.5c1.2-2.4,3.4-3.9,6-4.6c2.5-0.6,5-0.2,7.4,0.2c2.9,0.4,5.7,1.1,8.9,0.7C421.2,6,420.1,10.5,420.5,15.6z"
		/>
	<path class="st0" d="M112.1,0.4c5,1.2,9.9,1.1,14.8,0.3c0,0.3,0,0.4-0.1,0.6c-3.4,5.1-5.9,10.5-8.3,16.1c-0.8,1.8-1.7,3.7-2.6,5.4
		c-0.9,1.6-0.9,3.4-0.8,5.1c0,3.6,0.5,7.2,1.3,10.7c0.3,1.4,1,2.8,1.5,4.3c-5.4,0-10.6,0-16,0c0-0.2,0-0.4,0.1-0.5
		c1.6-3.8,2.1-7.9,2.2-12c0.1-1.6,0-3.3,0-4.9c0-0.6-0.1-1.4-0.5-1.8c-1.8-2.3-2.8-5.1-4.1-7.7c-2.4-4.9-4.8-9.8-7.2-14.7
		c-0.1-0.2-0.1-0.4-0.3-0.7c5,1,9.9,1.1,14.8,0.2c-0.3,7,0.6,11.6,2.9,15.3C112,11.1,112.2,5.9,112.1,0.4z"/>
	<path class="st0" d="M487.9,14.4c0.8-4.8,0-9.3-0.8-13.8c10.8,0.3,21.6,0.8,32.5-0.2c-0.9,4.7-1.4,9.3-0.2,14.2
		c-3.7-1.4-7-2.8-10.9-3.1c-0.7,3.5-0.6,6.9-0.6,10.4c0,3.6,0,7.1,0.3,10.7c0.2,3.5,0.8,6.9,2,10.5c-2.6-0.1-5.1-0.3-7.5-0.3
		c-2.4,0-4.9,0.2-7.4,0.4c0.1-0.4,0.2-0.8,0.3-1.1c1.1-2.9,1.6-5.8,1.8-8.9c0.3-5.6,0.6-11.2,0.8-16.9c0.1-1.5-0.1-3-0.1-4.8
		C494.4,11.9,491.3,13,487.9,14.4z"/>
	<path class="st0" d="M484.9,0.7c-1.3,4.6-0.8,9.1,0.1,13.8c-3.6-1.4-7-2.8-10.9-3c-0.1,1-0.3,2-0.3,2.9c-0.1,3.6-0.3,7.2-0.2,10.8
		c0.1,4.8,0.2,9.6,1.4,14.2c0.3,1.2,0.7,2.3,1.1,3.5c-5,0-10,0-15,0c0-0.2,0-0.4,0.1-0.6c1.3-3.3,1.8-6.6,2-10.1
		c0.3-6.1,0.5-12.2,0.8-18.3c0-0.8-0.1-1.6-0.2-2.5c-3.6,0.3-6.7,1.5-10.1,2.8c0.9-4.7,0-9.1-1-13.5c5.4,0.2,10.8,0.4,16.2,0.4
		C474.1,1.2,479.4,0.8,484.9,0.7z"/>
	<path class="st0" d="M339.7,0.5c-2.5,4.2-3.3,8.7-3.9,13.5c-0.7-0.4-1.3-0.9-1.9-1.1c-1.2-0.5-2.4-1.1-3.7-1.4
		c-3.4-0.7-6.5,0.8-8,4c-1.8,3.9-1.5,10,1.7,13.5c2.5,2.7,5.8,3.7,9.1,1.5c1-0.6,1.9-1.3,3-2.1c0.1,0.4,0.2,0.7,0.2,1
		c0.3,1.8,0.6,3.6,1,5.3c0.5,2.1,1.3,4,3,5.6c-3.8,1.8-7.6,3.1-11.7,2.7c-5.3-0.4-9.5-3-12.6-7.3c-3.6-5.1-4.5-10.8-4.2-16.8
		c0.2-3.5,0.9-6.9,2.5-10.1c2.8-5.6,7.3-8.5,13.6-8.5c0.9,0,1.9,0.2,2.8,0.4c2.7,0.4,5.5,0.6,8.2-0.1C339.1,0.5,339.3,0.5,339.7,0.5
		z"/>
	<path class="st0" d="M128.6,43c1.1-2.7,1.2-5.4,1.3-8c0.2-4.9,0.5-9.8,0.5-14.6c0-6.6-0.1-13.1-1.4-19.9c4.5,1,9,1,13.4,0.1
		c0,0.3,0.1,0.5,0.1,0.7c-1,4.6-1.2,9.3-1.4,13.9c-0.2,4.7-0.2,9.4-0.3,14.2c0,0.9,0.1,1.8,0.2,2.7c0.2,1.1,0.4,1.3,1.4,1.3
		c1.1,0,2.2,0,3.3-0.2c2.7-0.3,5.3-1.1,7.5-2.8c0.2-0.2,0.5-0.3,0.7-0.4c0.1,0,0.2,0,0.3,0c-0.9,8.2-0.6,6.7,1,13
		C146.5,43,137.7,43,128.6,43z"/>
	<path class="st0" d="M36.5,0.6c4.9-0.1,9.5,0.6,14.3-0.2c-0.1,0.5-0.2,0.8-0.3,1.1c-0.8,2.3-1.2,4.7-1.4,7.2c-0.7,9-1,18,0.5,27
		c0.3,2.1,1.1,4.1,1.7,6.1c0.1,0.3,0.2,0.6,0.4,1.1c-5.1,0-10.1,0-15.1,0c0,0-0.1-0.2,0-0.3c1.4-5.2,1.8-10.6,1.9-15.9
		c0.1-6.1,0-12.1-0.1-18.2C38.3,5.8,37.8,3.2,36.5,0.6z"/>
	<path class="st0" d="M278.9,28.2c-0.1-2,0.6-3.9,0-5.8c-0.9,0.3-0.9,1.1-1.1,1.7c-0.4,1.2-0.6,2.4-1,3.5c-0.6,1.6-1.3,1.9-3,1.5
		c-0.6,0.4-1.1,0.9-1.7,1.2c-1.3,0.6-2.6,0.1-3.1-1.3c-0.7-2-0.4-4,0.8-5.8c0.5-0.8,1.2-1.2,2.1-1.2c0.9,0,1.7,0,2.8,0
		c0,0.9-0.1,1.8-0.1,2.7c0,0.9-0.2,1.8,0.2,2.7c0.8-0.3,0.9-0.9,1-1.4c0.3-1.2,0.6-2.4,1-3.5c0.6-1.8,1.5-2.2,3.3-1.5
		c0.4-0.4,0.7-0.9,1.2-1.2c0.9-0.8,1.9-0.9,3-0.5c1,0.4,1.1,1.4,1.1,2.3c0,1-0.2,2,0.4,3.1c0.3-0.3,0.7-0.4,0.8-0.7
		c0.4-1,0.8-2.1,1.2-3.1c0.2-0.5,0.2-1.1,0.5-1.7c0.8-1.9,2.1-2.5,4.3-1.9c0-0.4,0-0.8-0.1-1.2c-0.3-1.7-0.3-3.5,0.2-5.2
		c0.1-0.5,0.4-1,0.6-1.4c0.4-0.6,0.9-0.9,1.6-0.8c0.7,0.2,1.2,0.7,1.2,1.5c0,0.7,0,1.5-0.2,2.2c-0.4,1.6-1,3.1-1.4,4.7
		c-0.3,1.3-0.4,2.7-0.4,4.1c0,1.3,0.5,1.5,1.6,0.8c0.2-0.2,0.5-0.3,0.8-0.6c-0.7,2.8-2.2,3.4-3.8,1.9c-1.8,2.5-3,2.6-4.6,1.1
		c-0.4,0.5-0.8,1.1-1.3,1.5c-1.4,1.2-2.8,0.7-3-1.1c-0.1-0.9,0-1.8-0.1-2.7c0-0.6,0-1.4-0.7-1.4c-0.4,0-1.1,0.5-1.3,1
		c-0.4,1.1-0.6,2.2-0.9,3.4c-0.1,0.5,0,1-0.1,1.4C280.6,27.9,280.6,27.9,278.9,28.2z M273,25.8l-0.2-0.1c0-0.3,0-0.7-0.1-0.9
		c-0.2-0.4-0.4-0.8-0.7-1.2c-0.4,0.3-1.1,0.5-1.2,0.8c-0.3,1.1-0.5,2.3-0.6,3.5c0,0.3,0.4,0.8,0.7,0.9c0.3,0.1,0.9-0.2,1.1-0.5
		C272.4,27.6,272.7,26.7,273,25.8z M289.2,21.5l0.1,0c0,0.3-0.1,0.6,0,0.8c0.2,0.4,0.4,0.9,0.8,1c0.2,0.1,0.8-0.3,0.9-0.7
		c0.4-0.9,0.7-1.8,0.9-2.7c0.1-0.5-0.1-1.1-0.7-1.2c-0.6-0.2-1.1,0.1-1.3,0.6C289.6,20.1,289.4,20.8,289.2,21.5z M293.8,13.6
		c0.8-1.6,0.9-2.2,0.5-3.6C293.9,11.2,293.8,12.3,293.8,13.6z"/>
	<path class="st0" d="M297.5,26.8c-0.2,0-0.3-0.1-0.4-0.1c-0.7,0.1-1.2-0.1-1.4-0.8c-0.1-0.4,0.1-1,0.3-1.3c0.4-0.6,1.1-0.6,1.7-0.3
		c0.9,0.3,1.4,1.4,1.2,2.5c-0.3,1.5-1.3,2.4-2.8,2.8c-1.5,0.3-3,0.6-4.6,0.7c-3.5,0.3-7.1,0.4-10.7,0.6c-2,0.1-3.9,0.4-5.8,0.7
		c-1.2,0.2-2.3,0.6-2.7,2c0.2,0.1,0.3,0.2,0.4,0.2c0.6,0,1.2,0.2,1.2,0.8c0,0.4-0.3,1-0.6,1.3c-0.4,0.4-1,0.5-1.6,0.2
		c-1.1-0.6-1.4-1.8-0.9-3.1c0.7-1.5,2.1-2.1,3.6-2.3c1.5-0.2,3-0.3,4.4-0.4c4-0.2,8-0.3,11.9-0.7c1.6-0.1,3.1-0.5,4.6-1
		C296.5,28.4,297.2,27.9,297.5,26.8z"/>
</g>
</svg>
