<?xml version="1.0" encoding="utf-8"?>
<!-- Generator: Adobe Illustrator 23.0.2, SVG Export Plug-In . SVG Version: 6.00 Build 0)  -->
<svg class="bluebonnet-svg" version="1.1" id="Layer_1" xmlns="http://www.w3.org/2000/svg" xmlns:xlink="http://www.w3.org/1999/xlink" x="0px" y="0px"
	 viewBox="0 0 661.5 94.8" style="enable-background:new 0 0 661.5 94.8;" xml:space="preserve">
<style type="text/css">
	.st0{fill:#312163;}
</style>
<g>
	<path class="st0" d="M403.7,94.1c-11.1,0-21.7,0-32.8,0c3.9-4.3,4-9.3,4.3-14c0.6-10.2,1-20.4,1-30.6c0-9.6-0.4-19.3-0.8-28.9
		c-0.3-6.2-1-12.3-1.5-18.7c2,0.3,4.2,0.6,6.5,1c4.9,0.8,9.9,1.5,14.9,0.3c1.2-0.3,2.6,0.2,3.9,0.4c7.1,16.4,15.8,31.7,28.8,44.3
		c-0.2-15.2-1.3-30.2-3.9-45c4.8,0.4,9.5,1.1,14.2,1c4.7,0,9.3-0.8,14-1.2c-1.6,6.6-2,13.5-2.1,20.4c-0.2,9.3-0.4,18.6-0.3,27.8
		c0.1,9.1,0.3,18.2,0.8,27.3c0.3,5.4,0.2,10.9,3.4,16c-2.1,0-3.7,0-5.4,0c-5.7-0.1-11.4-0.2-17-0.3c-1.5,0-2.8-0.1-3.7-1.8
		c-4.3-7.4-8.5-14.9-13.2-22.1c-4.6-7-9.6-13.6-14.5-20.4c-0.5-0.7-1.1-1.4-2-2.4c-0.2,12.9-0.7,25.1,1.3,37.3
		C400,88,400.9,91.4,403.7,94.1z"/>
	<path class="st0" d="M489.1,94.2c-10.5,0-21,0-31.5,0c0.1-0.3,0.2-0.7,0.4-1.1c2.5-3.9,3.1-8.3,3.3-12.7c0.4-9.1,0.7-18.3,0.7-27.4
		c0-7.2-0.6-14.5-0.9-21.7c-0.1-2.5,0-4.9-0.1-7.4c-0.2-7.3-0.8-14.6-3-22c2.6,0.3,5.2,0.6,7.7,0.8c2.7,0.2,5.3,0.3,8,0.4
		c2.2,0.1,4.4,0,6.6,0c0.3,0,0.6,0,1,0c3.8-0.1,3.7-0.1,5.1,3.7c2.8,7.4,6.4,14.4,10.9,21c4,5.9,8.5,11.5,12.8,17.2
		c0.5,0.6,1.2,1,2.1,1.7c-0.2-15.2-0.7-30.1-2.9-44.9c9.1,0.5,18.3,2.4,27.7-0.5c-0.7,4.6-1.5,8.7-2,12.9c-0.3,2.4-0.4,4.8-0.4,7.2
		c-0.2,9.4-0.7,18.9-0.6,28.3c0.1,9.6,0.7,19.1,1.4,28.7c0.4,5.2,1.4,10.3,2.2,15.6c-8,0-16.3,0-24.6,0c-3.1-5.8-6.4-11.6-9.5-17.5
		c-2.1-4-3.7-8.2-6-12.1c-2.4-4.1-5.2-7.9-7.8-11.8c-1.4-2.1-2.9-4.1-4.3-6c0,4.6-0.1,9.2,0,13.7c0.1,7,0.2,14.1,0.5,21.1
		c0.1,2.2,0.4,4.3,1,6.4C487.2,89.8,488.1,91.7,489.1,94.2z"/>
	<path class="st0" d="M1.6,0.4c1.4,0,3,0,4.6,0c2.7-0.1,5.3-0.4,8-0.4c4.4,0,8.8,0.2,13.2,0.4c5.6,0.3,10.9,1.9,16.1,3.8
		c4.1,1.6,8.1,3.5,11,6.9c4.1,4.8,6.2,10.3,5.1,16.9c-0.7,4.2-1.7,8.3-4,11.9c-2.8,4.5-6.9,7.6-11.7,9.9c1.7,0.6,3.4,1,5.1,1.7
		c4.3,1.6,7.8,4.5,10.4,8.1c3.5,4.9,3.7,10.5,2.6,16.2c-0.7,3.4-1.5,6.8-3.9,9.5c-4.1,4.6-9.1,7.3-15.3,8.1
		c-12.3,1.6-24.6,0.9-36.9,1c-2,0-3.9-0.3-6.1-0.5c0.7-1.1,1.4-2.1,2-3.2c1.7-3.4,1.7-7.1,1.9-10.7c0.3-5.6,0.4-11.2,0.3-16.8
		c0-6.7-0.2-13.4-0.3-20.1c-0.1-6.6-0.1-13.3-0.4-19.9C3.3,17.6,2.8,12,2.4,6.5C2.2,4.5,1.9,2.5,1.6,0.4z M23.7,37.7
		c3.5-0.8,5.9-2.6,8.3-4.5c4.4-3.6,3.1-10-1.5-11.9c-2.2-0.9-4.5-1.5-6.8-2.2C23.7,25.5,23.7,31.5,23.7,37.7z M25.1,77.5
		c3.6-0.7,6.8-1.9,9.4-4.5c1.9-1.9,2-4.8,0.5-6.9c-2.5-3.3-6.2-3.4-9.9-4.3C25.1,67.1,25.1,72.2,25.1,77.5z"/>
	<path class="st0" d="M295.2,46.5c3.9,1,6.7,3.3,9.5,5.9c3.5,3.3,5.2,7.5,6.1,12c0.9,4.7,1.1,9.5-0.8,14c-3.5,8.3-8.6,15-18.4,15.7
		c-7.6,0.5-15.2,0.4-22.8,0.5c-6.6,0-13.1-0.2-20-0.3c3.5-6.2,3.8-12.6,3.7-19.1c-0.1-5.1,0-10.2,0-15.4c0-7.7,0.1-15.3-0.1-23
		c-0.2-8.5-0.5-17.1-1.1-25.6c-0.3-3.3-1.5-6.6-2.5-10.3c2.3,0,4.9,0,7.4,0c7.2-0.1,14.4-0.4,21.6-0.1c7.1,0.2,13.9,1.7,19.7,6.2
		c4.7,3.7,7.8,8.3,8.7,14.2c0.7,4.2,0,8.3-1.7,12.1c-1.5,3.2-3.3,6.3-5.3,9.3C298.2,44.1,296.7,45.1,295.2,46.5z M274.1,38.1
		c1-0.3,1.9-0.6,2.8-0.9c4.6-1.8,7.2-5.3,7.7-10.1c0.4-3.8-6.2-8.8-10.5-8.1C274.1,25.3,274.1,31.6,274.1,38.1z M273.6,76
		c4.2-0.3,7.9-1.6,10.7-4.6c1.6-1.8,2-4,1-5.2c-3.1-3.6-7-5.8-11.7-6.9C273.6,65,273.6,70.4,273.6,76z"/>
	<path class="st0" d="M154.3,3.1c4.7,0,9.4,0.3,14-0.1c4.6-0.3,9.1-1.2,13.7-1.9c-1.7,6.9-2.5,14.1-2.4,21.5
		c0.1,5.6,0.3,11.2,0.4,16.9c0.1,6.8,0.2,13.6,0,20.4c-0.1,4.7-0.5,9.4-1.1,14.1c-1,8-5.6,13.8-12.4,17.6c-2.9,1.6-6.5,2-9.9,2.5
		c-3.3,0.5-6.7,0.9-10,0.8c-5.3-0.1-10.7-0.9-15.2-3.8c-4.4-2.8-8.1-6.6-10.4-11.5c-2.8-6-3.8-12.4-4.1-19c-0.2-6-0.6-12-0.8-18
		c-0.3-7.3-0.2-14.6-0.7-21.8c-0.4-6.2-1.5-12.4-2.2-18.6c9.6,1.2,19.5,3.1,29.3-0.1c-1.1,4.6-2.5,8.7-3,13
		c-0.7,5.2-0.8,10.5-0.8,15.8c0,7.4,0.3,14.8,0.8,22.2c0.3,5.1,0.7,10.3,3,15c1.4,3,3.9,4.4,7,4.9c3.2,0.5,7-2.7,7.5-6.5
		c0.7-6,1.5-12,1.6-18c0.2-8.7,0-17.4-0.5-26.1c-0.3-5.1-1.4-10.1-2.2-15.2C155.7,5.7,154.8,4.3,154.3,3.1z"/>
	<path class="st0" d="M371.1,42.5c0,2.2,0.1,4.5,0,6.7c-0.3,4.4-0.7,8.7-1.1,13.1c-0.4,5.8-1.7,11.3-4.3,16.5
		c-3.3,6.6-8.1,12.1-15.2,14.8c-2,0.8-4.4,0.8-6.5,0.8c-3,0-6,0-8.9-0.6c-4.5-1-7.4-4.4-10.2-7.8c-5.4-6.5-8.2-14-10-22
		c-0.8-3.3-1.1-6.7-1.3-10.1c-0.3-3.7-0.6-7.4-0.4-11.1c0.7-10.1,1.8-20.2,6.8-29.3C324.6,5,332,0.6,341.5,0.1
		c3.8-0.2,7.8,0.1,11.5,1.2c5.1,1.4,8.5,5.3,11.3,9.8c3.4,5.5,4.8,11.7,5.7,18c0.6,4.5,1,9,1.5,13.5L371.1,42.5z M350.3,40.9
		c-0.3-4.1-0.6-9.1-1.1-14.1c-0.3-3-1.3-5.9-3.5-8.2c-1.5-1.6-2.6-1.8-4.2-0.3c-0.6,0.5-1.1,1.1-1.5,1.7c-2.2,3.5-3.2,7.5-3.4,11.6
		c-0.5,7.8-0.7,15.6-0.8,23.3c-0.1,5.7,1.4,11.2,4,16.2c1.5,2.9,2.9,3.9,5.4,1c2.3-2.7,3.6-5.9,3.9-9.4
		C349.5,55.7,349.8,48.7,350.3,40.9z"/>
	<path class="st0" d="M185.5,1.1c19.3,0,38.3,0,57.5,0c-2.7,8.7-4.6,17.3-1.1,26.6c-1.1-0.3-1.8-0.4-2.4-0.6
		c-2.7-1.1-5.4-2.5-8.1-3.4c-4.3-1.3-8.6-2.4-12.9-3.3c-2.1-0.4-4.3-0.1-6.7-0.1c-0.5,6.9-0.9,13.6-1.4,20.8
		c6.6-1.6,12.8-3,19.6-4.7c-4,7.9-5.1,15.6,0,23.6c-6.8-1.3-13.2-2.4-19.5-3.6c0,5.9,0,11.6,0,17.6c10.9,0,20.8-3.2,31-7.1
		c-0.5,2.6-0.9,5-1.5,7.3c-1.6,6.2-1.3,12.1,1.9,17.8c0.3,0.6,0.8,1.1,1.4,2.1c-19.2,0-38.1,0-57.1,0c0.5-3.3,1-6.4,1.4-9.5
		c0.4-3.1,1-6.1,1.1-9.2c0.2-12.3,0.4-24.5,0.4-36.8c0-8.4-0.4-16.8-0.8-25.3c-0.2-3.8-0.7-7.5-2.3-11
		C185.7,2.1,185.6,1.7,185.5,1.1z"/>
	<path class="st0" d="M566.2,42.6c5.5-2.1,10.7-4.1,16.3-6.3c-0.2,1.3-0.2,2.3-0.5,3.2c-2.2,6.5-1,12.5,2.6,18.2
		c0.1,0.2,0.2,0.4,0.4,1.1c-6.3-0.2-12.1-2.5-18.3-2.7c-0.9,6.6-0.4,13.1,0,19.9c8.9-1.2,17.5-2.8,25.5-7.4
		c-0.4,2.8-0.8,5.3-1.1,7.9c-0.6,5.6,0,11.1,2.1,16.3c0.7,1.6,0.3,2.1-1.4,2.1c-11.4-0.1-22.7-0.2-34.1-0.2c-4.9,0-9.8,0-14.9,0
		c0.6-2,1.3-3.5,1.5-5.1c0.5-5.2,1.1-10.5,1.2-15.7c0.2-6.1,0-12.1-0.1-18.2c-0.1-4.5-0.3-8.9-0.4-13.4c-0.2-10.2-0.2-20.4-0.6-30.6
		c-0.1-3.2-1.1-6.4-1.7-10c16.9,0,34.3,0,52.2,0c-5.4,8.4-5.1,17.4-3.6,26.5c-4.1-1.4-8-3-12.1-4.1c-4-1.1-8.1-1.7-12.3-2.5
		C565.7,28.4,566.4,35.3,566.2,42.6z"/>
	<path class="st0" d="M645.1,94.3c-11.1,0-21.9,0-32.5,0c1.1-5,2.6-9.7,3.2-14.5c0.8-5.4,0.9-10.9,1.2-16.4c0.4-5.7,0.8-11.4,1-17.1
		c0.2-5.8,0-11.6,0.1-17.3c0-1.6,0-3.3,0-5.2c-6.4,2-12.5,3.9-19,5.9c2.4-9.6,1.3-18.7-1.1-27.8c21.1,0,42.3,0,63.5,0
		c-4.1,8.8-4.1,18-2.8,27.8c-6.4-2.3-12.5-4.6-18.9-6.9c-0.2,2.8-0.5,5.3-0.6,7.8c-0.2,4-0.4,7.9-0.3,11.9c0.1,4.8,0.4,9.7,0.7,14.5
		c0.2,3.3,0.4,6.5,0.4,9.8c0.1,6.9,0.4,13.7,2.4,20.3C643,89.3,644,91.5,645.1,94.3z"/>
	<path class="st0" d="M61.3,2.2c5.8,0.4,11.5,1.2,17.2,1.1c5.6-0.1,11.3-1.1,16.4-1.6c-0.8,3.3-2,7-2.7,10.8
		c-0.7,4-1.3,8.1-1.5,12.2c-0.5,12.1-0.9,24.2-1.2,36.4c-0.1,4.3,0.3,8.6,0.5,13.2c8.1-0.5,15.5-3,22.5-6.7
		c-0.4,4.5-0.9,8.9-1.2,13.4c-0.3,4.7,1.4,8.9,4,13.1c-18.2,0-36.1,0-54.3,0c4.1-3.8,4.8-8.8,5.4-13.7c0.5-4.8,0.7-9.7,0.7-14.5
		c0-4-0.4-8.1-0.6-12.2c0-0.8,0-1.7-0.1-2.5c-0.3-7.5-0.5-14.9-0.8-22.4c-0.2-4.4-0.4-8.8-0.8-13.1C64.6,11,63.3,6.4,61.3,2.2z"/>
</g>
</svg>
