<?xml version="1.0" encoding="UTF-8"?>
<svg enable-background="new 0 0 266.6 109.5" version="1.1" viewBox="0 0 266.6 109.5" xml:space="preserve" xmlns="http://www.w3.org/2000/svg">
<style type="text/css">
	.st0{fill:#312163;}
</style>
<path class="st0" d="m265.6 14c-0.9-0.5-2-0.6-3-0.9-0.2-0.4-0.6-0.8-1-0.9-1.5-0.3-3-0.5-4.5-0.8-0.3-0.1-0.7-0.1-1-0.1 0.1-0.4 0.1-0.8 0.2-1.1 0.5-0.9 0.8-1.8 0.1-2.7-0.7-1-1.7-0.9-2.6-0.6-1.1 0.3-2.1 0.6-3.2 0.9-0.2-1.9-0.9-2.4-2.7-1.8-1.4 0.5-2.8 1.1-4.3 1.7 0.3-1.4 1.2-2.8-0.2-3.9s-2.6 0.1-3.9 0.6v-0.2h-0.1c0.1-1.3 0-2.7-1.4-3.1-0.3-0.1-0.5-0.1-0.7-0.1-1.3-0.1-1.9 1.1-2.6 2h-0.7c-1.9-0.1-3.6 0.7-4.3 2.2-0.5 1.2-0.7 2.5-0.7 3.8-0.1 1.8 0.8 3.3 2.6 4.2-0.7 0.6-1.2 1.2-1.9 1.8-0.1-0.5-0.1-0.8-0.2-1.2-0.1-1 0-2.1-0.3-3-0.4-1-1.1-2.1-1.9-2.6-0.4-0.2-0.7-0.2-1.1-0.2-0.9-0.1-1.8 0.5-2.6 1.2-0.1 0.1-0.2 0.3-0.3 0.4-0.8 1-0.6 1.4 0.7 1.7 0.8 0.2 1.6 0.7 2.1 1.3 1 1.3 0.5 3.8-0.5 5.1 0.2-1.1 0.4-2.3 0.4-3.5 0.1-1.7-0.7-2.5-2.4-2.5-0.7 0-1-0.2-1.3-0.8-0.6-1.6-1.9-2.4-3.3-2.4-0.8-0.1-1.7 0.2-2.5 0.7-2 1.4-3.4 3.3-3.7 5.7-0.1 1.2-0.6 1.7-1.6 2.1-1.1 0.5-1.7 2-1.4 2.9 0.3 0.8 1.4 1.3 2.5 1.2h0.8 0.1c0.1 1.8-1.4 1.6-2.3 2.1-0.2-0.6-0.2-1.3-0.6-1.6s-1.2-0.2-2-0.3c0.3-0.8 0.6-1.7 0.9-2.5 0.5-1.2 1.3-2.1 2.3-2.9 0.8-0.6 1.6-1.4 1-2.6-0.8-1.4-0.4-2.9 1.1-3.5 1.1-0.5 2.2-1.1 3.3-1.7 0.7-0.4 1.1-1.1 0.7-1.8-0.3-0.5-1-0.9-1.6-1h-0.4c-0.6-0.1-1.2 0.2-1.9 0.3-0.1-0.2-0.1-0.3-0.2-0.5-0.7-1.7-2-2.5-3.7-2.5h-0.1-0.2c-1.6 0-2.8 0.9-3.3 2.4-0.1 0.3-0.3 0.6-0.5 0.9-0.7 1.2-0.3 1.8 1.1 2 0.6 0.1 1.3 0.4 1.8 0.7s0.9 0.8 1.4 1.1c0.6 0.3 0.7 0.7 0.5 1.3-0.6 1.3-1.1 2.7-1.6 4-0.8 2.1-1.5 4.1-2.3 6.3-0.5-0.9-1.1-1.3-2.2-1.2h-0.8c1.1-0.7 2-1.1 2.7-1.7 2-1.6 2.7-4 3.3-6.2 0.6-2.1-1.1-3.9-3.3-3.8h-0.2-0.2c-0.7 0-1.4 0.2-2.1 0.4-0.1-0.5-0.2-1-0.4-1.5s-0.4-1-0.7-1.5c-0.6-0.9-1.2-1.4-1.9-1.3-0.5-0.1-1.1 0.1-1.7 0.7-1 0.9-1.8 2.1-2.4 3.3-0.9 1.8-1 3.8-0.6 5.8 0.2 0.8 0 1.2-0.9 1.4-0.6 0.1-1.2 0.6-1.7 1-1.3 1.2-1.6 2.9-0.6 3.6 0.7 0.5 1.5 0.9 2.3 1.1 1.7 0.3 3.4 0.5 5 0.7 0.2 0.9 0.4 1.8 0.6 2.8 0.3 1.2 0.4 1.8 0.2 2.2v-0.2c-0.7-3.9-1.5-4.6-5.5-4.9-0.6-0.1-1.2-0.3-1.8-0.5-1.8-0.8-2.3-2.7-1-4.2l1.5-1.5c0.3-0.3 0.5-0.7 0.5-1.1 0.1-2-0.5-3.7-2.2-4.9-0.4-0.3-0.7-0.4-1-0.3-0.5-0.1-0.9 0.1-1.1 0.7-0.4 0.9-0.8 1.9-1.2 2.7-0.3 0.6-0.3 1 0.2 1.6 1 1.2 1.6 2.5 1.3 4.1-0.3 1.4-1.7 3-2.9 3.6 0.6-0.9 1.3-1.8 1.9-2.9 0.7-1.1 0.9-2.4 0.1-3.6-0.7-1-1.6-1.4-2.7-1.3-0.3 0-0.6 0-0.9 0.1l-0.3-1.8c-0.3-1.9-1.9-3.4-3.4-3.3-0.3 0-0.5 0-0.8 0.1-1 0.3-1.9 0.7-2.7 1.3-1.6 1.1-2.7 2.6-2.9 4.7-0.4-0.2-0.6-0.4-0.9-0.6-0.6-0.4-1.2-0.5-1.7-0.5-1.3-0.2-2.5 0.7-2.7 2.4-0.2 1.6 0.2 3 1.4 4.2 0.9 0.9 1.8 1.6 2.8 2.5l0.2-0.2 0.2 0.2c1.2-1.1 2.4-2.2 3.7-3.2 0.6-0.4 1.1-0.7 1.5-0.7 0.7 0.1 1.3 0.6 1.8 1.6s0.9 2.1 1.4 3.2c0.1-0.1 0.2-0.1 0.3-0.2 0 0.1 0.1 0.1 0.1 0.2 0.6-0.5 1.3-0.7 1.9-0.7 0.7 0.1 1.4 0.4 2 0.9 1 0.8 1.1 1.8 1 3 0-1.7-0.8-2.6-2.4-2.5h-0.7c-0.8 0.1-1.6 0.4-2.5 0.7l-0.3-1.8c-0.1-0.7-0.3-1.3-0.5-1.9-0.5-1.1-1.6-1.8-2.4-1.6-0.3 0-0.7 0-0.9 0.2-1.3 1-2.3 2.2-3.7 3.5l1.6 0.4c2.1 0.6 3.4 3 2.5 4.9-0.6 1.2-1.5 2.2-2.2 3.3-0.2 0.3-0.5 0.7-0.8 1.1 0.6 0.1 0.9 0.3 1.2 0.3h1.3c0.9 0 1.5 0.7 1.6 1.2-0.4-0.4-1-0.8-1.5-0.9h-0.4c-0.6-0.1-1.3 0.2-2 0.4-0.4-1-0.5-2 0.7-2.7 0.3-0.2 0.5-0.5 0.8-0.8 1.2-1.5 1.3-3.6 0.3-5-0.5-0.7-1-1.1-1.8-1-0.3 0-0.6 0-1 0.2-0.3 0.1-0.6 0.2-0.9 0.3-0.9-1.4-1.8-2.9-3.7-2.9h-0.2-0.2c-3.3 0.1-5.6 1.5-6.3 4.9-0.6-0.2-1.1-0.3-1.6-0.2-1.8-0.1-3 1-4.2 2.3-0.8-1.4-1.9-2-3-1.9-0.8 0-1.7 0.3-2.6 0.9-2.1 1.5-2.9 3.8-3.2 6.2-0.3 2.6 0 5.2 0.8 7.4-0.8 1-1.5 1.8-2 2.6-0.6 1.1-0.4 2.8 0.4 3.6 0.5 0.5 1.2 0.7 1.9 0.7 0.6 0 1.3-0.1 2-0.5 0.6-0.3 1.2-0.6 2.1-1v-0.1c0.1-0.1 0.2-0.1 0.3-0.2 0.3 2 0.6 3.9 0.7 5.9 0 0.5-0.3 1.1-0.7 1.4-1.6 1.6-3.2 3.2-5.1 4.5-4.3 3.1-8.3 6.5-11.7 10.5-1.7 2-3.5 3.9-5.3 5.8-2.1-2.4-4-5-6.3-7.2-4.5-4.1-9.1-8-13.8-11.9-4.1-3.4-5-6.5-2.8-10.3 1.1 0.4 2.2 0.9 3.3 1.1h0.8c1.5 0.1 2.3-0.9 2.4-2.5 0-2-1.3-3.1-2.8-4.1 0.1-0.2 0.1-0.3 0.2-0.4 1.9-3.7 1.1-9.7-1.9-12.7-1.1-1-1.9-1.5-2.8-1.4-0.9-0.1-1.7 0.4-2.7 1.5-0.2 0.2-0.4 0.5-0.6 0.8-1-1.8-2.4-3-4.3-2.8-0.3 0-0.6 0-0.9 0.1-0.6-1.1-1.3-2-1.9-3 0.4 0.5 0.9 0.9 1.3 1.4 0.1-0.1 0.1-0.2 0.2-0.2 0.1 0.1 0.1 0.2 0.2 0.2 1.4-1.9 1.9-3.9 1.3-6.1-0.2-0.7-0.7-1.3-1.4-1.2h-0.5c-2.2 0.6-3.8 1.9-5.2 3.8h-0.4c-1.7 0-3.1 0.7-4.1 2.4-0.2 0.3-0.7 0.4-1.1 0.4-1.3 0-2.4 0.4-3.1 1.5s-0.9 2.3-0.1 3.4c0.2 0.3 0.4 0.6 0.6 0.8v0.1c-1.1-1-1.7-2.2-1.6-3.7 0.2-2.3 2.2-2.8 4.3-2.8-0.6-1.8-1.7-2.8-2.9-3.7-0.6-0.5-1.2-0.7-1.7-0.6-0.8-0.1-1.5 0.4-2 1.5s-0.7 2.3-1.1 3.5h-0.1c-0.8-0.4-1.5-0.5-2.1-0.5-2.1-0.1-3.6 1.9-3 4.1 0.2 1.1 0.4 2.2 0.5 3.3h-0.9c-1.3 0-1.9 0.4-2.6 1.5-0.8 1.5-0.1 4 1.4 4.8 0.3 0.2 0.8 0.3 1.1 0.2h0.6c0.6-0.4 1.2-0.9 1.8-1.5 0.2 0.1 0.5 0.3 0.8 0.6-0.6 0.8-0.8 0.8-0.9 0.9-0.8 0.3-1.6 0.7-1.5 1.6 0.2 0.9 0.9 1.2 1.7 1.1h0.7c0.7-0.1 1.3-0.3 2-0.4 0.4-0.1 0.8-0.2 1.1-0.2 0.5 0 0.9 0.2 1.2 0.8-0.7-0.1-1.3-0.1-1.9-0.1-4.4-0.1-7 2.2-8 6.8-0.3-1.2-0.6-2.3-0.9-3.3-0.2-0.7-0.6-1-1-0.9-0.3-0.1-0.7 0-1.1 0.5-0.3 0.3-0.5 0.7-0.8 1 0.3-0.5 0.5-1.2 0.9-1.6 0.4-0.5 1-0.8 1.6-1.3-0.8-0.6-1.6-1.4-2.4-1.8-2-1.1-3.8-3-6.2-2.9-0.6 0-1.3 0.1-2 0.3 0-0.5 0-0.9-0.1-1.3-0.1-1.2-1.1-2.3-2.2-2.5-0.8-0.2-1.4-0.3-1.8-0.2-0.9-0.1-1.2 0.3-1.9 1.3-0.4 0.6-0.8 0.9-1.3 0.9-0.2 0-0.4-0.1-0.7-0.2-1.3-0.5-2.6-0.8-4-0.8-0.5 0-1 0-1.5 0.1-0.5 0-1-0.3-1.2-0.6s-0.3-0.7-0.5-1c0.5 0.9 1.2 1.3 2.1 1.3 0.4 0 0.8 0 1.2-0.1 0.5-0.1 1-0.3 1.5-0.3 0.6 0 1.1 0.3 1.7 0.8 0.3 0.3 0.8 0.5 1.2 0.4 0.5 0.1 1-0.1 1.3-0.6 0.5-0.9-0.3-1.2-0.9-1.7 0 0 0-0.1-0.1-0.4 1.3 0.1 2.7 0.2 4 0.2 1.8 0.1 2.5 0.8 2.8 2.5 0.1 0.4 0.4 1.1 0.7 1.2 0.8 0.1 1.8 0.4 2.6 0.3 0.5 0 0.9 0 1.3-0.2 1.7-0.9 3.5-0.7 5.3-1 0.9-0.2 1.4-0.5 1.4-1.4 0-1.3 0.8-2 1.8-2.5 0.6-0.3 1.3-0.2 1.8-0.2-0.1-1.6-0.3-3-0.3-4.5 0-1.7 0.9-2.7 2.5-2.8h1.1 1.5 0.4c0.2-0.7 0.3-1.5 0.6-2.3 0.5-1.4 1.5-2.2 2.7-2.2 0.7 0.1 1.4 0.4 2 1 0.9 0.9 1.7 1.9 2.5 2.8 0.4 0.4 0.6 0.7 0.9 0.5 0.3 0.1 0.5 0 0.9-0.5 0.4-0.6 1-1.2 1.4-1.8 1.2-1.5 2.4-3 2.2-5.1-0.1-1.2-0.9-2-2.1-2-0.3 0-0.6 0-1 0.1-0.9 0.3-1.7 0.8-2.6 1.3-0.1-2.7-1.1-4.9-3.7-6.2-0.7-0.4-1.5-0.6-2.2-0.5-0.6 0-1.3 0.1-1.9 0.4-1.2 0.6-1.9 1.6-1.8 3v1.5c-1.7 0.6-3.9 0.4-4.5 2.6-0.5 2 0.4 3.5 1.7 4.9l-0.1 0.1c-0.9-0.7-1.8-1.5-2.7-2.3l-0.2 0.2c0.1 0.1 0.1 0 0 0-0.1 0.1-0.4 0.3-0.6 0.6-1 1.2-2 1.9-3.5 2h-0.3-0.1-0.3c-2.3-0.2-3.9 1.5-4.1 3.9 0 0.4-0.1 0.8-0.1 1.2-0.2-0.1-0.3-0.2-0.2-0.3 0.3-1.6 0.7-3.1 1.1-4.6 0-0.1 0.3-0.3 0.5-0.3 1.2-0.2 2.4-0.5 3.6-0.4 1.3 0.1 2.2-0.5 3.1-1.3 0.8-0.7 0.9-1.5 0.2-2.2-0.9-1-2-1.9-2.9-2.8-0.2 0-0.3-0.2-0.2-0.4 0.7-3.5-0.5-6.5-2.3-9.4-0.6-0.9-1.4-1.3-2.3-1.2-0.8-0.1-1.6 0.3-2.2 1.1-0.8 1.1-1.4 2.2-1.1 3.8-0.6-0.4-1.2-0.6-1.8-0.5-0.8 0-1.6 0.3-2.3 0.6-1.8 0.9-2.2 1.7-1.5 3.5 1 2.8 2 5.8 5.1 7.2v0c-0.8 0.3-1.5 0.7-2.3 1-0.2-0.8-0.3-1.6-0.6-2.3-0.8-1.8-1.8-3.5-2.6-5.3-0.4-0.9-1-2.4-0.6-2.9 1-1.2 2.4-2.1 3.8-2.7 0.8-0.3 1.1-0.6 0.9-1.3-0.5-2.2-2.1-3.5-4.1-4.3-0.4-0.2-0.9-0.2-1.3-0.2-1.2-0.1-2.4 0.7-2.8 2-0.1 0.5-0.2 1-0.3 1.1-1.1 0.3-2 0.4-2.7 0.7-1.4 0.6-1.4 1.6-0.1 2.4l3.6 2.1c1 0.6 1.6 1.4 1.5 2.7-0.9 0.3-1.3 0.6-1.3 1-0.4-2-1.5-3.6-3.2-4.9-0.9-0.7-1.9-1.1-2.9-1-1.3-0.1-2.5 0.7-2.8 2.6 0 0.3-0.2 0.5-0.3 0.8h-0.5c-2.7 0-3.9 1.9-2.9 4.4 0.6 1.5 1.3 2.8 2.9 3.9-1.6-0.8-3.2-2.7-3.5-4-0.5-1.7-0.6-3.2 0.7-4.2 0.8-0.6 1.9-0.9 3.1-1.5-0.6-0.7-1.1-1.5-1.8-2.2-0.6-0.6-1.2-0.8-1.8-0.7-0.7-0.1-1.3 0.2-1.9 0.9-1.2 1.4-1.6 3.2-1.5 5.1 0 0.3 0 0.7-0.1 1.2-0.6-0.6-1-1.1-1.4-1.6 0.3-0.5 0.5-0.9 0.8-1.3 1-1.4 1.5-3 1.3-4.8-0.2-2.3-1.8-4.5-4.1-4.3-0.4 0-0.9 0-1.4 0.2-0.8-1.2-1.8-2.3-3.4-1.9s-0.9 1.9-1.1 3c-1-0.3-1.9-0.7-2.9-1-1.4-0.3-2.2 0.5-1.9 1.9 0.2 0.9 0.6 1.8 0.8 2.6-1.7-0.6-3.4-1.3-5.2-1.8-1.4-0.4-2.2 0-2.8 1.2-1.4-0.1-2.7-0.3-4-0.2-0.7 0.1-1.6 0.6-1.9 1.2-0.2 0.3 0.4 1.2 0.6 1.8 0.1 0.2 0.3 0.4 0.5 0.6-0.2 0.1-0.4 0.3-0.6 0.3-1.1 0.1-2.2 0-3.3 0.3-0.9 0.2-1.9 0.5-2.6 1.1-0.4 0.5-0.7 0.9-1.5 0.9-0.4 0-0.8 0.1-1.1 0.4-0.4 0.5-1.1 1.1-1.1 1.7 0 0.5 0.8 1.2 1.4 1.3 0.9 0.2 1.8 0.1 2.7 0.1 0.5 1.8 2 1.9 3.4 2.2 0.1 1.6 0.2 1.7 2.3 2.3 0 0.1-0.1 0.2-0.1 0.3-0.3 0.7-0.9 1.5-0.7 1.9 0.4 0.6 1.2 0.9 1.9 1.1 0.4 0.1 1-0.1 1.5-0.1 0.7-0.1 1.5-0.3 2.2-0.1 2.8 0.8 5.6 0.7 8.3 0s5.1-1.7 4.9-5.2c0.3 0.1 0.6 0.2 0.8 0.2-1.6 2.4 1 2.8 2 4-1.3 0.1-2.5 0.1-3.6 0.4-1.3 0.3-2.7 0.7-3.9 1.1v0.1h-0.1c-1.2 0.5-2.4 1-3.5 1.7-1.8 1.2-1.6 3.4 0.4 4.3 0.6 0.3 1.3 0.5 2 0.7v0.1h0.1c0 0.1 0 0.1-0.1 0.2 0 0.4-0.1 0.8-0.3 1.2 0 0.8 0.4 1.3 1.2 1.5 0.6 0.1 1.2 0.2 1.8 0.2 0.9 0 1.8-0.1 2.7-0.6 2.5-1.3 4.5-3.1 6.2-5.4 0.1 0.1 0.2 0.1 0.4 0.2-0.7 0.9-1.3 1.7-2.1 2.6-1.4 1.6-1.3 2.4 0.4 3.7 0.4 0.3 0.8 1 0.8 1.5-0.1 1.8 0.9 3.1 2.7 3.3 0.5 0 0.9 0.1 1.3 0.1 2.6 0.1 4.9-0.8 6.7-2.8 0.3-0.4 0.7-0.7 1-0.8 0.3 0 0.6 0.2 0.9 0.5-0.1 1.9-0.2 3.9-0.3 6-0.2 2.2 0.7 4.4 2.1 4.8 0.6 0.2 1.3 0.2 2.1 0.2 1.9 0.1 4-0.6 5.1-2.6 0.7-1.3 1.3-2.6 1.7-4 0.4-1.2 0.8-1.8 1.4-1.9 0.3 0 0.5 0.1 0.9 0.3-0.8 1.2-2 2.3-2.5 3.6-0.7 1.7-1.3 3.3-3 4.3-0.7 0.5-0.8 1.3 0 1.8 1 0.6 2.1 1.1 3.2 1.2h0.7c1.5 0 1.6-0.5 0.8-2.1-0.3-0.6-0.5-1.2-0.7-1.8l0.1 0.1c0.7 1.8 2 2.5 3.9 2.5h0.2 0.2 2.7 2.6c1.3 2.9 1.5 3.1 3.4 3.7 0.5 0.2 0.9 0.2 1.3 0.2 0.8 0.1 1.2-0.3 1.6-1.3 0-0.1 0.1-0.2 0.1-0.3 0.9 1.3 1.9 1.6 3 1.6 1.3 0.1 2.6-0.5 3.8-0.6 0.4 1.2 0.6 2.6 1.3 3.5 0.7 1 1.4 1.7 1.5 3.1 0.2 2.4 2.2 3.3 4.4 3.7 0.9 2.5 1.4 3 3.4 3h0.2 0.2c3.6 0.1 7.7-4.4 7.7-7.2 0-0.4 0.3-1.1 0.6-1.1 3.4-0.7 6.7-0.5 9.6 1.5 2.3 1.6 4.4 3.5 6.5 5.4 3.9 3.5 7.7 7.1 11.5 10.7 1.6 1.5 3 3.2 4.7 5-0.6 0.5-1 0.7-1.2 1-0.9 1.3-1.9 1.2-3.4 0.7-4-1.2-8.1-2.3-12.3-3.3-1.7-0.4-2.9-1-3.9-2.4-0.9-1.3-2.1-2.6-3.3-3.6-4.5-3.6-9.5-5.7-15.3-4.6-0.7 0.1-1.4 0.6-1.8 1.1-0.2 0.2 0.4 1.2 0.9 1.6 2.6 2.4 5.6 4 8.8 5.3 1.1 0.5 2.3 0.9 3.2 1.2-3.8 0.6-7.7 1.1-11.6 1.9-4 0.8-7.7 2.2-10.7 5-0.8 0.7-1.5 1.6-2.3 2.5 4.4 1.7 8.5 1.3 12.5 0.3 4-1.1 7.9-2.4 11.9-3.7-3.4 3.1-5.4 7-7.5 10.8-0.7 1.3-1.1 2.9-1.6 4.4-0.2 0.7 0 1.1 0.8 0.8 3.8-1.4 7.1-3.6 9.6-6.9 0.8-1 1.4-2.1 2.1-3.2 0.6-1 1.1-2.1 1.7-3.3v0.4c-0.9 5-1.5 10 0.5 14.9 0.1 0.3-0.2 0.7-0.4 1-0.8 1.2-2.2 2.3-2.5 3.6-0.3 1.5 0.3 3.2 0.5 4.8h0.5c0.2-0.4 0.5-0.7 0.7-1.1 1.5-3.2 3.5-6.1 6-8.7 5.2-5.4 10.9-9.9 18.2-12.2 2.2-0.7 4.1-0.6 6 0.4 0.5 0.3 1 0.6 1.6 0.8 3.7 1.5 6.9 3.6 9.9 6.3 2 1.8 3.6 3.8 4.3 6.4 0.3 1.2 0.9 2.3 1.4 3.4h0.4c0.3-0.6 0.6-1.1 0.9-1.7 0.9 1.5 1.9 3.1 2.9 4.8 0.1-0.1 0.2-0.2 0.2-0.3 1.3-2.9 1.6-5.6-1.4-7.7-0.3-0.2-0.5-0.7-0.5-1 0.1-1.3 0.5-2.6 0.6-3.8 0.1-1.6 0.1-3.3 0-4.9-0.1-1.3-0.5-2.5-0.8-3.8 0.1 0.1 0.2 0.1 0.2 0.1l0.6 1.2c2.3 4.5 5.4 8.2 9.8 10.9 0.7 0.5 1.6 0.8 2.4 1.1 1.2 0.4 1.7 0 1.3-1.2-1.2-3.7-2.9-7.1-5.2-10.3-1.2-1.6-2.3-3.2-3.3-4.5 3.7 1.2 7.5 2.5 11.4 3.6 4 1.1 8 0.4 12-0.3-6.8-7.1-15.5-8.5-24.8-8.9 0.4-0.3 0.9-0.4 1.3-0.5 4.1-1.5 8.2-3.1 11.2-6.4 0.4-0.4 0.5-1.1 0.8-1.6-0.5-0.2-0.9-0.4-1.4-0.6-0.2-0.1-0.5-0.2-0.7-0.2-4.1-1.2-7.8-0.2-11.3 2-2.8 1.9-5.4 4.1-7.4 6.8-0.4 0.5-1.1 0.9-1.7 1-3.6 0.3-7 1.4-10.3 2.6-3.4 1.2-3.4 1.2-5.8-1.5 0-0.1-0.1-0.1-0.1-0.3 4.5-5.4 9.7-10.1 15-14.8 2.3-2 4.4-4.1 7.2-5.5 2.4-1.2 4.9-2 7.6-1.2l0.6 0.3c0 0.1-0.1 0.2-0.1 0.3 0.1 0.1 0.2 0.2 0.2 0.3 0.6 3.3 2.5 5.6 5.6 6.9 0.8 0.3 1.6 0.5 2.2 0.5 1.8 0.1 2.9-0.9 3.5-3 2.6-0.2 4.3-1.3 4.4-2.9 0.1-1 0-2.1-1-2.7-0.8-0.5-1.9-0.7-2.7-1 0.8-0.6 1.8-1.3 2.6-2 1.8-1.7 0.9-4.3-1.8-5.1-0.9-0.3-1.9-0.4-2.8-0.6-0.3-1.1 0.4-1.3 1-1.5 0.2 0.2 0.5 0.6 0.8 0.8 0.3 0.3 0.6 0.6 0.9 0.8 1.6 0.8 2.7 1.9 2.9 3.7 0.1 1.4-1 2.2-2 3-0.2 0.2-0.4 0.3-0.7 0.6 0.7 0.3 1.4 0.5 1.9 0.9 0.4 0.3 0.8 0.4 1.2 0.3 0.6 0.1 1.1-0.2 1.4-0.9 0.6-1 0.9-2.2 1.3-3.1h2.2c0.8 0 1.5 0 2.3-0.1 0.9-0.1 1.8-0.2 2.1-1.3 1.1 1.3 1.5 1.6 2.6 1.6 0.4 0 0.8 0 1.5-0.1 0.2 0.4 0.4 0.8 0.7 1.1 0.6 0.6 2 0.8 3.4 0.8 1.5 0 3.1-0.3 3.7-0.9 0.2-0.2 0.4-0.6 0.3-0.9-0.7-1.8-2.3-2.5-3.9-3.1h-0.3-0.1c-0.4-0.2-1.3 0.8-2 1.3 0.1-0.7 0.3-1.5 0.4-2.2 0.7 0.1 1.3 0.3 2 0.3 0.9 0.1 1.9 0.2 2.8 0.1 1.7 0 3.4-0.2 4.6-1.4-0.1 0.3-0.3 0.6-0.4 0.8-0.5 0.9-0.3 1.3 0.7 1.3h0.4c0.9 0 1.8 0 2.6-0.3 0.6-0.2 1.4-0.5 1.7-1 0.2-0.3-0.4-1.2-0.8-1.7-0.6-0.8-1.6-1.4-1.9-2.3-0.8-2-1.4-4-3.6-5.4 0.2 0 0.4-0.1 0.6-0.1 1 1.2 2.5 2.4 2.9 3.8 0.7 2.6 2.2 3.9 4.7 4.4 0.5 0.1 1 0.1 1.4 0.1 2.6 0.2 4-1.5 3.7-4.5-0.2-2.2 0-4.5 0-6.8 0.3 0 0.7-0.2 1.2-0.3 0.3 0 0.5 0.2 0.7 0.5 1.2 2 3.3 2.5 5.3 2.9 0.8 0.2 1.6 0.3 2.2 0.2 2.1 0 3.1-1.4 3.3-4.1 0-0.4 0.4-0.8 0.7-1.1 1.2-1.1 1.3-2.3 0.2-3.5-0.7-0.7-1.4-1.3-2.2-2.1l0.9-0.6c2 2.7 4.2 4.9 7.6 5.7 0.5 0.1 1 0.1 1.5 0.1s1 0 1.5-0.1c1.1-0.2 1.4-1.1 1-2.1-0.1-0.2-0.2-0.5-0.3-0.7 0.9-0.3 1.9-0.4 2.6-0.8 0.8-0.5 1.8-1.3 1.8-2 0-0.8-0.8-1.7-1.4-2.4-0.2-0.3-0.8-0.4-1.2-0.5-1.4-0.4-2.7-0.8-4.1-1.3 0.4-0.2 0.9-0.4 1.3-0.5h0.1c0.6 0.1 1.1 0.3 1.6 0.5 0 0 0-0.1 0.1-0.1 0.7 0.2 1.4 0.5 2.2 0.6 2.2 0.3 4.4 0.8 6.3-0.9 0.1-0.1 0.5 0.1 0.7 0.1 1.2 0 2.4 0.1 3.5-0.1 1.2-0.2 1.5-1.3 0.8-2.2-0.2-0.3-0.5-0.5-0.7-0.8 1-0.5 2.2-0.8 1.1-2.3 0.4 0 0.6-0.1 0.9 0 1.4 0.1 2.3-0.8 3.4-1.5 1-0.6 2.6-0.4 3.7-0.9 0.9-0.6 0.8-2-0.4-2.7zm-3.3-0.3c-1.1 0.4-1.9 0.8-2.8 1.1-0.1 0.1-0.4-0.1-0.5-0.2-1-0.6-1.9-1.2-2.9-1.8 0.6-1.1 4.3-0.9 6.2 0.9zm-21 10.2c-0.5 0.2-1 0.3-1.5 0.3-1.7-0.1-3.1-0.9-4.6-0.8h-0.1c0.7-0.5 1.6-0.9 2.1-1.6 0.7-1-0.3-1.5-1-2.2 0.8-0.2 1.4-0.3 2.1-0.5-0.9 2.7 1.1 3.6 3 4.8zm-22.4 1.6c0-0.2 0.1-0.4 0.1-0.5 0.7 0.2 1.4 0.3 2.1 0.5 0 0.1-0.1 0.3-0.1 0.4-0.7-0.2-1.4-0.3-2.1-0.4zm7 6.8c0.4 0.6 0.2 1.1-0.3 1.1h-0.2c-1.2-0.2-2.3-0.6-3.5-0.9v-0.4c0.9-0.2 1.9-0.5 2.8-0.6 0.5 0.1 1 0.5 1.2 0.8zm9.1-8.3c-0.3 0.1-0.5 0.2-0.6 0.3-3.1-0.9-6.4-1.2-9.3-2.9-0.3-0.1-0.4-0.4-0.6-0.6 0.3-0.2 0.5-0.4 0.8-0.5 1.1-0.2 2.3-0.2 3.5-0.4 3.9-0.8 7.8-1.8 11.8-2.5 0.6-0.1 1.1-0.1 1.7-0.1 0.7 0 1.3 0.1 1.7 0.1-5.3 1.2-10.9 2.4-16.6 3.7 0 0.1-0.1 0.3-0.1 0.4 2.4 0.8 4.9 1.6 7.7 2.5zm1.7-9.2c0.3 0.4 0.6 0.8 0.7 1.2 0.2 0.8 0.1 1.5-1 1.6-0.6 0.1-1.1 0.2-1.7 0.4 0.1-1.5-0.3-1.8-2.8-2.5 0.2-0.3 0.4-0.5 0.7-0.7 0.7 0.5 1.4 0.7 2.1 0.7 0.7-0.1 1.3-0.2 2-0.7zm1.2-12.2c0.8 1.2 0.3 2.5-1.2 3.5-0.1-0.5-0.3-0.9-0.5-1.4-0.5-1-0.1-2.2 1-2.6 0.2 0.2 0.5 0.3 0.7 0.5zm-2.7 2.9c-0.6 0.3-1.3 0.7-1.9 0.8h-0.1c-0.4 0-0.7-0.1-0.8-0.3-0.3-0.6-0.4-1.4 0.5-1.8 0.3-0.1 0.5-0.2 0.7-0.2 0.6 0.1 1.1 0.6 1.6 1.5zm-2.9 8.5c-0.4 0.5-0.9 1-1.3 1.5-1.2 1.4-2.4 2.8-3.6 4.2l-0.4-0.4c1.7-1.9 3.3-3.7 5-5.6l0.3 0.3zm-10.6 7.8c-0.9 0.7-1.9 1.5-2.9 2.3l-1.1-1.1c1.3-0.5 2.6-0.9 3.8-1.4l0.2 0.2zm-3.5-4.7c0.3 0.1 0.6 0.4 1 1-0.7 0.1-1.3 0.1-2.1 0.2 0.4-0.7 0.8-1.1 1.1-1.2zm0.2-2.7c0.1 0.3-0.1 0.9-0.4 1.1-0.5 0.4-1.1 0.8-1.7 1.2-0.5-1.2 0.2-2.6 1.4-2.8 0.2 0.2 0.6 0.4 0.7 0.5zm-6.3 16.6c0.6-0.8 1.2-1.2 1.8-1.2 0.3 0 0.5 0.1 0.8 0.2-0.6 0.8-1.3 1-2.1 1h-0.5zm3.3-9.5c0.9 0.1 1.9 0.3 2.8 0.4 0 0.1 0.1 0.2 0.1 0.3-0.9 0.2-1.9 0.4-2.9 0.6v-1.3zm-1.9 5.2c0.1 0.8-1.1 2.4-1.9 2.7-0.4-0.1-0.9-0.6-0.9-1-0.1-0.8 1.1-2 2-2.1 0.4 0 0.6 0.3 0.8 0.4zm7.7 8.2c0-0.2 0.1-0.3 0.1-0.5 2.8 0.5 5.7 1.1 8.5 1.6 0 0.1 0 0.2-0.1 0.4-0.5 0.1-1 0.2-1.5 0.2-2.4-0.1-4.6-1.4-7-1.7zm8.6-7.4c-0.4 0.2-0.7 0.4-0.9 0.4-0.2-0.1-0.5-0.4-0.8-0.9 0.9-0.2 1.9-0.4 2.7-0.6 0.7-0.2 1.5-0.6 2.3-0.9-0.1 4 3.4 4.5 5.8 6.1-1.8-0.3-3.4-0.9-4.8-2.2-0.4-0.3-0.6-0.8-0.9-1.2-0.7-1-1-1.4-1.7-1.3-0.4 0-0.9 0.2-1.7 0.6zm10 6.2c0.4-0.5 0.8-1 1.3-1.4 0.1-0.1 0.2-0.1 0.3-0.1 0 0 0.1 0 0.1 0.1 0.4 0.4 0.7 1 1.1 1.5-0.5 0.3-0.9 0.5-1.3 0.5-0.6-0.1-1.1-0.3-1.5-0.6zm6-17.2v0c-0.9 0.1-1.9 0.3-2.9 0.5 1.5-4.5 8.2-7.6 12.9-4.9-3.1 2.2-6.4 3.6-10 4.4zm8.7-2.5c1.5-0.6 3.4 0 3.8 1.5-1.8 1-3.5 2.3-5.9 1.6-1.5-0.4-3.1-0.3-4.3-0.4 2-0.8 4.2-1.8 6.4-2.7zm0.6-6.3c0.4 0.1 0.8 0.9 0.7 1.3-0.1 0.8-0.3 1.7-1.5 1.6-1.6-0.1-3.2-0.2-4.8-0.4 0.9-1.5 3.9-3 5.6-2.5zm-6.5-1c0.9-0.1 1.2 0.5 1 1.2-0.6 1.5-1 3-2.7 3.8-0.7 0.4-1.4 0.8-2.1 1.3 0-0.1-0.1-0.2-0.1-0.2-0.5 0.4-1 0.8-1.5 1.1-0.2-1.5-0.6-1.7-2.9-2 2.1-2.8 4.8-4.6 8.3-5.2zm-5.4-1.3c0.1 1.7-0.7 2.9-1.7 4-0.1 0.1-0.1 0.2-0.2 0.2l-0.2-0.2c-1 1.2-2.1 2.2-3.2 3.3 0.8-2.3 2-4.4 1.3-7.2 0.8-0.4 1.6-1 2.5-1.3 0.9-0.2 1.4 0.2 1.5 1.2zm-11.4 8.1v0c-0.1 0.2-0.3 0.4-0.4 0.5 0.1-0.1 0.2-0.3 0.4-0.5zm-39.1 10.7c-0.8 1.5-1.6 3-2.4 4.6 0.2-1.8 0.9-3.4 2.4-4.6zm6 9.4c-0.8 0.5-1.7 0.8-2.6 1.3-0.3-1.1 0.3-1.6 0.9-1.9 0.5-0.3 1.1-0.3 1.7-0.3 0 0.2 0.2 0.8 0 0.9zm-3.1-3.9c0.1 0 0.1-0.1 0.2-0.1h0.5c0 0.4 0.1 0.8-0.1 1-0.6 0.6-1.3 1.1-2 1.7-0.1-1.3 0.5-2.1 1.4-2.6zm8.8-15c-0.4 0.6-0.8 1.3-1.3 1.9h-0.1c-0.1-0.4-0.4-0.9-0.3-1.1 0.3-0.4 0.8-0.8 1.3-1.1 0.2 0.1 0.4 0.3 0.4 0.3zm3.8 5.2c-0.4 1.6-0.8 3.1-1.1 4.7-0.1 0.3 0 0.6 0 1 0.5 0 1 0.1 1.5 0.1-0.2 0.6-0.4 1.1-0.7 1.7-2.3-0.1-4.1 0.8-5.3 2.8-0.5-0.3-1-0.7-1.6-1.1 0.7-0.3 1.1-0.6 1.6-0.7 2.5-0.6 3.6-2.3 4.2-4.7 0.3-1.1 0.6-2.3 1-3.4 0.1 0 0.2-0.2 0.4-0.4zm-7.1 3.1c0.3-0.1 0.5-0.1 0.7-0.1 0.3 1.6 0.7 3.1 1 4.7-0.2 0.1-0.4 0.2-0.7 0.3-0.3-1.7-0.6-3.2-1-4.9zm-0.4-9.9c0 0.3 0.1 0.7 0 1-0.2 0.4-0.4 0.8-0.7 1.1-0.1-0.1-0.2-0.1-0.3-0.2 0-0.5-0.1-1 0.1-1.4 0.1-0.3 0.4-0.4 0.7-0.6 0.1 0 0.1 0.1 0.2 0.1zm7.4 8.9h-0.1c0.1-0.4 0.3-0.8 0.4-1.2l-0.3 1.2zm-0.6-1.6c0 0.1-0.1 0.2-0.1 0.3 0-0.1 0-0.1 0.1-0.3zm-27.5-2.9c0.2-0.1 0.5-0.1 0.8-0.1 0.4 0 0.8 0.1 1.1 0.1-0.3 1.7-1.4 1.7-2.6 1.9 0.3-0.9 0.3-1.8 0.7-1.9zm9.4 14.2v0.2c0.3-0.2 0.6-0.3 0.8-0.3 0.5 0.1 0.8 0.6 1.1 1.2 0.4 0.8 0.9 1.6 1.2 2.5 0.3 0.8 0.8 1.1 1.6 1.2 1.2 0.2 2.4 0.6 3.6 0.9 0.2 0.1 0.3 0.2 0.5 0.2h0.4c0.6 0 1.2-0.1 1.9-0.1h0.4 0.7c1.6 0 2.4-0.6 2.9-2.2 0.4-1.3 0.6-1.7 1.3-1.7 0.3 0 0.6 0.1 1 0.1h0.9c0.7 0 1.5-0.1 2.3-0.2 0.3 0 0.6 0 0.9 0.1-0.4 0.6-1.1 1.2-1 1.3 0.3 0.5 0.8 0.8 1.3 0.7 0.3 0.1 0.7 0 1-0.3 0.4-0.3 0.8-0.4 1.2-0.4 0.3 0 0.7 0.1 1.1 0.2 0.7 0.2 1.4 0.2 1.9 0.2 1.9 0 3-1.2 3-3.5 0-1.2-0.3-2.4-0.5-3.7 0.4 0.1 0.8 0.2 1.2 0.2-0.3 1.9-0.5 3.8-0.9 5.6-0.1 0.7-0.8 1.3-1.1 1.9h-2.1-2.7c-0.5 0-1.1 0.4-1.6 0.7-0.4 0.2-0.7 0.3-0.9 0.4-0.4-0.1-0.7-0.4-1-1-0.4-0.8-0.8-1.4-1.9-1.6h-0.8c-2 0-2.9 1.2-3.1 3.4 0 0.2 0 0.5-0.1 0.7-0.7-0.4-1.4-0.6-2-0.5-1.2-0.1-2.3 0.5-3.3 1.2-1.7 1.2-3.5 2.4-5.4 3.7 1.3 0.5 2.4 1.3 2.8 2.9-0.4-0.5-0.7-1-1.1-1.4-0.3-0.3-0.6-0.4-0.9-0.3-0.4-0.1-0.8 0.1-1.2 0.5-0.4-1.5-1-2.1-2.4-2.1-0.4 0-1 0-1.6 0.1 1.2 1.2 2.2 2.3 3.5 3.7-0.1 0.3-0.2 0.8-0.3 1.4-0.6-2.6-3.2-5-6.1-5.3-1.4-0.1-2.9-0.5-4.3-0.7v-0.5h1.1 1c0.9 0.1 1.7 0.4 2.6 0.4h0.1 0.2c0.6 0 1.5-0.3 1.6-0.8 0.2-0.4-0.3-1.2-0.7-1.7-0.2-0.3-0.6-0.5-1-0.8 0.3-0.2 0.5-0.3 0.8-0.4 0.4 1.4 1.2 2.1 2.6 2h0.8c0.2-0.1 0.3-0.1 0.5-0.2 0.3-0.4 0.5-0.7 0.8-1.1 1-1.5 0.8-3 0-4.4-0.5-0.8-1.2-1.7-2.3-1.6-0.3 0-0.6 0-1 0.2 0.1-0.6 0.1-1.1 0.2-1.5 0.1-0.3 0.1-0.7 0.2-1v1.9c0.1-0.3 0.2-0.4 0.3-0.4zm23.8 11c-0.8-1-1.5-1.9-2.3-3 2.1 0.1 2.9 1.2 2.3 3zm-0.6-3.8c0.6-0.4 1.1-0.6 1.6-0.6 0.8 0.1 1.4 0.5 1.9 1.3-0.3 0.2-0.6 0.3-0.9 0.3-0.9-0.1-1.7-0.6-2.6-1zm-6.5 3.3l1 1-1-1c-0.1 0-0.1 0 0 0zm-5.8 4.3c0.6 0.1 1.1 0.4 1.6 0.9-0.4 0.2-0.8 0.3-1.1 0.4-0.7-0.1-1.3-0.4-2-0.6 0.5-0.5 1-0.7 1.5-0.7zm-3.1-0.6c0.4-0.8 0.6-1.6 1.1-2.2 0.2-0.2 0.6-0.3 1-0.4 0.1 0.5 0.4 1.1 0.3 1.4-0.3 0.8-0.9 1.1-1.7 1.1-0.2 0.2-0.5 0.1-0.7 0.1zm-14.6-14.5c0.1 0.5-0.2 1.2-0.5 1.6-0.2 0.3-0.6 0.4-1 0.6-0.4-0.2-0.8-0.3-1-0.5-0.1-0.2 0.1-0.8 0.3-1.1 0.3-0.5 0.8-1 1.3-1.2 0.4 0.1 0.9 0.4 0.9 0.6zm-0.2 14.7c0.2 0 0.5 0.1 0.7 0.1 0.3 0.1 0.8 0.5 0.8 0.8s-0.4 0.7-0.7 0.9c-0.3 0.1-0.5 0.2-0.8 0.2-0.6-0.1-1.3-0.5-1.9-1.2 0.6-0.5 1.2-0.7 1.9-0.8zm3.9-8.9c-1.7 0.9-3.3 2-4.9 3-0.4 0.2-0.7 0.4-1.2 0.6 1.2-3.7 4.4-4.2 7.1-5.5 0.1 1-0.2 1.5-1 1.9zm-5.3 6.8c0.1 0.9-0.6 1.7-1.9 2.1 0.7-0.8 1.3-1.5 1.9-2.1zm-13.4 6.9c0.5 0 1.1 0.2 1.7 0.5-0.7 1.3-1.2 2.4-1.8 3.4-1.7-0.2-3.5-0.4-5.5-0.7 2.1-0.8 3.5-3.1 5.6-3.2zm0.9 6.8h3.8c0 0.1 0 0.2 0.1 0.4h-3.9v-0.4zm6.8-17.6s-0.1 0-0.1-0.1c0.4-0.8 0.9-1.5 1.3-2.3 0 1-0.3 1.7-1.2 2.4zm-2.9-8.2c0.6-0.1 1.1-0.1 1.5-0.1 1.1 0 1.8 0.3 1.8 1.2-1.1-0.4-2.3-0.8-3.3-1.1zm-2.3 11.2c-0.1-0.2-0.4-0.4-0.4-0.7 0-1 0.5-2 1.1-2.2 0.6 0.3 1.3 0.8 1.6 1.4 0.1 0.5-1.1 1.4-2.3 1.5zm-0.6 5.6c0.2-0.1 0.5-0.2 0.7-0.3 0.8 0.2 1.6 0.3 2.4 0.3 1.1 0 2.1-0.1 3.2-0.3-0.1 0.2-0.2 0.4-0.3 0.4-1.3 0.1-2.6 0.7-3.9 0.8-0.7-0.1-1.4-0.3-2.1-0.9zm5.3 5.6c0.3 0 0.5 0.1 0.8 0.2 0.6 0.2 0.9 0.5 0.4 1.2-0.4 0.5-1.1 0.8-1.8 0.9-0.7-0.1-1.4-0.4-1.9-1 0.8-0.8 1.6-1.2 2.5-1.3zm-4.3-24.5c0.2 0.1 0.4 0.7 0.3 0.9-0.2 0.6-0.6 0.9-1 1-0.3 0-0.7-0.2-1.2-0.4 0.3-1 0.8-1.5 1.4-1.6 0.2 0 0.3 0 0.5 0.1zm-1.7 6c-1.5-0.9-2-1.9-1.6-3.3 0.5 1.1 1.1 2.1 1.6 3.3zm4.9 23.5c0.1 0 0.1-0.1 0.2-0.1 0.5 0.7 1 1.5 1.5 2.2l-0.1 0.1c-0.6-0.7-1.1-1.4-1.6-2.2zm-11.4-24.3c0.1 0.7-0.7 1.4-1.8 1.5l-0.6-0.6c0.5-0.6 1.1-1.2 1.7-1.7 0.3 0.3 0.6 0.5 0.7 0.8zm-3.3 5.3c0.1-0.7 0.3-1.3 0.4-2 0.3 0.6 0.2 1.3-0.4 2zm-0.9-3.2c0 1.2-0.8 2.2-1.8 2.3-0.7-0.1-0.9-0.5-0.9-1.6s0.6-2.2 1.4-2.4c0.8 0.1 1.3 0.7 1.3 1.7zm0.9 7.2c0-0.2 0.5-0.5 0.8-0.7 0.8-0.4 1.6-0.7 2.4-1.1 0.8 0.3 1.7 0.7 2.6 1.1 0.1 0.6 0.2 1.3 0.3 2 0 0.2 0 0.5-0.1 0.7 0.1 0.1 0.1 0.2 0.2 0.2-1.2 1.1-2.4 2.3-3.8 3.3-1.1 0.9-2.3 0.4-2.5-1-0.1-1.4 0-2.9 0.1-4.5zm-60.4 5.2v0c2.2 0.4 3.8 2.5 5.6 3.7-1.7 0.2-3.5 0.3-5.1 0.5h-0.2c-0.9-1.3-1.9-2.6-2.9-4.1 0.5-0.2 1-0.3 1.4-0.3s0.8 0.1 1.2 0.2zm-1.9 6.8c-0.5 0.5-0.9 0.7-1.4 0.7s-1-0.2-1.6-0.3c0-0.1 0-0.3-0.1-0.4h3.1zm0.5-22.5c0.4-0.7 0.8-1.5 1.2-2.2 0 1-0.3 1.6-1.2 2.2zm-0.4 8.1c0.7 0.5 1.4 1.1 2.1 1.6l-0.1 0.1c-0.7-0.5-1.5-1-2.2-1.5 0-0.1 0.1-0.2 0.2-0.2zm0.3-12.2c-0.8 0.2-1.4 0.4-2.2 0.6 0-0.8-0.1-1.8 0.1-1.9 0.1 0 0.2-0.1 0.3-0.1 0.7 0.1 1.3 0.6 1.8 1.4zm-1.2 9.3c0.5 0.9 0.5 1.9-0.4 3.1-0.7-0.7-1.4-1.4-1.8-2.2-0.2-0.4 0.4-1.5 0.8-1.7h0.1c0.4 0.1 1 0.4 1.3 0.8zm0 7.8c0 0.1 0 0.3-0.1 0.4-1 0.5-2 0.7-3.1 0.8-0.7 0-1.4-0.2-2-0.4-0.3-0.1-0.4-0.5-0.5-0.7 2-0.1 3.8-0.1 5.7-0.1zm-6.7-10.9c0.5 0.9 1 1.7 1.4 2.5l-0.1 0.1c-0.8-0.7-1.1-1.5-1.3-2.6zm-0.6-2c-0.2-0.2-0.4-0.3-0.7-0.5 0.3-0.4 0.7-0.8 1-1.2 0.8 0.6-0.2 1.1-0.3 1.7zm0.2 12.6c0.1 0.1 0 0.5 0 0.8-0.7 0.2-1.4 0.4-2 0.6 0-0.5 0-1 0.2-1.5 0.1-0.2 0.4-0.5 0.7-0.6 0.4 0.1 0.8 0.4 1.1 0.7zm-5.5-0.2c-0.3 0-0.5-0.2-0.8-0.3-0.2-0.1-0.4-0.5-0.4-0.7s0.3-0.5 0.6-0.5c0.7-0.1 1.4-0.1 2.2-0.1-0.4 1-1 1.5-1.6 1.6zm0.9 2.5c0.5-0.3 1.1-0.4 1.8-0.5-2.1 1.1-2.4 2-1.7 4.2-0.8-0.4-0.8-1.2-0.9-1.9 0-0.6 0.3-1.5 0.8-1.8zm8.4-18.1c-0.7 0.2-1.2 0.7-1.9 0.8-0.2 0-0.5-0.1-0.7-0.3 0.8-0.3 1.7-0.5 2.5-0.8 0 0.1 0 0.2 0.1 0.3zm-6.2 2.2c-0.5 0.6-1.1 1.2-1.7 1.9 0-0.5-0.1-1 0.1-1.2 0.4-0.4 1-0.6 1.6-0.8v0.1zm-1.9-0.9c-1.1 0-1.5-0.5-1.8-1.5-0.1-0.4 0-1.2 0.3-1.4 0.2-0.1 0.5-0.2 0.8-0.3 0.3 0 0.6 0.2 0.8 0.6 0.4 0.8 0.7 1.6 1.2 2.5-0.5 0.1-0.9 0.1-1.3 0.1zm0.8 6.7c-0.2 0.3-0.3 0.5-0.5 0.5s-0.3-0.1-0.5-0.3c-1.6-1.1-3.3-2.2-4.9-3.3-0.5-0.4-0.7-1.1-1-1.6 0.1 0 0.1-0.1 0.2-0.1 4.4 2.1 6 2.8 6.7 4.8zm-3.5 8.8c-0.2 0-0.4 0.1-0.6 0.1-1.5 0-3-0.8-3.7-1.9 1.4 0.5 2.8 1.1 4.3 1.8zm6.2 8.3c1 0.2 2 0.3 3.1 0.5-0.6 0.2-1.1 0.3-1.5 0.3-0.8 0-1.2-0.3-1.6-0.8zm2.6-1c-0.4-0.3-0.7-0.8-1.1-1.2 0.5-0.3 1.1-0.7 1.6-0.8 0.4 0.1 0.9 0.3 1.3 0.5 0.4 0.3 0.9 0.9 0.8 1.2-0.1 0.4-0.7 0.7-1.1 0.9-0.5-0.2-1-0.3-1.5-0.6zm20-18.8c-0.1 0.9-0.3 1.7-1.2 1.8-1-0.1-1.2-0.9-1.2-1.5 0-1.6 0.5-2.7 1.2-2.8 0.7 0.1 1.3 1.3 1.2 2.5zm-4.6 1.7c0.3 0.8 0.5 1.7 0.8 2.5-0.4-0.8-0.7-1.6-0.8-2.5zm-0.5-3.6c-0.1 0.1-0.3 0.2-0.5 0.3-0.6-0.4-1.1-1-1.6-1.5 0.2-0.1 0.4-0.4 0.6-0.5 0.6 0.2 1.5 0.4 1.5 1.7zm-4.8 11.1c-0.6-0.8-0.4-2.3-0.5-3.4 1.3-0.2 2.2-0.4 3.2-0.5 0.3 0 0.7 0.1 1 0.3 1.1 0.6 2.1 1.4 3.2 2.1-0.1 0.7-0.3 1.6-0.4 2.4 0.1 0 0.3 0.1 0.4 0.1-0.1 0.8-0.3 1.6-0.5 2.4-0.4 1.4-0.8 1.6-1.9 0.7-1.7-1.3-3.3-2.6-4.5-4.1zm-32.9-3c0.3 0.6 0.5 1.4 0.8 2.1l-0.2 0.2c-0.6-0.3-1.2-0.5-1.7-0.8-0.3-0.2-0.6-0.8-0.5-1 0.2-0.4 0.6-0.7 1-0.9 0.2 0 0.5 0.2 0.6 0.4zm-0.6 3.1c-0.7 0.3-1.3 0.6-2 0.6-0.4 0-0.7-0.1-1.1-0.3 0.5-0.4 1.1-0.6 1.6-0.7 0.5 0.1 1 0.2 1.5 0.4zm-15.8-8.7c0.6 0.1 1.2 0.3 1.9 0.7-1.3 0.4-2.3 0.7-3.5 1.1 0.2-1.1 0.8-1.7 1.6-1.8zm1 2.1c0.4-0.2 0.9-0.5 1.3-0.7 0.1 0 0.2-0.1 0.3-0.1h0.1c0.2 0.2 0.5 0.6 0.5 0.9-0.1 0.9-1.1 1.8-2.1 1.9-0.1-0.6-0.1-1.3-0.1-2zm-41-27.4c-0.4-0.2-0.6-0.8-0.8-1.2 0.4-0.1 0.9-0.4 1.4-0.5 3.8-0.4 7 0.9 9.6 3.6l-0.2 0.2 0.4 0.4c0.3 0.3 0.5 0.7 0.8 1.1-0.1 0.1-0.1 0.2-0.2 0.3-4-0.5-7.6-1.8-11-3.9zm6.3 3.6c-1.8 0.2-3.6 0.6-5.3 0.6-1.2 0-2.5-0.4-3.7-0.9-0.9-0.4-0.9-1.1 0-1.6 1.3-0.6 2.4-1.2 4-0.2 1.4 1 3.3 1.4 5 2.1zm15.5-4.2c-0.3-1-0.6-1.9-0.9-2.9 0.9 0.7 1.2 1.7 0.9 2.9zm0.8 2.2c1.4 1.1 3 3 3.5 4.5-1.1-1.5-2.3-3-3.5-4.5zm-0.3-10.1c0.4 0.3 0.5 1.1 0.4 1.7 0 0.3-0.7 0.5-1.2 0.6h-0.3c-0.8-0.1-1.4-0.6-1.9-1.3 0.6-0.5 1.1-1.1 1.7-1.4 0.1 0 0.2 0 0.3-0.1 0.4 0.2 0.8 0.3 1 0.5zm-1.1 10.7c0.3 0 0.6 0.1 0.8 0.3-2.1 0.9-2.4 1.2-2.3 2.9-1-0.2-1.9-0.4-3-0.7 0.2-0.9 0.4-1.7 0.7-2.5 0.6 0.3 1.2 0.4 1.8 0.3 0.7 0 1.3-0.1 2-0.3zm-11.1 1.9c6.6 1.3 13.2 2.6 19.9 3.8v0.5c-3.3 1.2-6.5 2.5-10 2.9 0-0.1-0.1-0.2-0.1-0.4 2.4-0.8 4.8-1.5 7.2-2.3-5.5-2.4-11.4-2.5-17-4.3v-0.2zm19.1 14.8c0.2 0 0.5 0.1 0.9 0.2 0.7 0.2 1.3 0.5 2.1 0.8-1 1.2-2.3 0.7-3.4 1-0.3-1.4-0.2-2 0.4-2zm-17.1 2.5c-0.7-0.4-0.9-0.9-0.3-1.5 0.3-0.3 0.6-0.4 0.8-0.6 0.9 0.6 1.7 1.2 2.4 1.7-0.4 0.4-1.1 0.7-1.9 0.7-0.2-0.1-0.6-0.1-1-0.3zm9.9-7.5c-1.4 3.1-3.5 4.9-6.7 5.1 2.5-1.5 5.9-2.1 5.8-6.3 1.5 0.6 3.1 1.2 4.6 1.8-0.3 0.5-0.5 0.7-0.7 0.8-0.2-0.1-0.5-0.2-0.8-0.4-0.6-0.3-1.2-0.6-1.8-1 0 0.1-0.1 0.1-0.1 0.2-0.1-0.1-0.2-0.1-0.3-0.2zm2.1 9.5c2.4-0.5 4.9-0.9 7.3-1.4-1.8 1.1-3.8 1.9-5.5 2-0.7-0.1-1.3-0.3-1.8-0.6zm30.2-23.1c0.3 0.7 0.5 1.4 0.7 2.1-0.1 0.1-0.3 0.1-0.4 0.2-0.3-0.7-0.6-1.3-0.9-2 0-0.1 0.1-0.4 0.3-0.6l0.3 0.3zm6.1 19.1c-1.3-0.5-2.3-1.1-2.7-2.5 0.3-0.2 0.5-0.3 0.8-0.4 0.7 0.2 1.4 1.1 1.9 2.9zm-1.8 2.1c-0.4 0.2-0.7 0.2-1.1 0.2-0.7 0-1.3-0.3-1.9-0.7-0.3-0.2-0.5-0.8-0.4-1.1 0.1-0.2 0.4-0.3 0.7-0.4 1.2 0.3 2.2 0.7 2.7 2zm-23.4-17c0.4-0.2 0.8-0.3 1.1-0.4 0.5 0.1 0.8 0.3 1 0.7 0.1 0.3 0 0.8-0.3 0.9-0.1 0.1-0.2 0.1-0.2 0.1-0.6 0-1.3-0.5-1.6-1.3zm3.5 5.1c-0.6 0-1.2-0.1-1.7-0.1v-0.3c0.6-0.1 1.2-0.3 1.9-0.4-0.1 0.3-0.1 0.7-0.2 0.8zm3.8 7.9c-0.3 0.3-0.7 0.5-1 0.6-0.6-0.1-1.2-0.5-1.7-1.3 0.3-0.2 0.5-0.2 0.8-0.2 0.6 0 1.2 0.6 1.9 0.9zm-2.4-7.8c-0.3-0.1-0.3-0.4-0.1-1.2 0.3 0.3 0.5 0.6 0.9 1-0.3 0.1-0.6 0.2-0.8 0.2zm0.6 4c0.2-0.1 0.3-0.1 0.5-0.1 1.2 0.1 2.4 1 2.4 2 0 0.2-0.5 0.6-0.8 0.6-0.9 0-1.1-0.3-2.1-2.5zm10.4 3.2c-1.2-0.8-2.5-1.7-3.7-2.6-0.5-0.4-1-0.7-1.6-1.1 1.6-0.2 1.7-0.4 1.4-1.7-0.4-1.4-0.6-2.8-1-4.2h0.1c0.1 0.2 0.3 0.4 0.4 0.6 0.3 1 0.6 1.9 0.8 2.9 0.4 2.5 2 4 4.2 4.9 0.6 0.2 1.2 0.5 1.8 0.8-0.7 0.3-1.4 0.6-2 0.8-0.1-0.1-0.3-0.2-0.4-0.4zm0.3-2.4c0.3-0.8 0.6-1.6 0.8-2.4 0.2-0.6 0.3-1.1 0.6-1.7 0.3 1.5-0.4 3-0.5 4.6-0.4-0.2-0.6-0.3-0.9-0.5zm3.1-5.4c-0.3 0.1-0.6 0.2-0.9 0.3-0.5-0.1-0.9-0.4-1.1-1 0.6 0.1 1.2 0.4 2 0.7zm-2.8-6.2l-0.4 0.4c-0.6-0.4-1.3-0.8-1.9-1.2 0.2-0.2 0.4-0.4 0.7-0.8l1.6 1.6zm-10.4 6.7v0 0zm-3.3-6.3c0 0.1-0.3 0.4-0.5 0.5-0.9-0.2-1.4-1.2-1.2-2.2 0.8 0.2 1.8 1.1 1.7 1.7zm-2.2 8.3c-0.8-0.7-1.5-1.3-2.4-2.1 1.2 0.2 2.3 0.5 3.3 0.7-0.2 0.4-0.5 0.8-0.7 1.2-0.5 1.1-0.7 1.6-1.3 1.7-0.4 0-0.8-0.1-1.5-0.3 0.9-0.4 1.7-0.8 2.6-1.2zm-1.4 6.6c-0.5-1.5-0.1-2.4 1-2.8-0.3 0.7-0.8 1.6-0.8 2.5s0.4 1.8 0.8 2.6c0.1 0.2 0.2 0.4 0.3 0.5-0.5-0.9-1-1.9-1.3-2.8zm39.7-13.8c0.4 0.6 0.5 1.3 0.8 2l-0.2 0.2c-0.6-0.2-1.1-0.4-1.6-0.7-0.3-0.2-0.6-0.7-0.6-1.1 0-0.3 0.4-0.8 0.7-0.8 0.4 0 0.8 0.2 0.9 0.4zm4.4 2.1h0.1c0.1 1 0.3 2.1 0.4 3.1h-0.1c-0.1-1.1-0.3-2.1-0.4-3.1zm-36.6-3.6c0.4 0.6 1 1.1 1.5 1.5 1.5 1.2 2 2.8 2.3 4.5-2.1 0.2-2.4 0.4-2.3 1.7-1.8-0.7-1.9-0.8-1.9-1.5h0.4 0.9c1.5-0.2 2.2-1.1 1.5-2.4-0.5-0.9-1.5-1.6-2.2-2.4-0.3-0.3-0.7-0.5-0.7-0.8 0-0.4-0.1-0.9-0.1-1.3 0.2 0.2 0.3 0.4 0.6 0.7zm-25.5-12.4c0.1-0.4 0.4-0.9 0.7-1 0.4-0.1 0.7 0 1 0.2v0.3c0.4 0.3 0.6 0.8 0.9 1.2-0.4 0.8-0.7 1.4-1.1 2.1-1.5-0.9-1.8-1.3-1.5-2.8zm-4.9 2.1c-0.2-1 0.3-1.4 1.2-1.2 0.4 0.1 0.8 0.3 1.2 0.4 2 0.7 1.9 0.8 2 2.9 0 0.4 0.1 0.7 0.1 1.1-0.1 0.2-0.2 0.3-0.3 0.4 0.2 0.8 0.4 1.7 0.6 2.5 0.1 0.5 0.3 0.9 0.5 1.4-0.9-0.8-1.8-1.6-2.6-2.4-1.5-1.4-2.4-3.1-2.7-5.1zm-4.6 1.8c2.7 0.7 5.2 2 6.9 4-0.1 0.1-0.2 0.2-0.2 0.3-0.6 0.1-1.4 0.1-1.8 0.5-0.5 0.4-0.6 1.3-0.9 2.1-0.1 0-0.1 0.1-0.2 0.1-1.4-1.3-3-2.6-4.5-3.9-0.3-0.2-0.6-0.4-0.7-0.7-0.4-0.8-0.6-1.5-0.9-2.3 0.8-0.1 1.6-0.3 2.3-0.1zm-8.5 1.9c0.4-0.3 0.9-0.8 1.3-0.9 1-0.1 2-0.1 3 0 0.5 0.1 1 0.5 1.4 0.9 0.5 0.4 0.8 0.9 1.1 1.3-1.8 0-3.7 0.1-5.5-0.1-0.4 0-0.8-0.8-1.3-1.2zm0.5 3.6c-1 0.6-2 1.3-3.1 2-0.6 0.4-2.3-0.4-3.2-1.4 1.7-1.6 5.2-1.8 6.3-0.6zm-8.6 3.6c-0.3-0.1-0.8-0.5-0.7-0.8 0-0.3 0.4-0.7 0.7-0.9 1.2-0.5 2.4-0.5 3.6 0.4-0.9 1.7-2.1 1.8-3.6 1.3zm4.4 1.7c-0.5-0.2-1.1-0.9-1-1.2 0.2-0.6 0.8-1.2 1.3-1.5 0.2-0.1 0.8 0.3 1.2 0.6 0.9 0.5 1.7 1.1 2.6 1.7-1.3 0.9-2.7 1.1-4.1 0.4zm6.8 5.2c0 0.8-0.5 1.3-1.3 1.2s-1.9 0-2-1c0-0.9 0.8-1.5 1.8-1.5 0.9-0.1 1.7 0 1.5 1.3zm-4.2-2.7c-0.9-0.4-0.5-1 0.1-1.3 1.4-0.6 2.9-1.2 4.3-1.5 2-0.5 4-0.5 5.9-0.3 0.4 0.1 0.9 0.1 1.3 0.2l-1.5 0.9v0.2c-1.2 0.7-2.5 1.4-3.8 2-2.1 0.8-4.2 0.8-6.3-0.2zm6.7 3.6c-1.3-0.4-1.5-1.1-0.6-2.1 1.5-1.7 3.6-2.2 5.6-2.9-0.5 0.9-0.6 1.8 0.1 2.5 0.7 0.8 1.5 1 2.4 1 0.9 0.1 1.9-0.3 2.8-0.6l0.2 0.2c-0.3 0.2-0.5 0.3-0.8 0.5-0.9 0.5-1.8 1-2.7 1.3 0 0 0 0.1 0.1 0.1-2.2 0.7-4.6 0.7-7.1 0zm3.9 5c-0.1-1.6 1.4-1.9 2.5-2.4 1.8-0.7 3.6-1.3 5.4-2-1.2 1.1-2.7 1.8-3.9 2.8 0 0.2-0.1 0.3-0.1 0.5-0.4 0.5-0.8 1.1-0.9 1.8-0.1 0.2-0.3 0.3-0.4 0.5 0.1 0.3 0.1 0.6 0.1 0.9h-0.1c-1.1-0.4-2.5-0.7-2.6-2.1zm99.4 37.7c-2.2-2-4.3-4.1-6.5-6-3.4-2.9-7.1-4.3-11.4-3.8-0.7 0.1-1.4 0.2-2.1 0.4-0.1-1.1 0.5-1.5 1.4-1.6 1.4-0.2 2.8-0.3 4.2-0.5 0.4 0 0.9-0.1 1.5-0.2-0.4-0.4-0.5-0.7-0.7-0.8-1.3-1-2.6-1.9-3.8-2.9-1.2-0.9-2.4-1.4-3.8-1.4-0.7 0-1.4 0.1-2.1 0.4h-0.1c-0.3-0.1-0.7-0.2-1-0.3v-0.3c0.9-0.3 1.9-0.5 2.9-0.8-0.3-0.5-0.4-0.8-0.8-1.4 0.8 0.2 1.5 0.3 2.1 0.4v-0.1c0.1 0 0.2 0 0.3 0.1l0.6-0.9c0.3 0.2 0.7 0.5 0.9 0.8l0.3 0.3c0.1-0.1 0.2-0.1 0.3-0.1 1.4 1.5 2.8 3.1 5 3.7 0.9 0.3 1.4 0 1.6-0.9 0.3-1 0.4-2.1 0.6-3.1 0.1-0.8 0.2-1.6 0.2-2.4 1.1 1 1.3 2 1.2 3.1l0.3 0.3c-0.2 0.9-0.6 1.9-0.8 2.8-0.4 1.7-0.3 3.3 0.9 4.5 2 2 4 4 6.2 5.8 6 4.7 11.5 9.9 16.6 15.6 0.2 0.2 0.3 0.4 0.5 0.7-0.4 0.5-0.9 1.1-1.1 1.3-4.4-4.2-8.9-8.4-13.4-12.7zm-9.4 38.6c-0.9 1.1-1.5 2.5-2.2 3.8-1.5-2.8 0.2-4.7 2.1-6.6 0.6 0.9 1.1 1.6 0.1 2.8zm3.1-3.7c0.6-1.7 1-3.7 2-5.3 0.9-1.4 2.5-2.5 3.9-3.6 2.9-2.4 5.8-4.7 8.8-7.1 1.9 0.7 4.1 1.4 6.6 2.3-8.9 2.1-15.6 7.3-21.3 13.7zm2.5-13.4c-0.3-2.2-1-4.3-1.6-6.8 4.7 0.6 8.7 2.6 13.5 3.9-4.1 3.4-7.9 6.6-11.8 9.7-0.1-2.2 0.1-4.5-0.1-6.8zm44.2 19.4c-0.8-1.1-1.7-2.2-2.3-3.4-0.3-0.7 0-1.7 0.1-2.9 2.1 1.9 3.7 3.6 2.2 6.3zm-7.7-26.9c1.9-0.4 3.3-1.3 4.5-2.8 2.9-3.5 6.3-6.4 11-7.6 2.6-0.6 5-0.1 7.9 0.5-6.3 1.8-12.4 3.3-16.9 7.9 4.7-3.9 10.4-5.4 16.2-7.1-0.8 1.6-2.7 2.9-6.6 4.7-2.5 1.1-5 2.1-7.5 3.4 1.2 0.1 2.4 0.3 3.7 0.3 7 0.4 13.8 1.6 19.8 5.8 0.6 0.4 1.1 0.9 1.6 1.5-7.8-3-15.9-4.5-24.2-5.3 1.1 0.3 2.2 0.6 3.3 0.8 7.1 0.9 14 2.7 20.8 5.2-7.6 1.7-19.4-2.7-24.4-5 4.5 4.8 7.6 10.3 10.1 16.3-4.9-4.8-8.4-10.6-12.3-16.1-0.1 0.1-0.3 0.2-0.4 0.3 1.9 2.8 3.6 5.6 5.6 8.3s4.3 5.3 6.5 8c-3.3-1.6-6-3.6-8-6.5-1.9-2.8-3.5-5.7-5.6-8.5 0.4 3.2 1.1 6.4 1 9.5-0.1 3.2-1.1 6.4-1.7 9.6-0.2 0-0.3 0-0.5-0.1v-2.9c-0.2-3.8-0.5-7.6-0.7-11.5-0.1-1.8 0-3.6 0-5.4-0.7 6.7 0.3 13.4 0.2 20.1-1.3-3.5-2.4-7.1-2.8-10.8-0.4-3.8 0.9-7.3 1.4-11l-0.4-0.4c-3.3 0.9-6.6 1.7-9.9 2.7-1.5 0.5-2.4 0.4-3.5-1.1 4-0.8 7.8-2 11.8-2.8zm0.1 13.5c-3.2-2.9-6.3-5.7-9.7-8.7 3.6-0.9 7.2-1.9 11.1-2.9-0.9 4-2 7.7-1.4 11.6zm-6.4-5c1.7 1.5 3.3 3 5 4.5 1.4 1.2 2 2.7 2 4.4-1.4-1.4-2.9-2.8-4.3-4.1-2.3-2.2-5.2-3.5-8-4.6-4.4-1.7-8.9-3.3-13.4-4.9-3.7-1.3-7.5-2.5-11.3-3.6-0.4-0.1-0.9-0.2-1.4-0.1-0.8 0.2-1.3 0.6-1.1 1.6 0.5 2.4 1.1 4.7 1.4 7.1 0.6 4.5-1.1 8.6-2.9 12.9-0.2-6.6 0.9-12.8 0.3-19.1-0.5 6.3-0.9 12.6-1.4 19l-0.1 0.1c-0.4-1.8-0.8-3.6-1.2-5.5-0.7-3.8 0.2-7.5 0.6-11.3 0.1-1 0-2 0-3-0.1 0-0.3 0-0.4-0.1-0.2 0.6-0.5 1.1-0.7 1.7-1.6 4-3.3 7.9-6.7 10.7-1.6 1.3-3.4 2.4-5.2 3.3 3.6-5 7.2-9.9 10.8-14.9l-0.3-0.3c-3.7 4.9-7.4 9.7-11 14.6-0.1-0.1-0.2-0.2-0.3-0.2 2.6-5.7 5.5-11.3 10.1-15.7-8.1 3.3-16.1 6.6-25 5.3 0-0.2-0.1-0.4-0.1-0.6 8.3-2 16.5-4 24.8-5.9 0-0.1 0-0.2-0.1-0.3-8.1 1.1-16 3.2-24 5.1 1.1-0.8 2.1-1.6 3.2-2.3 3.3-1.9 6.9-2.8 10.6-3.3 3.3-0.4 6.5-0.7 9.8-1 0.4 0 0.7-0.2 1.5-0.4-5.3-2.3-10.5-3.9-14.5-7.9 4.4 1.8 9.3 1.8 13.3 4.8 1.2 0.9 2.3 1.8 3.6 2.5-1.3-1.1-2.5-2.3-3.8-3.4-2.2-1.8-4.8-2.5-7.4-3.2-1.8-0.5-3.6-1-5.6-1.6 4.4-1.1 8.2-0.1 12 1.8 2.7 1.3 5 3 6.7 5.6 1.1 1.7 2.7 2.3 4.7 2.6 2.9 0.5 5.9 1.4 8.7 2.3 3.8 1.3 7.5 2.7 11.5 2.9 0.2 0 0.3 0.1 0.7 0-0.5-0.7-1.1-1.5-1.7-2.3 0.4-0.4 0.9-0.8 1.4-1.2 3 2.7 6.1 5.3 9.2 8zm18.2-31c-3 0.3-5.6 1.7-7.8 3.6-5.2 4.4-10.3 9-15.3 13.6-2.6 2.4-5 5-7.4 7.6-1 1-1.8 0.1-2.8 0.1 2.8-3.2 5.6-6.2 8.2-9.3 4.5-5.4 9.9-9.7 15.4-13.8 0.4-0.3 0.7-0.7 1.1-1 2-1.7 2.8-3.8 2-6.4-0.2-0.6-0.2-1.4-0.5-1.9-0.6-1-0.3-1.8 0.3-2.6 0.5-0.7 0.9-1.5 1.3-2.3-0.1 0.4-0.1 0.7-0.2 1.1 0.1-0.1 0.3-0.2 0.4-0.3-0.1 0.3-0.1 0.7-0.1 1-0.1 0.8-0.2 1.5-0.1 2.3 0.1 1.1 0.4 2.5 1.7 2.7 0.9 0.1 2.1-0.4 3-0.9 1.1-0.7 1.9-1.9 2.9-2.8 0.2-0.2 0.6-0.3 0.9-0.4 0.1 0.4 0.3 0.7 0.4 1.1 0.1-0.1 0.2-0.1 0.3-0.2 0 0 0 0.1 0.1 0.2 0.2-0.1 0.4-0.2 0.5-0.2 0.3 0.1 0.6 0.4 0.8 1 0.1 0.3 0.5 0.5 0.7 0.6 0.5 0.2 1.1 0.4 1.8 0.6-0.3 0.3-0.6 0.6-1 0.9-0.9-0.6-1.7-0.9-2.5-0.8h-0.7v0.1c-0.9 0.3-1.8 0.9-2.7 1.6-1.3 1.1-2.7 2-4.1 3.1 0 0.1 0.1 0.2 0.1 0.3 0.8-0.1 1.6-0.2 2.4-0.2 1.2 0 2.4 0.1 3.6 0.2 0.6 0 0.9 0.2 1.2 0.5-0.1 0.4-0.2 0.9-0.3 1.3-1.1-0.2-2.4-0.5-3.6-0.4zm82-29.7c0.3 0.1 0.6 0.4 0.9 0.7 1.1 1.1 1 1.7-0.4 2.5-0.3 0.2-0.7 0.4-1 0.5-0.6 0.2-1.2 0.3-2 0.4 0.4-1.4 0.2-2.6-0.8-3.6-0.8-0.8-1.7-1.5-2.6-2.3 1.2 0.4 2.4 0.8 3.7 1.2v-0.1c0.8 0.2 1.5 0.4 2.2 0.7zm5.5-2.7c-1.5 0.2-3 0.4-4.5 0.2-1.8-0.3-3.5-0.9-5.2-1.4 0-0.2 0-0.3 0.1-0.5 0.6 0.1 1.2 0.2 1.8 0.2 1.1 0.1 2.1-0.2 2.7-1.5 0.3-0.6 0-1.5-0.1-2.2 0.3 0.1 0.6 0.2 0.9 0.4v-0.2c1.8 0.7 3.6 2 5 3.7 0.4 0.5 0.1 1.2-0.7 1.3zm6.3-1.2c-0.6 0.4-1.3 0.8-1.9 1.2 0-0.1-0.1-0.2-0.1-0.3-1.2 0.3-1.8-0.3-1.7-1.4 0.1-1.4 1.5-1 2.2-1 0.4 0 1 1 1.5 1.5zm0.6-2.9c-1.2 0.3-2.1 0.6-3.1 0.8-0.4 0.1-0.9 0.1-1.4 0.2-1.2 0.2-2.3 0-3.4-0.8-1.3-1-2.9-1.7-4.3-2.5 3.4-1.4 9.6-0.3 12.2 2.3zm-2.1-2.4c1.1-0.7 2.2-1.4 3.3-2 0.3-0.1 0.9 0 1.2 0.2 0.4 0.2 0.7 0.7 1.1 1-1.2 1.7-3.3 2-5.6 0.8zm9.2-1.5c-1.4 0.4-2.9 0.7-4.1-0.6-0.1-0.1-0.3-0.2-0.5-0.3 0.7-0.4 1.3-0.8 2-1.2 0.8-0.5 3 0 3.4 0.8s-0.3 1.1-0.8 1.3z"/>
</svg>
