<?xml version="1.0" encoding="utf-8"?>
<svg version="1.1" id="Layer_1" xmlns="http://www.w3.org/2000/svg" xmlns:xlink="http://www.w3.org/1999/xlink" x="0px" y="0px"
	 viewBox="0 0 60 60" style="enable-background:new 0 0 60 60;" xml:space="preserve">
<style type="text/css">
	.st0{fill:none;}
	.st1{fill:#605e5c;}
</style>
<g>
	<path class="st1" d="M60,50.1V9.9c0-4.9-3.6-9-8.3-9.8H8.3C3.6,0.9,0,5,0,9.9v40.1c0,4.9,3.6,9,8.3,9.8h43.3
		C56.4,59.1,60,55,60,50.1z M4.6,52V8c0-1.6,1.3-2.9,2.9-2.9h45c1.6,0,2.9,1.3,2.9,2.9v44c0,1.6-1.3,2.9-2.9,2.9h-45
		C5.9,54.9,4.6,53.6,4.6,52z"/>
	<ellipse class="st1" cx="30" cy="30" rx="10.2" ry="10"/>
	<path class="st1" d="M12,49.9h36c1.3,0,2.3-1,2.3-2.3V12.4c0-1.3-1-2.3-2.3-2.3H12c-1.3,0-2.3,1-2.3,2.3v35.2
		C9.7,48.9,10.7,49.9,12,49.9z M44.5,14.2c0.6-0.3,1.4,0,1.7,0.6c0.3,0.6,0,1.4-0.6,1.7c-0.6,0.3-1.4,0-1.7-0.6
		C43.5,15.2,43.8,14.5,44.5,14.2z M30,15.1c8.4,0,15.3,6.7,15.3,14.9S38.4,44.9,30,44.9S14.8,38.2,14.8,30S21.6,15.1,30,15.1z"/>
  <use xlink:href=".st0" transform="translate(40, 0)" class="hov1" />
</g>
</svg>
