<?xml version="1.0" encoding="UTF-8"?>
<svg enable-background="new 0 0 417.6 92.6" version="1.1" viewBox="0 0 417.6 92.6" xml:space="preserve" xmlns="http://www.w3.org/2000/svg">
<style type="text/css">
	.st0{fill:#312163;}
</style>
	<path class="st0" d="m0 1.8c1-0.1 2.1-0.2 3.2-0.2h14.4c1.5 0 3-0.3 4.6-0.4 6.4-0.4 12.7 0.8 19.1 1.5 5.5 0.5 10.4 2.7 14.3 6.3 4.1 3.8 6.8 8.5 6.6 14.4-0.1 4.2-0.2 8.4-2 12.4-1.4 3.1-3.5 5.8-6.2 7.8-3.2 2.4-6.7 4.5-10.1 6.9 2.9 4.3 5.8 8.9 9.9 12.5 4.1 3.7 9.1 5.9 14.3 7.8 0.1 0.2 0.3 0.4 0.4 0.7-1.6 1.3-3.2 2.6-4.7 4.1-4.3 4.5-6.8 10-8.4 15.8-0.3 1.1-0.6 1.3-1.6 0.9-3.2-1.1-5.5-3.5-8-5.6-7.4-6.6-12-15-15.9-24-0.8-1.9-1.7-3.7-2.6-5.7-0.7 0.3-1.5 0.6-2.1 0.9-1 7.1-0.2 13.9 0.9 20.8 0.7 4.3 2.4 7.9 4.9 11.3 0.3 0.4 0.6 0.7 1.3 1.4-1 0.2-1.7 0.4-2.4 0.4-7.2 0-14.4 0-21.7 0.1-2.3 0-4.5 0.2-6.8 0.3-0.4 0-0.8-0.2-1-0.3 1-2.4 2-4.6 2.8-6.9 0.4-1.3 0.7-2.7 0.7-4.1 0.1-9.3 0.3-18.6 0.3-27.8 0-5.1-0.2-10.2-0.4-15.3-0.1-4.5-0.2-9-0.5-13.6-0.3-5.5-0.8-11-1.4-16.5-0.3-1.9-1.2-3.8-1.9-5.9zm25.7 35.5c1.3-0.4 2.2-0.6 3-1 4.3-2 6.9-5.7 9-9.7 1.3-2.5 0.8-4.1-1.3-6-3.4-3.2-7.6-3.1-11.9-2.7 0.5 6.3 0.8 12.6 1.2 19.4z"/>
	<path class="st0" d="m262 58.6c-2.5 1.1-2.8 1.8-2.3 4.9 0.3 2.6 0.5 5.2 0.7 7.8 0.4 6.2 1.3 12.3 4.5 17.8 0.5 0.9 1.4 1.5 2.5 2.7h-33.9c3.6-3.6 4.4-8 4.6-12.4 0.5-11.3 0.7-22.6 0.8-33.8 0.1-7.7 0-15.5-0.4-23.2-0.3-5.8-1.3-11.5-2-17.3-0.1-1-0.7-2-1.3-3.3h12.4c5.3-0.1 10.6-0.5 15.9-0.3 5.1 0.2 10.2 0.7 15.3 1.6 2.5 0.4 4.9 1.9 7.2 3.2 4.3 2.4 7.4 5.9 9.2 10.7 1.2 3.1 1.3 6.3 1 9.4-0.6 5.2-2.4 10.2-6 14.2-3.4 3.9-6.7 8-12 10.6 3.3 4 6.2 8 9.7 11.4s7.5 6.5 12.7 7c0.9 0.1 1.7 0.2 2.7 0.3-6.4 6.1-10.3 13-9.9 22.1-0.1 0-0.6 0.2-0.9 0.1-3.6-0.8-6.9-1.9-10-4-6-4.1-10.3-9.7-13.6-16.1-2.6-4.3-4.7-8.8-6.9-13.4zm-2.5-18.4c4.7-1.9 8.4-4.2 10.9-8.1 1.8-2.8 2.5-5.5 0.6-8.5-2.4-3.9-6.5-4.3-10.8-5.4-0.2 7.5-0.5 14.6-0.7 22z"/>
	<path class="st0" d="m302.5 91.9c0.7-3.4 1.8-6.6 2.1-9.8 0.6-8.4 0.9-16.9 1-25.4 0.1-7.7-0.3-15.4-0.5-23.2-0.1-2.8-0.7-5.7-0.7-8.5 0-5.7-0.3-11.3-1.6-16.9-0.3-1.4-0.9-2.7-1.5-4.2 4.9-0.2 9.8-0.3 14.8-0.6 7-0.3 13.9 0.4 20.5 2.7 8.4 2.9 15.3 7.7 19.6 15.8 4.2 7.8 7 15.9 7.2 24.7 0.1 5.3-0.4 10.7-2.7 15.7-1.8 4-3.2 8.1-5.1 12-2.3 4.7-6 8.5-10.5 11.1-6.5 3.6-13.4 6.5-21.1 6.7-4.7 0.1-9.4 0-14.2 0-2.6-0.2-5.2-0.1-7.3-0.1zm24.2-19.4c1.7-0.9 3.1-1.3 4.1-2.1 5.8-5 8.7-11.5 8.8-19.1 0-3.8-0.2-7.6-0.8-11.3-0.8-4.9-2.1-9.8-6.2-13.1-1.8-1.5-3.9-2.7-5.9-4-0.2 0.2-0.4 0.3-0.6 0.5 0.1 16.1 0.3 32.4 0.6 49.1z"/>
	<path class="st0" d="m234.7 40.6c0 5.3 0.1 10.7 0 16-0.2 6.3-1.3 12.5-4.3 18-3.2 5.9-7.1 11.4-12.9 15.1-1.7 1.1-3.9 1.8-5.8 1.9-3.7 0.2-7.3 0.9-11.1-0.5-2.2-0.8-4.6-1-6.6-2.4-2.7-1.8-5.2-3.7-7-6.5-1.5-2.3-3.2-4.5-4.5-6.9-1.4-2.6-2.4-5.4-3.4-8.2-1.9-5.5-2.4-11.3-2.8-17.1-0.2-3.7-0.4-7.4-0.4-11.1 0.1-5.9 1.6-11.6 4-16.9 0.8-1.9 1.5-3.9 2.5-5.6 1.4-2.3 2.8-4.7 4.6-6.7 3.5-4 7.8-7.1 13-8.7 6.3-2 12.3-1.4 18.2 1.5 3.9 2 6.5 5.2 8.8 8.9 3.3 5.3 5.4 11.1 6.6 17.2 0.8 3.9 1.1 7.9 1.6 11.8-0.1 0.1-0.3 0.2-0.5 0.2zm-20.4 0.9c0.1-7.3-0.8-14.3-3.9-21-1.4-3.1-4.6-4.1-6.3-1.6-1.5 2.1-3 4.5-3.5 7-1 5.5-1.8 11.2-1.9 16.7-0.1 6.6 0.5 13.2 1.1 19.8 0.4 3.6 1.6 7.1 3.8 10.2 1.2 1.7 3 1.9 4.5 0.5 0.8-0.8 1.6-1.7 2-2.7 1-3.2 2.2-6.5 2.6-9.8 0.8-6.2 1.1-12.7 1.6-19.1z"/>
	<path class="st0" d="m116.8 66.2c-1.8 9.1-1.4 17.6 3.3 25.7h-53.5c3-4.6 3.6-9.6 4-14.5 0.3-3.3 0.3-6.6 0.4-9.9 0.2-7.7 0.4-15.4 0.4-23.2-0.1-9.1-0.3-18.1-0.7-27.2-0.2-4.9-0.9-9.7-1.4-14.7h53.4c-4.2 8.1-5 16.7-4.4 25.9-8.3-3.2-16-7.2-24.9-7.8-0.1 0.3-0.4 0.8-0.4 1.2-0.2 6.3-0.3 12.6-0.4 18.9 0 1.1 0.4 1.7 1.6 1.5 4.1-0.6 8.2-1.1 12.4-1.7 1.4-0.2 2.8-0.7 4.2-1 1.2-0.3 1.8-0.2 1.4 1.5-0.8 3.3-1.7 6.7-1.7 10 0 3 1.2 6.1 1.8 9.2-6.7-0.3-12.8-3.7-19.5-3.8v17.8c8.5-2 16.7-3.2 24-7.9z"/>
	<path class="st0" d="m408.6 32.2c-1.1-0.7-2.2-1.4-3.4-2.1-4.5-2.5-9-5.1-13.7-7.3-1.6-0.8-3.9-0.6-5.8-0.2-2.2 0.4-3.2 3-2.6 5.2 0.8 3.2 3.6 4.7 5.9 6.2 4.3 2.9 9 5.2 13.3 8.1 3 2.1 5.9 4.5 8.3 7.2 2.1 2.3 3.9 5.1 5.1 8 2.2 5.2 2.2 10.8 0.3 16.1-1.7 4.9-4.4 9.4-9 12.5-2.5 1.7-4.7 3.8-7.7 4.4-10.8 2.3-21.7 3.3-32.6 0.4-3.5-0.9-7-1.6-10.6-2.7 7.9-6.3 10.7-14.3 8.8-24.1 2.4 1.2 4.8 2.3 7 3.6 3.8 2.2 7.7 4 12.3 3.5 1.5-0.2 3.1 0.1 4.6-0.1 1-0.2 2.2-0.6 3-1.4 4-3.8 4.3-8 0.3-11.8-2.7-2.6-6.3-4.2-9.5-6.3-2-1.3-3.9-2.7-5.9-4-4.2-2.6-8-5.8-10.4-10.2-1.6-2.9-2.9-6.2-3.7-9.4-0.9-3.9-0.9-8 0.5-12 2.5-7.2 7.7-11.3 14.9-12.7 6.4-1.3 12.9-0.4 19.2 1.2 4.5 1.1 9 1.2 13.5 0.8 0.6-0.1 1.3-0.1 2.1-0.1-3.7 8.7-6.3 17.5-3.8 27-0.1 0-0.2 0.1-0.4 0.2z"/>
	<path class="st0" d="m179.4 2.8c-5.2 8.5-6.4 17.8-6.4 27.5-3.6-2.9-7.3-4.9-11.5-5.9-7.1-1.7-11.4 0.7-16.1 6.7-3.4 4.4-4.2 9.6-3.9 14.8 0.2 5 1.7 9.8 4.3 14.1 1.2 2 2.4 4.2 4.2 5.5 6.2 4.9 9.6 4.4 15.4 1.2 2.6-1.5 5.1-3.3 7.7-5-0.2 9.3 2.6 17.6 9.7 24.5-3.4 1.4-6.6 3.2-10.1 4.2-3 0.9-6.2 0.9-9.3 1.4-5.1 0.8-10.2 0-15.1-1.3-2.6-0.7-4.9-2.5-7.1-4.1-5.2-3.6-9.2-8.4-12-14-3.3-6.6-5.8-13.5-6.6-20.9-0.7-6.2-0.7-12.4 0.4-18.6 1.7-9.8 5.9-18.3 14-24.4 4.8-3.6 10.1-6.2 16.4-5.9 6 0.3 12.1 0.6 18.1 0.7 2 0 3.9-0.4 5.9-0.6 0.5 0.1 1 0.1 2 0.1z"/>
</svg>
