<?xml version="1.0" encoding="utf-8"?>
<!-- Generator: Adobe Illustrator 23.0.2, SVG Export Plug-In . SVG Version: 6.00 Build 0)  -->
<svg version="1.1" id="Layer_1" xmlns="http://www.w3.org/2000/svg" xmlns:xlink="http://www.w3.org/1999/xlink" x="0px" y="0px"
	 viewBox="0 0 430 428" style="enable-background:new 0 0 430 428;" xml:space="preserve">
<style type="text/css">
	.st0{fill:#B53131;}
	.st1{fill:none;}
  .dark-grey{fill:#605e5c;}
  .light-grey{fill:#d1d1d1;}
  .white{fill:white;}
</style>
<path id="vinyl" class="dark-grey" d="M215,0C96.3,0,0,95.8,0,214s96.3,214,215,214s215-95.8,215-214S333.7,0,215,0z M215,220c-3.3,0-6-2.7-6-6
	s2.7-6,6-6s6,2.7,6,6S218.3,220,215,220z"/>
<path id="label" class="light-grey" d="M215,140c-40.9,0-74,33.1-74,74s33.1,74,74,74s74-33.1,74-74S255.9,140,215,140z M215,220
	c-3.3,0-6-2.7-6-6s2.7-6,6-6s6,2.7,6,6S218.3,220,215,220z"/>
<!-- <path id="SVGID_x5F_1_x5F_" class="st1" d="M339.9,214c0,69-55.9,124.9-124.9,124.9S90.1,283,90.1,214S146,89.1,215,89.1 -->
<!-- 	S339.9,145,339.9,214z"/> -->
<path id="SVGID_x5F_1_x5F_" class="st1" d="M339.9,214c0,69-55.9,124.9-124.9,124.9S90.1,283,90.1,214S146,89.1,215,89.1
	S339.9,145,339.9,214z"/>
<!-- <text> -->
  <!-- <textPath  xlink:href="#SVGID_x5F_1_x5F_" startOffset="-55.5176%"> -->
  <!-- <textPath  xlink:href="#SVGID_x5F_1_x5F_" startOffset='45%'> -->
  <!--   <tspan  class="light-grey" style="font-family:'Nunito', sans-serif; font-size:78px;">Buy Records</tspan> -->
  <!-- </textPath> -->
  <!-- <textPath  xlink:href="#SVGID_x5F_1_x5F_" startOffset='65%'> -->
  <!--   <tspan  class="light-grey" style="font-family:'Nunito', sans-serif; font-size:78px;">Buy</tspan> -->
  <!-- </textPath> -->
<!-- </text> -->
</svg>
