<?xml version="1.0" encoding="UTF-8"?>
<svg enable-background="new 0 0 1152.7 96.6" version="1.1" viewBox="0 0 1152.7 96.6" xml:space="preserve" xmlns="http://www.w3.org/2000/svg">
<style type="text/css">
	.st0{fill:#312163;}
</style>
		<path class="st0" d="m403.7 95.9h-32.8c3.9-4.3 4-9.3 4.3-14 0.6-10.2 1-20.4 1-30.6 0-9.6-0.4-19.3-0.8-28.9-0.3-6.2-1-12.3-1.5-18.7 2 0.3 4.2 0.6 6.5 1 4.9 0.8 9.9 1.5 14.9 0.3 1.2-0.3 2.6 0.2 3.9 0.4 7.1 16.3 15.8 31.6 28.8 44.2-0.2-15.2-1.3-30.2-3.9-45 4.8 0.4 9.5 1.1 14.2 1 4.7 0 9.3-0.8 14-1.2-1.6 6.6-2 13.5-2.1 20.4-0.2 9.3-0.4 18.6-0.3 27.8 0.1 9.1 0.3 18.2 0.8 27.3 0.3 5.4 0.2 10.9 3.4 16h-5.4c-5.7-0.1-11.4-0.2-17-0.3-1.5 0-2.8-0.1-3.7-1.8-4.3-7.4-8.5-14.9-13.2-22.1-4.6-7-9.6-13.6-14.5-20.4-0.5-0.7-1.1-1.4-2-2.4-0.2 12.9-0.7 25.1 1.3 37.3 0.4 3.6 1.3 7 4.1 9.7z"/>
		<path class="st0" d="m489.1 96h-31.5c0.1-0.3 0.2-0.7 0.4-1.1 2.5-3.9 3.1-8.3 3.3-12.7 0.4-9.1 0.7-18.3 0.7-27.4 0-7.2-0.6-14.5-0.9-21.7-0.1-2.5 0-4.9-0.1-7.4-0.2-7.3-0.8-14.6-3-22 2.6 0.3 5.2 0.6 7.7 0.8 2.7 0.2 5.3 0.3 8 0.4 2.2 0.1 4.4 0 6.6 0h1c3.8-0.1 3.7-0.1 5.1 3.7 2.8 7.4 6.4 14.4 10.9 21 4 5.9 8.5 11.5 12.8 17.2 0.5 0.6 1.2 1 2.1 1.7-0.2-15.2-0.7-30.1-2.9-44.9 9.1 0.5 18.3 2.4 27.7-0.5-0.7 4.6-1.5 8.7-2 12.9-0.3 2.4-0.4 4.8-0.4 7.2-0.2 9.4-0.7 18.9-0.6 28.3 0.1 9.6 0.7 19.1 1.4 28.7 0.4 5.2 1.4 10.3 2.2 15.6h-24.6c-3.1-5.8-6.4-11.6-9.5-17.5-2.1-4-3.7-8.2-6-12.1-2.4-4.1-5.2-7.9-7.8-11.8-1.4-2.1-2.9-4.1-4.3-6 0 4.6-0.1 9.2 0 13.7 0.1 7 0.2 14.1 0.5 21.1 0.1 2.2 0.4 4.3 1 6.4 0.3 1.9 1.2 3.9 2.2 6.4z"/>
		<path class="st0" d="m1.6 2.1h4.6c2.7-0.1 5.3-0.4 8-0.4 4.4 0 8.8 0.2 13.2 0.4 5.7 0.3 11 1.9 16.2 3.9 4.1 1.6 8.1 3.5 11 6.9 4.1 4.8 6.2 10.3 5.1 16.9-0.7 4.2-1.7 8.2-4 11.8-2.8 4.5-6.9 7.6-11.7 9.9 1.7 0.6 3.4 1 5.1 1.7 4.3 1.6 7.8 4.5 10.4 8.1 3.5 4.9 3.7 10.5 2.6 16.2-0.7 3.4-1.5 6.8-3.9 9.5-4.1 4.6-9.1 7.3-15.3 8.1-12.3 1.6-24.6 0.9-36.9 1-2 0-3.9-0.3-6.1-0.5 0.7-1.1 1.4-2.1 2-3.2 1.7-3.4 1.7-7.1 1.9-10.7 0.3-5.6 0.4-11.2 0.3-16.8 0-6.7-0.2-13.4-0.3-20.1 0-6.6-0.1-13.2-0.3-19.8-0.2-5.6-0.7-11.2-1.1-16.8-0.2-2-0.5-3.9-0.8-6.1zm22.1 37.4c3.5-0.8 5.9-2.6 8.3-4.5 4.4-3.6 3.1-10-1.5-11.9-2.2-0.9-4.5-1.5-6.8-2.2v18.6zm1.4 39.8c3.6-0.7 6.8-1.9 9.4-4.5 1.9-1.9 2-4.8 0.5-6.9-2.5-3.3-6.2-3.4-9.9-4.3v15.7z"/>
		<path class="st0" d="m295.2 48.2c3.9 1 6.7 3.3 9.5 5.9 3.5 3.3 5.2 7.5 6.1 12 0.9 4.7 1.1 9.5-0.8 14-3.5 8.3-8.6 15-18.4 15.7-7.6 0.5-15.2 0.4-22.8 0.5-6.6 0-13.1-0.2-20-0.3 3.5-6.2 3.8-12.6 3.7-19.1-0.1-5.1 0-10.2 0-15.4 0-7.7 0.1-15.3-0.1-23-0.2-8.5-0.5-17.1-1.1-25.6-0.3-3.3-1.5-6.6-2.5-10.3h7.4c7.2-0.1 14.4-0.4 21.6-0.1 7.1 0.2 13.9 1.7 19.7 6.2 4.7 3.7 7.8 8.3 8.7 14.2 0.7 4.2 0 8.3-1.7 12.1-1.5 3.2-3.3 6.3-5.3 9.3-1 1.5-2.5 2.5-4 3.9zm-21.1-8.3c1-0.3 1.9-0.6 2.8-0.9 4.6-1.8 7.2-5.3 7.7-10.1 0.4-3.8-6.2-8.8-10.5-8.1v19.1zm-0.5 37.9c4.2-0.3 7.9-1.6 10.7-4.6 1.6-1.8 2-4 1-5.2-3.1-3.6-7-5.8-11.7-6.9v16.7z"/>
		<path class="st0" d="m154.3 4.9c4.7 0 9.4 0.3 14-0.1 4.6-0.3 9.1-1.2 13.7-1.9-1.7 6.9-2.5 14.1-2.4 21.5 0.1 5.6 0.3 11.2 0.4 16.9 0.1 6.8 0.2 13.6 0 20.4-0.1 4.7-0.5 9.4-1.1 14.1-1 8-5.6 13.8-12.4 17.6-2.9 1.6-6.5 2-9.9 2.5-3.3 0.5-6.7 0.9-10 0.8-5.3-0.1-10.7-0.9-15.2-3.8-4.4-2.8-8.1-6.6-10.4-11.5-2.8-6-3.8-12.4-4.1-19-0.2-6-0.6-12-0.8-18-0.3-7.3-0.2-14.6-0.7-21.8-0.4-6.2-1.5-12.4-2.2-18.6 9.6 1.2 19.5 3.1 29.3-0.1-1.1 4.6-2.5 8.7-3 13-0.7 5.2-0.8 10.5-0.8 15.8 0 7.4 0.3 14.8 0.8 22.2 0.3 5.1 0.7 10.3 3 15 1.4 3 3.9 4.4 7 4.9 3.2 0.5 7-2.7 7.5-6.5 0.7-6 1.5-12 1.6-18 0.2-8.7 0-17.4-0.5-26.1-0.3-5.1-1.4-10.1-2.2-15.2-0.2-1.5-1.1-2.9-1.6-4.1z"/>
		<path class="st0" d="m371.1 44.3c0 2.2 0.1 4.5 0 6.7-0.3 4.4-0.7 8.7-1.1 13.1-0.4 5.8-1.7 11.3-4.3 16.5-3.3 6.6-8.1 12.1-15.2 14.8-2 0.8-4.4 0.8-6.5 0.8-3 0-6 0-8.9-0.6-4.5-1-7.4-4.4-10.2-7.8-5.4-6.5-8.2-14-10-22-0.8-3.3-1.1-6.7-1.3-10.1-0.3-3.7-0.6-7.4-0.4-11.1 0.7-10.1 1.8-20.2 6.8-29.3 4.6-8.5 12.1-12.8 21.6-13.3 3.7-0.3 7.7 0 11.4 1 5.1 1.4 8.5 5.3 11.3 9.8 3.4 5.5 4.8 11.7 5.7 18 0.6 4.5 1 9 1.5 13.5h-0.4zm-20.8-1.7c-0.3-4.1-0.6-9.1-1.1-14.1-0.3-3-1.3-5.9-3.5-8.2-1.5-1.6-2.6-1.8-4.2-0.3-0.6 0.5-1.1 1.1-1.5 1.7-2.2 3.5-3.2 7.5-3.4 11.6-0.5 7.8-0.7 15.6-0.8 23.3-0.1 5.7 1.4 11.2 4 16.2 1.5 2.9 2.9 3.9 5.4 1 2.3-2.7 3.6-5.9 3.9-9.4 0.4-6.9 0.7-13.9 1.2-21.8z"/>
		<path class="st0" d="m185.5 2.9h57.5c-2.7 8.7-4.6 17.3-1.1 26.6-1.1-0.3-1.8-0.4-2.4-0.6-2.7-1.1-5.4-2.5-8.1-3.4-4.3-1.3-8.6-2.4-12.9-3.3-2.1-0.4-4.3-0.1-6.7-0.1-0.5 6.9-0.9 13.6-1.4 20.8 6.6-1.6 12.8-3 19.6-4.7-4 7.9-5.1 15.6 0 23.6-6.8-1.3-13.2-2.4-19.5-3.6v17.6c10.9 0 20.8-3.2 31-7.1-0.5 2.6-0.9 5-1.5 7.3-1.6 6.2-1.3 12.1 1.9 17.8 0.3 0.6 0.8 1.1 1.4 2.1h-57.1c0.5-3.3 1-6.4 1.4-9.5s1-6.1 1.1-9.2c0.2-12.3 0.4-24.5 0.4-36.8 0-8.4-0.4-16.8-0.8-25.3-0.2-3.8-0.7-7.5-2.3-11-0.3-0.3-0.4-0.6-0.5-1.2z"/>
		<path class="st0" d="m566.2 44.3c5.5-2.1 10.7-4.1 16.3-6.3-0.2 1.3-0.2 2.3-0.5 3.2-2.2 6.5-1 12.5 2.6 18.2 0.1 0.2 0.2 0.4 0.4 1.1-6.3-0.2-12.1-2.5-18.3-2.7-0.9 6.6-0.4 13.1 0 19.9 8.9-1.2 17.5-2.8 25.5-7.4-0.4 2.8-0.8 5.3-1.1 7.9-0.6 5.6 0 11.1 2.1 16.3 0.7 1.6 0.3 2.1-1.4 2.1-11.4-0.1-22.7-0.2-34.1-0.2h-14.9c0.6-2 1.3-3.5 1.5-5.1 0.5-5.2 1.1-10.5 1.2-15.7 0.2-6.1 0-12.1-0.1-18.2-0.1-4.5-0.3-8.9-0.4-13.4-0.2-10.2-0.2-20.4-0.6-30.6-0.1-3.2-1.1-6.4-1.7-10h52.2c-5.4 8.4-5.1 17.4-3.6 26.5-4.1-1.4-8-3-12.1-4.1-4-1.1-8.1-1.7-12.3-2.5-1.2 6.9-0.5 13.8-0.7 21z"/>
		<path class="st0" d="m645.1 96h-32.5c1.1-5 2.6-9.7 3.2-14.5 0.8-5.4 0.9-10.9 1.2-16.4 0.4-5.7 0.8-11.4 1-17.1 0.2-5.8 0-11.6 0.1-17.3v-5.2c-6.4 2-12.5 3.9-19 5.9 2.4-9.6 1.3-18.7-1.1-27.8h63.5c-4.1 8.8-4.1 18-2.8 27.8-6.4-2.3-12.5-4.6-18.9-6.9-0.2 2.8-0.5 5.3-0.6 7.8-0.2 4-0.4 7.9-0.3 11.9 0.1 4.8 0.4 9.7 0.7 14.5 0.2 3.3 0.4 6.5 0.4 9.8 0.1 6.9 0.4 13.7 2.4 20.3 0.6 2.3 1.6 4.5 2.7 7.2z"/>
		<path class="st0" d="m61.3 4c5.8 0.4 11.5 1.2 17.2 1.1s11.3-1.1 16.4-1.7c-0.8 3.3-2 7-2.7 10.8-0.7 4-1.3 8.1-1.5 12.2-0.5 12.1-0.9 24.2-1.2 36.4-0.1 4.3 0.3 8.6 0.5 13.2 8.1-0.5 15.5-3 22.5-6.7-0.4 4.5-0.9 8.9-1.2 13.4-0.3 4.7 1.4 8.9 4 13.1h-54.3c4.1-3.8 4.8-8.8 5.4-13.7 0.5-4.8 0.7-9.7 0.7-14.5 0-4-0.4-8.1-0.6-12.2 0-0.8 0-1.7-0.1-2.5-0.3-7.5-0.5-14.9-0.8-22.4-0.2-4.4-0.4-8.8-0.8-13.1-0.2-4.7-1.5-9.2-3.5-13.4z"/>
		<path class="st0" d="m735.1 1.8c1-0.1 2.1-0.2 3.2-0.2h14.4c1.5 0 3-0.3 4.6-0.4 6.5-0.3 12.8 0.8 19.2 1.5 5.5 0.6 10.3 2.7 14.3 6.3 4.1 3.8 6.8 8.5 6.6 14.4-0.1 4.2-0.2 8.4-2 12.4-1.4 3.1-3.5 5.8-6.2 7.8-3.2 2.4-6.7 4.5-10.1 6.9 2.9 4.3 5.8 8.9 9.9 12.5 4.1 3.7 9.1 5.9 14.3 7.8 0.1 0.2 0.3 0.4 0.4 0.7-1.6 1.3-3.2 2.6-4.7 4.1-4.3 4.5-6.8 10-8.4 15.8-0.3 1.1-0.6 1.3-1.6 0.9-3.2-1.1-5.5-3.5-8-5.6-7.4-6.6-12-15-15.9-24-0.8-1.9-1.7-3.7-2.6-5.7-0.7 0.3-1.5 0.6-2.1 0.9-1 7.1-0.2 13.9 0.9 20.8 0.7 4.3 2.4 7.9 4.9 11.3 0.3 0.4 0.6 0.7 1.3 1.4-1 0.2-1.7 0.4-2.4 0.4-7.2 0-14.4 0-21.7 0.1-2.3 0-4.5 0.2-6.8 0.3-0.4 0-0.8-0.2-1-0.3 1-2.4 2-4.6 2.8-6.9 0.4-1.3 0.7-2.7 0.7-4.1 0.2-9.3 0.4-18.5 0.4-27.8 0-5.1-0.2-10.2-0.4-15.3-0.1-4.5-0.2-9-0.5-13.6-0.4-5.5-0.8-11-1.5-16.5-0.4-1.9-1.3-3.8-2-5.9zm25.7 35.5c1.3-0.4 2.2-0.6 3-1 4.3-2 6.9-5.7 9-9.7 1.3-2.5 0.8-4.1-1.3-6-3.4-3.2-7.6-3.1-11.9-2.7 0.5 6.3 0.8 12.6 1.2 19.4z"/>
		<path class="st0" d="m997.1 58.6c-2.5 1.1-2.8 1.8-2.3 4.9 0.3 2.6 0.5 5.2 0.7 7.8 0.4 6.2 1.3 12.3 4.5 17.8 0.5 0.9 1.4 1.5 2.5 2.7h-33.9c3.6-3.6 4.4-8 4.6-12.4 0.5-11.3 0.7-22.6 0.8-33.8 0.1-7.7 0-15.5-0.4-23.2-0.3-5.8-1.3-11.5-2-17.3-0.1-1-0.7-2-1.3-3.3h12.4c5.3-0.1 10.6-0.5 15.9-0.3 5.1 0.2 10.2 0.7 15.3 1.6 2.5 0.4 4.9 1.9 7.2 3.2 4.3 2.4 7.4 5.9 9.2 10.7 1.2 3.1 1.3 6.3 1 9.4-0.6 5.2-2.4 10.2-6 14.2-3.4 3.9-6.7 8-12 10.6 3.3 4 6.2 8 9.7 11.4s7.5 6.5 12.7 7c0.9 0.1 1.7 0.2 2.7 0.3-6.4 6.1-10.3 13-9.9 22.1-0.1 0-0.6 0.2-0.9 0.1-3.6-0.8-6.9-1.9-10-4-6-4.1-10.3-9.7-13.6-16.1-2.6-4.3-4.7-8.8-6.9-13.4zm-2.6-18.4c4.7-1.9 8.4-4.2 10.9-8.1 1.8-2.8 2.5-5.5 0.6-8.5-2.4-3.9-6.5-4.3-10.8-5.4-0.1 7.5-0.4 14.6-0.7 22z"/>
		<path class="st0" d="m1037.5 91.9c0.7-3.4 1.8-6.6 2.1-9.8 0.6-8.4 0.9-16.9 1-25.4 0.1-7.7-0.3-15.4-0.5-23.2-0.1-2.8-0.7-5.7-0.7-8.5 0-5.7-0.3-11.3-1.6-16.9-0.3-1.4-0.9-2.7-1.5-4.2 4.9-0.2 9.8-0.3 14.8-0.6 7-0.3 13.9 0.4 20.5 2.7 8.4 2.9 15.3 7.7 19.6 15.8 4.2 7.8 7 15.9 7.2 24.7 0.1 5.3-0.4 10.7-2.7 15.7-1.8 4-3.2 8.1-5.1 12-2.3 4.7-6 8.5-10.5 11.1-6.5 3.6-13.4 6.5-21.1 6.7-4.7 0.1-9.4 0-14.2 0-2.6-0.2-5.1-0.1-7.3-0.1zm24.3-19.4c1.7-0.9 3.1-1.3 4.1-2.1 5.8-5 8.7-11.5 8.8-19.1 0-3.8-0.2-7.6-0.8-11.3-0.8-4.9-2.1-9.8-6.2-13.1-1.8-1.5-3.9-2.7-5.9-4-0.2 0.2-0.4 0.3-0.6 0.5 0 16.1 0.3 32.4 0.6 49.1z"/>
		<path class="st0" d="m969.7 40.6c0 5.3 0.1 10.7 0 16-0.2 6.3-1.3 12.5-4.3 18-3.2 5.9-7.1 11.4-12.9 15.1-1.7 1.1-3.9 1.8-5.8 1.9-3.7 0.2-7.3 0.9-11.1-0.5-2.2-0.8-4.6-1-6.6-2.4-2.7-1.8-5.2-3.7-7-6.5-1.5-2.3-3.2-4.5-4.5-6.9-1.4-2.6-2.4-5.4-3.4-8.2-1.9-5.5-2.4-11.3-2.8-17.1-0.2-3.7-0.4-7.4-0.4-11.1 0.1-5.9 1.6-11.6 4-16.9 0.8-1.9 1.5-3.9 2.5-5.6 1.4-2.3 2.8-4.7 4.6-6.7 3.5-4 7.8-7.1 13-8.7 6.3-2 12.3-1.4 18.2 1.5 3.9 2 6.5 5.2 8.8 8.9 3.3 5.3 5.4 11.1 6.6 17.2 0.8 3.9 1.1 7.9 1.6 11.8 0 0.1-0.2 0.2-0.5 0.2zm-20.3 0.9c0.1-7.3-0.8-14.3-3.9-21-1.4-3.1-4.6-4.1-6.3-1.6-1.5 2.1-3 4.5-3.5 7-1 5.5-1.8 11.2-1.9 16.7-0.1 6.6 0.5 13.2 1.1 19.8 0.4 3.6 1.6 7.1 3.8 10.2 1.2 1.7 3 1.9 4.5 0.5 0.8-0.8 1.6-1.7 2-2.7 1-3.2 2.2-6.5 2.6-9.8 0.8-6.2 1.1-12.7 1.6-19.1z"/>
		<path class="st0" d="m851.9 66.2c-1.8 9.1-1.4 17.6 3.3 25.7h-53.5c3-4.6 3.6-9.6 4-14.5 0.3-3.3 0.3-6.6 0.4-9.9 0.2-7.7 0.4-15.4 0.4-23.2-0.1-9.1-0.3-18.1-0.7-27.2-0.2-4.9-0.9-9.7-1.4-14.7h53.4c-4.2 8.1-5 16.7-4.4 25.9-8.3-3.2-16-7.2-24.9-7.8-0.1 0.3-0.4 0.8-0.4 1.2-0.2 6.3-0.3 12.6-0.4 18.9 0 1.1 0.4 1.7 1.6 1.5 4.1-0.6 8.2-1.1 12.4-1.7 1.4-0.2 2.8-0.7 4.2-1 1.2-0.3 1.8-0.2 1.4 1.5-0.8 3.3-1.7 6.7-1.7 10 0 3 1.2 6.1 1.8 9.2-6.7-0.3-12.8-3.7-19.5-3.8v17.8c8.4-2 16.7-3.2 24-7.9z"/>
		<path class="st0" d="m1143.7 32.2c-1.1-0.7-2.2-1.4-3.4-2.1-4.5-2.5-9-5.1-13.7-7.3-1.6-0.8-3.9-0.6-5.8-0.2-2.2 0.4-3.2 3-2.6 5.2 0.8 3.2 3.6 4.7 5.9 6.2 4.3 2.9 9 5.2 13.3 8.1 3 2.1 5.9 4.5 8.3 7.2 2.1 2.3 3.9 5.1 5.1 8 2.2 5.2 2.2 10.8 0.3 16.1-1.7 4.9-4.4 9.4-9 12.5-2.5 1.7-4.7 3.8-7.7 4.4-10.8 2.3-21.7 3.3-32.6 0.4-3.5-0.9-7-1.6-10.6-2.7 7.9-6.3 10.7-14.3 8.8-24.1 2.4 1.2 4.8 2.3 7 3.6 3.8 2.2 7.7 4 12.3 3.5 1.5-0.2 3.1 0.1 4.6-0.1 1-0.2 2.2-0.6 3-1.4 4-3.8 4.3-8 0.3-11.8-2.7-2.6-6.3-4.2-9.5-6.3-2-1.3-3.9-2.7-5.9-4-4.2-2.6-8-5.8-10.4-10.2-1.6-2.9-2.9-6.2-3.7-9.4-0.9-3.9-0.9-8 0.5-12 2.5-7.2 7.7-11.3 14.9-12.7 6.4-1.3 12.9-0.4 19.2 1.2 4.5 1.1 9 1.2 13.5 0.8 0.6-0.1 1.3-0.1 2.1-0.1-3.7 8.7-6.3 17.5-3.8 27-0.1 0-0.2 0.1-0.4 0.2z"/>
		<path class="st0" d="m914.5 2.8c-5.2 8.5-6.4 17.8-6.4 27.5-3.6-2.9-7.3-4.9-11.5-5.9-7.1-1.7-11.4 0.7-16.1 6.7-3.4 4.4-4.2 9.6-3.9 14.8 0.2 5 1.7 9.8 4.3 14.1 1.2 2 2.4 4.2 4.2 5.5 6.2 4.9 9.6 4.4 15.4 1.2 2.6-1.5 5.1-3.3 7.7-5-0.2 9.3 2.6 17.6 9.7 24.5-3.4 1.4-6.6 3.2-10.1 4.2-3 0.9-6.2 0.9-9.3 1.4-5.1 0.8-10.2 0-15.1-1.3-2.6-0.7-4.9-2.5-7.1-4.1-5.2-3.6-9.2-8.4-12-14-3.3-6.6-5.8-13.5-6.6-20.9-0.7-6.2-0.7-12.4 0.4-18.6 1.7-9.8 5.9-18.3 14-24.4 4.8-3.6 10.1-6.2 16.4-5.9 6 0.3 12.1 0.6 18.1 0.7 2 0 3.9-0.4 5.9-0.6 0.4 0.1 1 0.1 2 0.1z"/>
</svg>
