<?xml version="1.0" encoding="utf-8"?>
<!-- Generator: Adobe Illustrator 23.0.2, SVG Export Plug-In . SVG Version: 6.00 Build 0)  -->
<svg version="1.1" id="Layer_1" xmlns="http://www.w3.org/2000/svg" xmlns:xlink="http://www.w3.org/1999/xlink" x="0px" y="0px"
	 viewBox="0 0 893.3 839.5" style="enable-background:new 0 0 893.3 839.5;" xml:space="preserve">
<style type="text/css">
	.st0{fill:none;}
	.st1{fill:#FFFFFF;}
	.st2{font-family:'Nunito', sans-serif;}
	.st3{font-size:105px;}
  .text-color{fill:#605e5c;}
  .light-grey{color:#d1d1d1;}
</style>
<path class="text-color" d="M421,839.5c101.7-2,203.4-3.9,305.1-5.9v1l1.2-499.7c18.4,4.6,36.8,9.1,55.3,13.7c36.9-41.5,73.8-83,110.8-124.5L732.2,55.1
	C669.9,36.8,607.6,18.4,545.3,0c-12.1,7-29.8,15.4-52.3,20.3c-15.1,3.3-28.6,4.2-39.5,4.1l0,0c-13.3,0.9-31.8,0.6-53.2-4.2
	C377.6,15.2,359.9,6.8,348,0c-62.3,18.4-124.6,36.7-186.9,55.1L0,224c36.9,41.5,73.8,83,110.8,124.5c18.4-4.6,36.8-9.1,55.3-13.7
	l1.2,499.7c0-0.3,0-0.7,0-1C251.8,835.5,336.4,837.5,421,839.5z"/>
<rect x="276.1" y="220.6" class="st0" width="341.2" height="220.2"/>
<text transform="matrix(1 0 0 1 353.9785 300.4295)"><tspan x="0" y="0" class="st1 st2 st3">Buy</tspan><tspan x="-62.8" y="126" class="st1 st2 st3">Merch</tspan></text>
</svg>
