<?xml version="1.0" encoding="utf-8"?>
<!-- Generator: Adobe Illustrator 23.0.2, SVG Export Plug-In . SVG Version: 6.00 Build 0)  -->
<svg version="1.1" id="Layer_1" xmlns="http://www.w3.org/2000/svg" xmlns:xlink="http://www.w3.org/1999/xlink" x="0px" y="0px"
	 viewBox="0 0 60 60" style="enable-background:new 0 0 60 60;" xml:space="preserve">
<style type="text/css">
	.st0{fill:#605e5c;}
</style>
<path class="st0" d="M58.6,7.2c-1.7-4.1-5.7-6.7-10.1-6.7c-12.3,0-24.7,0-37.1,0c-6,0-10.9,5-10.9,10.9c0,12.3,0,24.7,0,37.1
	c0,6,5,10.9,11,10.9c12.3,0,24.7,0,37,0c5.5,0,10-3.8,10.9-9.2c0-0.1,0-0.3,0.1-0.4c0-13.3,0-26.7,0-40C59.3,9.1,59,8.1,58.6,7.2z
	 M45.5,22.9c-0.6,0.4-0.7,0.9-0.7,1.6c0,8.9-6.1,18.4-16.6,20.3c-5,0.9-9.8,0.2-14.3-2.3l-0.1-0.1c-0.3-0.1-0.5-0.3-0.8-0.5
	c0.5,0,1,0.1,1.5,0l0,0c0.5,0,0.9,0,1.4-0.1H16c2.7-0.3,5.1-1.3,7.4-3c-2-0.2-3.6-0.9-4.8-2.2c-0.8-0.8-1.4-1.7-1.8-2.9
	c1.1,0,2.1,0,3,0l0.1-0.1c-1.3-0.4-2.4-1-3.2-1.8c-1.4-1.3-2.2-3-2.4-5.3c1.1,0.3,2.1,0.5,3,0.8c-3.1-3.5-3.8-6.6-2-9.7l0.1,0.1l0,0
	c0.1,0.1,0.2,0.2,0.3,0.3c3.9,4.3,8.7,6.8,14.6,7.1c0-1-0.1-2,0-2.8c0.4-2.7,2.1-4.7,4.7-5.7c2.6-1,5.1-0.4,7.2,1.5
	c0.1,0.1,0.1,0.1,0.2,0.1c0.1,0.1,0.3,0.2,0.4,0.2c0.2,0,0.4,0,0.6-0.1c1.3-0.5,2.5-0.9,3.8-1.4c0,0.1,0,0.1-0.1,0.2
	c0.1,0,0.1,0,0.2-0.1c-0.5,1.6-1.6,2.7-2.8,3.6v0.1c1.3-0.3,2.4-0.7,3.7-1c0,0.1-0.1,0.1-0.1,0.2c0.1,0,0.1,0,0.2-0.1
	C47.4,21.1,46.6,22.1,45.5,22.9z"/>
</svg>
