<?xml version="1.0" encoding="UTF-8"?>
<svg enable-background="new 0 0 574.6 43.6" version="1.1" viewBox="0 0 574.6 43.6" xml:space="preserve" xmlns="http://www.w3.org/2000/svg">
<style type="text/css">
	.st0{fill:#312163;}
</style>
	<path class="st0" d="m67.6 43h-14.1c0.1-0.4 0.3-0.7 0.3-1 0.3-1.4 0.8-2.8 0.8-4.2 0.1-11.5 0.1-22.9 0.1-34.4v-2.3c1.9 0.1 3.6 0.3 5.3 0.2s3.3-0.4 5.1-0.7c1.4 4.2 3.8 7.8 6.1 11.6 2.2 3.7 4.7 7.2 8.2 10-0.3-7.1-0.6-14.2-2.3-20.9 2.3 0 4.6 0.1 6.8 0 2.3-0.1 4.5-0.3 6.9-0.5 0 0.1 0 0.3-0.1 0.5-1 3.2-1.4 6.4-1.4 9.7-0.1 7.7-0.2 15.4-0.2 23.1 0 2.6 0.4 5.3 0.5 7.9v0.8h-10.1c-5.1-7.4-10.1-14.7-15.2-22.2-0.2 4 0.2 15.7 3.3 22.4z"/>
	<path class="st0" d="m201.7 43c1.3-4.9 1-9.9 1-14.8 0-6.1 0-12.1-0.1-18.2 0-2.2-0.2-4.5-0.4-6.7-0.1-0.8-0.4-1.6-0.6-2.5l0.2-0.2c5.1-0.4 10.1-0.3 14.9 1.6 5.6 2.2 9.8 5.9 11.6 11.9 1 3.5 0.9 7.1 0.7 10.8-0.3 3.5-1.6 6.7-3.4 9.7-1.2 2.1-3.2 3.5-5.3 4.8-2.9 1.8-6.2 2.8-9.6 3.3-3 0.4-6 0.4-9 0.3zm10.5-10c5.3-2.2 8-6.7 7.2-13.7-0.5-4.3-3.7-8.5-7.2-9.2-0.6 1.8-0.7 20.9 0 22.9z"/>
	<path class="st0" d="m371.7 43.1h-14.1c0.1-1 0.2-1.9 0.4-2.9 0.3-1.9 0.2-3.7-0.2-5.5-0.3-1.8-0.8-2.2-2-2.1-1.9 0.3-2.4 0.3-2.4 2.4 0 2.3 0.2 4.7 0.9 6.9 0.1 0.4 0.2 0.8 0.4 1.3h-13.5c0-0.2 0-0.4 0.1-0.6 3.1-7.5 4.1-15.4 4.8-23.4 0.4-5.3 1-10.6 1.5-15.8 0.1-0.8 0.1-1.6 0.2-2.5 4.9 0.5 9.8 0.3 14.7-0.2 0.1 1.1 0.2 2 0.3 3 0.5 3.9 1.1 7.9 1.7 11.8 0.9 5.4 1.8 10.9 2.8 16.3 0.7 3.8 2.1 7.6 4.4 11.3zm-13.9-20.7c-0.6-3.1-1.1-5.9-2.1-8.7-0.9 2.9-1.6 5.7-1.6 9 1.3-0.1 2.4-0.2 3.7-0.3z"/>
	<path class="st0" d="m24.6 43h-13.7c-2.1-14.5-6.6-28.3-10.9-42.4 4.6 0.6 9 0.6 13.5-0.6-0.2 9.6 0.4 18.9 4.2 27.7 1.7-4.4 2.1-8.9 2.4-13.5 0.4-4.6 0.2-9.1-0.6-13.7 2.5 0.1 4.8 0.4 7.1 0.3s4.5-0.5 6.8-0.7c-4.8 14-6.9 28.4-8.8 42.9z"/>
	<path class="st0" d="m446.2 27.1c-3-0.1-5.7-0.7-8.4-0.2-0.6 1.6-0.6 4.2-0.1 6.8 4.1 0.1 7.7-1.6 11.5-3.1-0.3 2.1-0.6 4.2-0.7 6.2-0.2 2.1 0.3 4.1 1.2 6.2-0.9 0.1-1.7 0.2-2.5 0.2h-15.9c-1.6 0-3.3-0.2-4.9-0.3 1.6-6.4 1.5-12.8 1.3-19.2-0.2-5.4-0.6-10.7-1.1-16-0.2-2.3-0.7-4.6-1.1-7.1 8.3-0.3 16.6 0.3 25.2-0.2-1.4 4.1-1.8 8-1.1 12.2-4-1.2-7.9-2.3-12-2.6v7.8c2.8 0 5.1-1.1 7.7-2-0.7 3.9-0.9 7.5 0.9 11.3z"/>
	<path class="st0" d="m195.1 14.4c-1.9-0.8-3.6-1.7-5.4-2.4-1.1-0.4-2.3-0.5-3.4-0.4-3.6 0.2-5.5 2.6-7 5.5-1.6 3.1-1.4 9.6 1.8 12.7 3.1 3 7.9 3.5 11.5 1.1 0.7-0.5 1.4-1 2.2-1.6 0.3 1.5 0.6 2.9 1 4.3s1 2.7 1.6 4c0.7 1.3 1.6 2.5 2.4 3.8-5.5 1.2-11 2.4-16.7 1.4-4.7-0.8-8.3-3.2-11-7-3.9-5.6-5.3-11.9-4-18.6 0.9-4.7 3.1-8.8 6.6-12.1 2.5-2.4 5.7-3.6 9.1-4.4 2.1-0.5 4.1-0.3 6.2 0.1 2.8 0.5 5.6 0.7 8.4-0.1 0.1 0 0.2 0 0.5 0.1-2.2 4.2-3.7 8.8-3.8 13.6z"/>
	<path class="st0" d="m253.7 1.4c-1.4 4.3-2.6 8.6-2.3 13.4-0.7-0.4-1.2-0.7-1.6-1-1.6-1.1-3.2-2.3-4.8-3.4-0.5-0.3-1.2-0.5-1.8-0.7-1.2-0.3-2.4 0.1-2.9 1-0.6 1-0.4 1.9 0.2 2.8 1.2 1.7 2.7 3.1 4.4 4.3 2.4 1.7 4.6 3.7 6.6 6 3.6 4.1 4.1 9.2 1.4 13.9-1.6 2.8-4.3 4.4-7.5 4.9-2.9 0.5-5.8 0.6-8.7 0.3-3.1-0.4-6.1-0.8-9.2-1.2-0.5-0.1-1-0.2-1.7-0.4 2.8-3.7 4.8-7.7 5.7-12.1 1.9 0.9 3.7 1.9 5.6 2.6 1.1 0.4 2.4 0.5 3.6 0.5 0.7 0 1.5-0.4 2.1-0.9 0.9-0.6 1-1.6 0.5-2.6-0.4-0.7-0.8-1.4-1.4-1.9-1.6-1.5-3.3-2.9-4.9-4.3-3.3-2.9-6-6.1-6.9-10.6-0.4-2.4-0.2-4.8 0.8-7 0.9-1.9 2.3-3.2 4.3-4 2.8-1.1 5.7-1.2 8.6-0.6 3 0.6 6 1 9 1 0.3-0.1 0.5 0 0.9 0z"/>
	<path class="st0" d="m545.4 43h-23.2c1.6-6.5 1.3-13 1.3-19.5-0.1-6.7-0.3-13.4-0.5-20.1 0-1-0.3-2-0.4-2.9h23.8c-1.1 3.4-1.7 6.8-1.3 10.6-3.9-1.1-7.8-1.4-11.9-1.7-0.2 3 0 5.8 0.2 8.6 2.8 0.3 5-1.3 7.6-2.1-0.6 3.9-0.7 7.5 1 11.3-2.9 0.1-5.6-1-8.5-0.5-0.3 2.3-0.3 4.5 0 7 4.2 0.1 7.8-1.6 11.7-3-0.2 0.9-0.3 1.6-0.5 2.3-0.8 3.8-0.6 6.4 0.7 10z"/>
	<path class="st0" d="m572.7 2.4c-1.2 3.8-2.3 7.7-2.1 12-0.8-0.5-1.4-0.9-2.1-1.2-1.8-0.9-3.7-1.9-5.6-2.7-0.6-0.2-1.4-0.3-2-0.1-1.4 0.5-1.9 2-1.1 3.2 0.7 0.9 1.5 1.8 2.5 2.4 1.8 1.3 3.7 2.4 5.5 3.6 0.7 0.5 1.4 1.1 2.1 1.6 3.3 2.7 4.7 6.2 4.6 10.4-0.1 2.2-0.9 4.2-2.2 6-2.7 3.5-6.4 5-10.7 5.6-3.7 0.5-7.3 0-10.9-0.7-0.9-0.2-1.8-0.4-2.8-0.7 0.6-2.1 1.3-4.1 1.7-6.2 0.5-2.1 0.7-4.2 1.1-6.4 1 0.6 1.8 1.2 2.7 1.7 2.1 1.2 4.4 1.9 6.8 1.5 1.1-0.2 2.1-0.6 2.8-1.6 0.7-1.1 0.9-2.3 0.1-3.4-0.7-0.9-1.4-1.9-2.4-2.5-1.6-1.2-3.4-2.2-5.1-3.2-2-1.2-3.7-2.6-4.9-4.6-3.9-6.5-0.2-15.1 7.3-16.5 2.2-0.4 4.4-0.3 6.6 0.1 2.7 0.5 5.4 1.1 8.1 1.7z"/>
	<path class="st0" d="m393.5 15.6c-1.3-0.8-2.2-1.5-3.2-2-1.1-0.6-2.2-1.2-3.4-1.7-0.5-0.2-1-0.3-1.5-0.3-1-0.1-2 0-2.5 1-0.5 0.9-0.3 1.9 0.3 2.7s1.3 1.5 2.1 2.1c1 0.8 2.2 1.5 3.3 2.3 1.7 1.3 3.4 2.7 5 4.1 3.2 2.9 4.6 11.1 0.4 15.3-2.6 2.7-5.8 4.1-9.5 4.1-3.8 0-7.5-0.3-11.3-0.4-0.2 0-0.4-0.1-0.7-0.2 1.6-4.2 1.7-8.5 1.5-13.1 0.8 0.6 1.3 1 1.8 1.4 1.5 1.2 3.2 2.1 5.1 2.5 2.3 0.4 3.9-0.6 4.4-2.6 0.2-1-0.1-1.9-0.7-2.5-1.2-1.2-2.5-2.2-3.8-3.3-1.5-1.2-3-2.1-4.4-3.4-4.5-3.9-5.8-10.8-3-16.5 1.2-2.4 3.4-3.9 6-4.6 2.5-0.6 5-0.2 7.4 0.2 2.9 0.4 5.7 1.1 8.9 0.7-1.5 4.6-2.6 9.1-2.2 14.2z"/>
	<path class="st0" d="m420.5 15.6c-1.3-0.8-2.2-1.5-3.2-2-1.1-0.6-2.2-1.2-3.4-1.7-0.5-0.2-1-0.3-1.5-0.3-1-0.1-2 0-2.5 1-0.5 0.9-0.3 1.9 0.3 2.7s1.3 1.5 2.1 2.1c1 0.8 2.2 1.5 3.3 2.3 1.7 1.3 3.4 2.7 5 4.1 3.2 2.9 4.6 11.1 0.4 15.3-2.6 2.7-5.8 4.1-9.5 4.1-3.8 0-7.5-0.3-11.3-0.4-0.2 0-0.4-0.1-0.7-0.2 1.6-4.2 1.7-8.5 1.5-13.1 0.8 0.6 1.3 1 1.8 1.4 1.5 1.2 3.2 2.1 5.1 2.5 2.3 0.4 3.9-0.6 4.4-2.6 0.2-1-0.1-1.9-0.7-2.5-1.2-1.2-2.5-2.2-3.8-3.3-1.5-1.2-3-2.1-4.4-3.4-4.5-3.9-5.8-10.8-3-16.5 1.2-2.4 3.4-3.9 6-4.6 2.5-0.6 5-0.2 7.4 0.2 2.9 0.4 5.7 1.1 8.9 0.7-1.5 4.6-2.6 9.1-2.2 14.2z"/>
	<path class="st0" d="m112.1 0.4c5 1.2 9.9 1.1 14.8 0.3 0 0.3 0 0.4-0.1 0.6-3.4 5.1-5.9 10.5-8.3 16.1-0.8 1.8-1.7 3.7-2.6 5.4-0.9 1.6-0.9 3.4-0.8 5.1 0 3.6 0.5 7.2 1.3 10.7 0.3 1.4 1 2.8 1.5 4.3h-16c0-0.2 0-0.4 0.1-0.5 1.6-3.8 2.1-7.9 2.2-12 0.1-1.6 0-3.3 0-4.9 0-0.6-0.1-1.4-0.5-1.8-1.8-2.3-2.8-5.1-4.1-7.7-2.4-4.9-4.8-9.8-7.2-14.7-0.1-0.2-0.1-0.4-0.3-0.7 5 1 9.9 1.1 14.8 0.2-0.3 7 0.6 11.6 2.9 15.3 2.2-5 2.4-10.2 2.3-15.7z"/>
	<path class="st0" d="m487.9 14.4c0.8-4.8 0-9.3-0.8-13.8 10.8 0.3 21.6 0.8 32.5-0.2-0.9 4.7-1.4 9.3-0.2 14.2-3.7-1.4-7-2.8-10.9-3.1-0.7 3.5-0.6 6.9-0.6 10.4 0 3.6 0 7.1 0.3 10.7 0.2 3.5 0.8 6.9 2 10.5-2.6-0.1-5.1-0.3-7.5-0.3s-4.9 0.2-7.4 0.4c0.1-0.4 0.2-0.8 0.3-1.1 1.1-2.9 1.6-5.8 1.8-8.9 0.3-5.6 0.6-11.2 0.8-16.9 0.1-1.5-0.1-3-0.1-4.8-3.7 0.4-6.8 1.5-10.2 2.9z"/>
	<path class="st0" d="m484.9 0.7c-1.3 4.6-0.8 9.1 0.1 13.8-3.6-1.4-7-2.8-10.9-3-0.1 1-0.3 2-0.3 2.9-0.1 3.6-0.3 7.2-0.2 10.8 0.1 4.8 0.2 9.6 1.4 14.2 0.3 1.2 0.7 2.3 1.1 3.5h-15c0-0.2 0-0.4 0.1-0.6 1.3-3.3 1.8-6.6 2-10.1 0.3-6.1 0.5-12.2 0.8-18.3 0-0.8-0.1-1.6-0.2-2.5-3.6 0.3-6.7 1.5-10.1 2.8 0.9-4.7 0-9.1-1-13.5 5.4 0.2 10.8 0.4 16.2 0.4 5.2 0.1 10.5-0.3 16-0.4z"/>
	<path class="st0" d="m339.7 0.5c-2.5 4.2-3.3 8.7-3.9 13.5-0.7-0.4-1.3-0.9-1.9-1.1-1.2-0.5-2.4-1.1-3.7-1.4-3.4-0.7-6.5 0.8-8 4-1.8 3.9-1.5 10 1.7 13.5 2.5 2.7 5.8 3.7 9.1 1.5 1-0.6 1.9-1.3 3-2.1 0.1 0.4 0.2 0.7 0.2 1 0.3 1.8 0.6 3.6 1 5.3 0.5 2.1 1.3 4 3 5.6-3.8 1.8-7.6 3.1-11.7 2.7-5.3-0.4-9.5-3-12.6-7.3-3.6-5.1-4.5-10.8-4.2-16.8 0.2-3.5 0.9-6.9 2.5-10.1 2.8-5.6 7.3-8.5 13.6-8.5 0.9 0 1.9 0.2 2.8 0.4 2.7 0.4 5.5 0.6 8.2-0.1 0.3-0.1 0.5-0.1 0.9-0.1z"/>
	<path class="st0" d="m128.6 43c1.1-2.7 1.2-5.4 1.3-8 0.2-4.9 0.5-9.8 0.5-14.6 0-6.6-0.1-13.1-1.4-19.9 4.5 1 9 1 13.4 0.1 0 0.3 0.1 0.5 0.1 0.7-1 4.6-1.2 9.3-1.4 13.9-0.2 4.7-0.2 9.4-0.3 14.2 0 0.9 0.1 1.8 0.2 2.7 0.2 1.1 0.4 1.3 1.4 1.3 1.1 0 2.2 0 3.3-0.2 2.7-0.3 5.3-1.1 7.5-2.8 0.2-0.2 0.5-0.3 0.7-0.4h0.3c-0.9 8.2-0.6 6.7 1 13h-26.6z"/>
	<path class="st0" d="m36.5 0.6c4.9-0.1 9.5 0.6 14.3-0.2-0.1 0.5-0.2 0.8-0.3 1.1-0.8 2.3-1.2 4.7-1.4 7.2-0.7 9-1 18 0.5 27 0.3 2.1 1.1 4.1 1.7 6.1 0.1 0.3 0.2 0.6 0.4 1.1h-15.1s-0.1-0.2 0-0.3c1.4-5.2 1.8-10.6 1.9-15.9 0.1-6.1 0-12.1-0.1-18.2-0.1-2.7-0.6-5.3-1.9-7.9z"/>
	<path class="st0" d="m278.9 28.2c-0.1-2 0.6-3.9 0-5.8-0.9 0.3-0.9 1.1-1.1 1.7-0.4 1.2-0.6 2.4-1 3.5-0.6 1.6-1.3 1.9-3 1.5-0.6 0.4-1.1 0.9-1.7 1.2-1.3 0.6-2.6 0.1-3.1-1.3-0.7-2-0.4-4 0.8-5.8 0.5-0.8 1.2-1.2 2.1-1.2h2.8c0 0.9-0.1 1.8-0.1 2.7s-0.2 1.8 0.2 2.7c0.8-0.3 0.9-0.9 1-1.4 0.3-1.2 0.6-2.4 1-3.5 0.6-1.8 1.5-2.2 3.3-1.5 0.4-0.4 0.7-0.9 1.2-1.2 0.9-0.8 1.9-0.9 3-0.5 1 0.4 1.1 1.4 1.1 2.3 0 1-0.2 2 0.4 3.1 0.3-0.3 0.7-0.4 0.8-0.7 0.4-1 0.8-2.1 1.2-3.1 0.2-0.5 0.2-1.1 0.5-1.7 0.8-1.9 2.1-2.5 4.3-1.9 0-0.4 0-0.8-0.1-1.2-0.3-1.7-0.3-3.5 0.2-5.2 0.1-0.5 0.4-1 0.6-1.4 0.4-0.6 0.9-0.9 1.6-0.8 0.7 0.2 1.2 0.7 1.2 1.5 0 0.7 0 1.5-0.2 2.2-0.4 1.6-1 3.1-1.4 4.7-0.3 1.3-0.4 2.7-0.4 4.1 0 1.3 0.5 1.5 1.6 0.8 0.2-0.2 0.5-0.3 0.8-0.6-0.7 2.8-2.2 3.4-3.8 1.9-1.8 2.5-3 2.6-4.6 1.1-0.4 0.5-0.8 1.1-1.3 1.5-1.4 1.2-2.8 0.7-3-1.1-0.1-0.9 0-1.8-0.1-2.7 0-0.6 0-1.4-0.7-1.4-0.4 0-1.1 0.5-1.3 1-0.4 1.1-0.6 2.2-0.9 3.4-0.1 0.5 0 1-0.1 1.4-0.1 1.4-0.1 1.4-1.8 1.7zm-5.9-2.4l-0.2-0.1c0-0.3 0-0.7-0.1-0.9-0.2-0.4-0.4-0.8-0.7-1.2-0.4 0.3-1.1 0.5-1.2 0.8-0.3 1.1-0.5 2.3-0.6 3.5 0 0.3 0.4 0.8 0.7 0.9s0.9-0.2 1.1-0.5c0.4-0.7 0.7-1.6 1-2.5zm16.2-4.3h0.1c0 0.3-0.1 0.6 0 0.8 0.2 0.4 0.4 0.9 0.8 1 0.2 0.1 0.8-0.3 0.9-0.7 0.4-0.9 0.7-1.8 0.9-2.7 0.1-0.5-0.1-1.1-0.7-1.2-0.6-0.2-1.1 0.1-1.3 0.6-0.3 0.8-0.5 1.5-0.7 2.2zm4.6-7.9c0.8-1.6 0.9-2.2 0.5-3.6-0.4 1.2-0.5 2.3-0.5 3.6z"/>
	<path class="st0" d="m297.5 26.8c-0.2 0-0.3-0.1-0.4-0.1-0.7 0.1-1.2-0.1-1.4-0.8-0.1-0.4 0.1-1 0.3-1.3 0.4-0.6 1.1-0.6 1.7-0.3 0.9 0.3 1.4 1.4 1.2 2.5-0.3 1.5-1.3 2.4-2.8 2.8-1.5 0.3-3 0.6-4.6 0.7-3.5 0.3-7.1 0.4-10.7 0.6-2 0.1-3.9 0.4-5.8 0.7-1.2 0.2-2.3 0.6-2.7 2 0.2 0.1 0.3 0.2 0.4 0.2 0.6 0 1.2 0.2 1.2 0.8 0 0.4-0.3 1-0.6 1.3-0.4 0.4-1 0.5-1.6 0.2-1.1-0.6-1.4-1.8-0.9-3.1 0.7-1.5 2.1-2.1 3.6-2.3s3-0.3 4.4-0.4c4-0.2 8-0.3 11.9-0.7 1.6-0.1 3.1-0.5 4.6-1 1.2-0.2 1.9-0.7 2.2-1.8z"/>
</svg>
