<?xml version="1.0" encoding="utf-8"?>
<!-- Generator: Adobe Illustrator 23.0.2, SVG Export Plug-In . SVG Version: 6.00 Build 0)  -->
<svg version="1.1" id="Layer_1" xmlns="http://www.w3.org/2000/svg" xmlns:xlink="http://www.w3.org/1999/xlink" x="0px" y="0px"
	 viewBox="0 0 266.6 109.5" style="enable-background:new 0 0 266.6 109.5;" xml:space="preserve">
<style type="text/css">
	.st0{fill:#312163;}
</style>
<path class="st0" d="M265.6,14c-0.9-0.5-2-0.6-3-0.9c-0.2-0.4-0.6-0.8-1-0.9c-1.5-0.3-3-0.5-4.5-0.8c-0.3-0.1-0.7-0.1-1-0.1
	c0.1-0.4,0.1-0.8,0.2-1.1c0.5-0.9,0.8-1.8,0.1-2.7c-0.7-1-1.7-0.9-2.6-0.6c-1.1,0.3-2.1,0.6-3.2,0.9c-0.2-1.9-0.9-2.4-2.7-1.8
	c-1.4,0.5-2.8,1.1-4.3,1.7c0.3-1.4,1.2-2.8-0.2-3.9c-1.4-1.1-2.6,0.1-3.9,0.6c0-0.1,0-0.1,0-0.2c0,0,0,0-0.1,0
	c0.1-1.3,0-2.7-1.4-3.1c-0.3-0.1-0.5-0.1-0.7-0.1c-1.3-0.1-1.9,1.1-2.6,2c-0.2,0-0.5,0-0.7,0c-1.9-0.1-3.6,0.7-4.3,2.2
	c-0.5,1.2-0.7,2.5-0.7,3.8c-0.1,1.8,0.8,3.3,2.6,4.2c-0.7,0.6-1.2,1.2-1.9,1.8c-0.1-0.5-0.1-0.8-0.2-1.2c-0.1-1,0-2.1-0.3-3
	c-0.4-1-1.1-2.1-1.9-2.6c-0.4-0.2-0.7-0.2-1.1-0.2c-0.9-0.1-1.8,0.5-2.6,1.2c-0.1,0.1-0.2,0.3-0.3,0.4c-0.8,1-0.6,1.4,0.7,1.7
	c0.8,0.2,1.6,0.7,2.1,1.3c1,1.3,0.5,3.8-0.5,5.1c0.2-1.1,0.4-2.3,0.4-3.5c0.1-1.7-0.7-2.5-2.4-2.5c-0.7,0-1-0.2-1.3-0.8
	c-0.6-1.6-1.9-2.4-3.3-2.4c-0.8-0.1-1.7,0.2-2.5,0.7c-2,1.4-3.4,3.3-3.7,5.7c-0.1,1.2-0.6,1.7-1.6,2.1c-1.1,0.5-1.7,2-1.4,2.9
	c0.3,0.8,1.4,1.3,2.5,1.2c0.3,0,0.5,0,0.8,0c0,0,0.1,0,0.1,0c0.1,1.8-1.4,1.6-2.3,2.1c-0.2-0.6-0.2-1.3-0.6-1.6
	c-0.4-0.3-1.2-0.2-2-0.3c0.3-0.8,0.6-1.7,0.9-2.5c0.5-1.2,1.3-2.1,2.3-2.9c0.8-0.6,1.6-1.4,1-2.6c-0.8-1.4-0.4-2.9,1.1-3.5
	c1.1-0.5,2.2-1.1,3.3-1.7c0.7-0.4,1.1-1.1,0.7-1.8c-0.3-0.5-1-0.9-1.6-1c-0.1,0-0.2,0-0.4,0c0,0,0,0,0,0c-0.6-0.1-1.2,0.2-1.9,0.3
	c-0.1-0.2-0.1-0.3-0.2-0.5c-0.7-1.7-2-2.5-3.7-2.5c-0.1,0-0.1,0-0.1,0c-0.1,0-0.2,0-0.2,0c-1.6,0-2.8,0.9-3.3,2.4
	c-0.1,0.3-0.3,0.6-0.5,0.9c-0.7,1.2-0.3,1.8,1.1,2c0.6,0.1,1.3,0.4,1.8,0.7c0.5,0.3,0.9,0.8,1.4,1.1c0.6,0.3,0.7,0.7,0.5,1.3
	c-0.6,1.3-1.1,2.7-1.6,4c-0.8,2.1-1.5,4.1-2.3,6.3c-0.5-0.9-1.1-1.3-2.2-1.2c-0.2,0-0.5,0-0.8,0c1.1-0.7,2-1.1,2.7-1.7
	c2-1.6,2.7-4,3.3-6.2c0.6-2.1-1.1-3.9-3.3-3.8c-0.1,0-0.1,0-0.2,0c-0.1,0-0.1,0-0.2,0c-0.7,0-1.4,0.2-2.1,0.4
	c-0.1-0.5-0.2-1-0.4-1.5c-0.2-0.5-0.4-1-0.7-1.5c-0.6-0.9-1.2-1.4-1.9-1.3c-0.5-0.1-1.1,0.1-1.7,0.7c-1,0.9-1.8,2.1-2.4,3.3
	c-0.9,1.8-1,3.8-0.6,5.8c0.2,0.8,0,1.2-0.9,1.4c-0.6,0.1-1.2,0.6-1.7,1c-1.3,1.2-1.6,2.9-0.6,3.6c0.7,0.5,1.5,0.9,2.3,1.1
	c1.7,0.3,3.4,0.5,5,0.7c0.2,0.9,0.4,1.8,0.6,2.8c0.3,1.2,0.4,1.8,0.2,2.2c0-0.1,0-0.1,0-0.2c-0.7-3.9-1.5-4.6-5.5-4.9
	c-0.6-0.1-1.2-0.3-1.8-0.5c-1.8-0.8-2.3-2.7-1-4.2c0.5-0.5,1-1,1.5-1.5c0.3-0.3,0.5-0.7,0.5-1.1c0.1-2-0.5-3.7-2.2-4.9
	c-0.4-0.3-0.7-0.4-1-0.3c-0.5-0.1-0.9,0.1-1.1,0.7c-0.4,0.9-0.8,1.9-1.2,2.7c-0.3,0.6-0.3,1,0.2,1.6c1,1.2,1.6,2.5,1.3,4.1
	c-0.3,1.4-1.7,3-2.9,3.6c0.6-0.9,1.3-1.8,1.9-2.9c0.7-1.1,0.9-2.4,0.1-3.6c-0.7-1-1.6-1.4-2.7-1.3c-0.3,0-0.6,0-0.9,0.1
	c-0.1-0.6-0.2-1.2-0.3-1.8c-0.3-1.9-1.9-3.4-3.4-3.3c-0.3,0-0.5,0-0.8,0.1c-1,0.3-1.9,0.7-2.7,1.3c-1.6,1.1-2.7,2.6-2.9,4.7
	c-0.4-0.2-0.6-0.4-0.9-0.6c-0.6-0.4-1.2-0.5-1.7-0.5c-1.3-0.2-2.5,0.7-2.7,2.4c-0.2,1.6,0.2,3,1.4,4.2c0.9,0.9,1.8,1.6,2.8,2.5
	c0.1-0.1,0.1-0.1,0.2-0.2c0.1,0.1,0.1,0.1,0.2,0.2c1.2-1.1,2.4-2.2,3.7-3.2c0.6-0.4,1.1-0.7,1.5-0.7c0.7,0.1,1.3,0.6,1.8,1.6
	c0.5,1,0.9,2.1,1.4,3.2c0.1-0.1,0.2-0.1,0.3-0.2c0,0.1,0.1,0.1,0.1,0.2c0.6-0.5,1.3-0.7,1.9-0.7c0.7,0.1,1.4,0.4,2,0.9
	c1,0.8,1.1,1.8,1,3c0-1.7-0.8-2.6-2.4-2.5c-0.2,0-0.5,0-0.7,0c-0.8,0.1-1.6,0.4-2.5,0.7c-0.1-0.6-0.2-1.2-0.3-1.8
	c-0.1-0.7-0.3-1.3-0.5-1.9c-0.5-1.1-1.6-1.8-2.4-1.6c-0.3,0-0.7,0-0.9,0.2c-1.3,1-2.3,2.2-3.7,3.5c0.8,0.2,1.2,0.3,1.6,0.4
	c2.1,0.6,3.4,3,2.5,4.9c-0.6,1.2-1.5,2.2-2.2,3.3c-0.2,0.3-0.5,0.7-0.8,1.1c0.6,0.1,0.9,0.3,1.2,0.3c0.4,0,0.8,0,1.3,0
	c0.9,0,1.5,0.7,1.6,1.2c-0.4-0.4-1-0.8-1.5-0.9c-0.1,0-0.3,0-0.4,0c0,0,0,0,0,0c-0.6-0.1-1.3,0.2-2,0.4c-0.4-1-0.5-2,0.7-2.7
	c0.3-0.2,0.5-0.5,0.8-0.8c1.2-1.5,1.3-3.6,0.3-5c-0.5-0.7-1-1.1-1.8-1c-0.3,0-0.6,0-1,0.2c-0.3,0.1-0.6,0.2-0.9,0.3
	c-0.9-1.4-1.8-2.9-3.7-2.9c-0.1,0-0.1,0-0.2,0c-0.1,0-0.1,0-0.2,0c-3.3,0.1-5.6,1.5-6.3,4.9c-0.6-0.2-1.1-0.3-1.6-0.2
	c-1.8-0.1-3,1-4.2,2.3c-0.8-1.4-1.9-2-3-1.9c-0.8,0-1.7,0.3-2.6,0.9c-2.1,1.5-2.9,3.8-3.2,6.2c-0.3,2.6,0,5.2,0.8,7.4
	c-0.8,1-1.5,1.8-2,2.6c-0.6,1.1-0.4,2.8,0.4,3.6c0.5,0.5,1.2,0.7,1.9,0.7c0.6,0,1.3-0.1,2-0.5c0.6-0.3,1.2-0.6,2.1-1c0,0,0,0,0,0
	c0,0,0-0.1,0-0.1c0.1-0.1,0.2-0.1,0.3-0.2c0.3,2,0.6,3.9,0.7,5.9c0,0.5-0.3,1.1-0.7,1.4c-1.6,1.6-3.2,3.2-5.1,4.5
	c-4.3,3.1-8.3,6.5-11.7,10.5c-1.7,2-3.5,3.9-5.3,5.8c-2.1-2.4-4-5-6.3-7.2c-4.5-4.1-9.1-8-13.8-11.9c-4.1-3.4-5-6.5-2.8-10.3
	c1.1,0.4,2.2,0.9,3.3,1.1c0.3,0,0.5,0,0.8,0c1.5,0.1,2.3-0.9,2.4-2.5c0-2-1.3-3.1-2.8-4.1c0.1-0.2,0.1-0.3,0.2-0.4
	c1.9-3.7,1.1-9.7-1.9-12.7c-1.1-1-1.9-1.5-2.8-1.4c-0.9-0.1-1.7,0.4-2.7,1.5c-0.2,0.2-0.4,0.5-0.6,0.8c-1-1.8-2.4-3-4.3-2.8
	c-0.3,0-0.6,0-0.9,0.1c-0.6-1.1-1.3-2-1.9-3c0.4,0.5,0.9,0.9,1.3,1.4c0.1-0.1,0.1-0.2,0.2-0.2c0.1,0.1,0.1,0.2,0.2,0.2
	c1.4-1.9,1.9-3.9,1.3-6.1c-0.2-0.7-0.7-1.3-1.4-1.2c-0.2,0-0.3,0-0.5,0c-2.2,0.6-3.8,1.9-5.2,3.8c-0.2,0-0.3,0-0.4,0
	c-1.7,0-3.1,0.7-4.1,2.4c-0.2,0.3-0.7,0.4-1.1,0.4c-1.3,0-2.4,0.4-3.1,1.5c-0.7,1.1-0.9,2.3-0.1,3.4c0.2,0.3,0.4,0.6,0.6,0.8
	c0,0,0,0,0,0.1c-1.1-1-1.7-2.2-1.6-3.7c0.2-2.3,2.2-2.8,4.3-2.8c-0.6-1.8-1.7-2.8-2.9-3.7c-0.6-0.5-1.2-0.7-1.7-0.6
	c-0.8-0.1-1.5,0.4-2,1.5c-0.5,1.1-0.7,2.3-1.1,3.5c0,0,0,0-0.1,0c-0.8-0.4-1.5-0.5-2.1-0.5c-2.1-0.1-3.6,1.9-3,4.1
	c0.2,1.1,0.4,2.2,0.5,3.3c-0.3,0-0.6,0-0.9,0c-1.3,0-1.9,0.4-2.6,1.5c-0.8,1.5-0.1,4,1.4,4.8c0.3,0.2,0.8,0.3,1.1,0.2
	c0.2,0,0.4,0,0.6,0c0.6-0.4,1.2-0.9,1.8-1.5c0.2,0.1,0.5,0.3,0.8,0.6C79,37,78.8,37,78.7,37.1c-0.8,0.3-1.6,0.7-1.5,1.6
	c0.2,0.9,0.9,1.2,1.7,1.1c0.2,0,0.4,0,0.7,0c0.7-0.1,1.3-0.3,2-0.4c0.4-0.1,0.8-0.2,1.1-0.2c0.5,0,0.9,0.2,1.2,0.8
	c-0.7-0.1-1.3-0.1-1.9-0.1c-4.4-0.1-7,2.2-8,6.8c-0.3-1.2-0.6-2.3-0.9-3.3c-0.2-0.7-0.6-1-1-0.9c-0.3-0.1-0.7,0-1.1,0.5
	c-0.3,0.3-0.5,0.7-0.8,1c0,0,0,0,0,0c0.3-0.5,0.5-1.2,0.9-1.6c0.4-0.5,1-0.8,1.6-1.3c-0.8-0.6-1.6-1.4-2.4-1.8c-2-1.1-3.8-3-6.2-2.9
	c-0.6,0-1.3,0.1-2,0.3c0-0.5,0-0.9-0.1-1.3c-0.1-1.2-1.1-2.3-2.2-2.5c-0.8-0.2-1.4-0.3-1.8-0.2c-0.9-0.1-1.2,0.3-1.9,1.3
	c-0.4,0.6-0.8,0.9-1.3,0.9c-0.2,0-0.4-0.1-0.7-0.2c-1.3-0.5-2.6-0.8-4-0.8c-0.5,0-1,0-1.5,0.1c-0.5,0-1-0.3-1.2-0.6
	c-0.2-0.3-0.3-0.7-0.5-1c0.5,0.9,1.2,1.3,2.1,1.3c0.4,0,0.8,0,1.2-0.1c0.5-0.1,1-0.3,1.5-0.3c0.6,0,1.1,0.3,1.7,0.8
	c0.3,0.3,0.8,0.5,1.2,0.4c0.5,0.1,1-0.1,1.3-0.6c0.5-0.9-0.3-1.2-0.9-1.7c0,0,0-0.1-0.1-0.4c1.3,0.1,2.7,0.2,4,0.2
	c1.8,0.1,2.5,0.8,2.8,2.5c0.1,0.4,0.4,1.1,0.7,1.2c0.8,0.1,1.8,0.4,2.6,0.3c0.5,0,0.9,0,1.3-0.2c1.7-0.9,3.5-0.7,5.3-1
	c0.9-0.2,1.4-0.5,1.4-1.4c0-1.3,0.8-2,1.8-2.5c0.6-0.3,1.3-0.2,1.8-0.2c-0.1-1.6-0.3-3-0.3-4.5c0-1.7,0.9-2.7,2.5-2.8
	c0.4,0,0.7,0,1.1,0c0.5,0,1,0,1.5,0c0,0,0,0,0,0c0.1,0,0.3,0,0.4,0c0.2-0.7,0.3-1.5,0.6-2.3c0.5-1.4,1.5-2.2,2.7-2.2
	c0.7,0.1,1.4,0.4,2,1c0.9,0.9,1.7,1.9,2.5,2.8c0.4,0.4,0.6,0.7,0.9,0.5c0.3,0.1,0.5,0,0.9-0.5c0.4-0.6,1-1.2,1.4-1.8
	c1.2-1.5,2.4-3,2.2-5.1c-0.1-1.2-0.9-2-2.1-2c-0.3,0-0.6,0-1,0.1c-0.9,0.3-1.7,0.8-2.6,1.3c-0.1-2.7-1.1-4.9-3.7-6.2
	c-0.7-0.4-1.5-0.6-2.2-0.5c-0.6,0-1.3,0.1-1.9,0.4c-1.2,0.6-1.9,1.6-1.8,3c0,0.5,0,1,0,1.5c-1.7,0.6-3.9,0.4-4.5,2.6
	c-0.5,2,0.4,3.5,1.7,4.9c0,0-0.1,0.1-0.1,0.1c-0.9-0.7-1.8-1.5-2.7-2.3c0,0-0.1,0.1-0.2,0.2C74,19,74,18.9,73.9,18.9
	c-0.1,0.1-0.4,0.3-0.6,0.6c-1,1.2-2,1.9-3.5,2c-0.1,0-0.2,0-0.3,0c0,0-0.1,0-0.1,0c-0.1,0-0.2,0-0.3,0c-2.3-0.2-3.9,1.5-4.1,3.9
	c0,0.4-0.1,0.8-0.1,1.2c-0.2-0.1-0.3-0.2-0.2-0.3c0.3-1.6,0.7-3.1,1.1-4.6c0-0.1,0.3-0.3,0.5-0.3c1.2-0.2,2.4-0.5,3.6-0.4
	c1.3,0.1,2.2-0.5,3.1-1.3c0.8-0.7,0.9-1.5,0.2-2.2c-0.9-1-2-1.9-2.9-2.8c-0.2,0-0.3-0.2-0.2-0.4c0.7-3.5-0.5-6.5-2.3-9.4
	c-0.6-0.9-1.4-1.3-2.3-1.2c-0.8-0.1-1.6,0.3-2.2,1.1c-0.8,1.1-1.4,2.2-1.1,3.8c-0.6-0.4-1.2-0.6-1.8-0.5c-0.8,0-1.6,0.3-2.3,0.6
	c-1.8,0.9-2.2,1.7-1.5,3.5c1,2.8,2,5.8,5.1,7.2c0,0,0,0.1,0,0c-0.8,0.3-1.5,0.7-2.3,1c-0.2-0.8-0.3-1.6-0.6-2.3
	c-0.8-1.8-1.8-3.5-2.6-5.3c-0.4-0.9-1-2.4-0.6-2.9c1-1.2,2.4-2.1,3.8-2.7c0.8-0.3,1.1-0.6,0.9-1.3c-0.5-2.2-2.1-3.5-4.1-4.3
	c-0.4-0.2-0.9-0.2-1.3-0.2c-1.2-0.1-2.4,0.7-2.8,2c-0.1,0.5-0.2,1-0.3,1.1c-1.1,0.3-2,0.4-2.7,0.7c-1.4,0.6-1.4,1.6-0.1,2.4
	c1.2,0.7,2.4,1.4,3.6,2.1c1,0.6,1.6,1.4,1.5,2.7c-0.9,0.3-1.3,0.6-1.3,1c-0.4-2-1.5-3.6-3.2-4.9c-0.9-0.7-1.9-1.1-2.9-1
	c-1.3-0.1-2.5,0.7-2.8,2.6c0,0.3-0.2,0.5-0.3,0.8c-0.2,0-0.4,0-0.5,0c-2.7,0-3.9,1.9-2.9,4.4c0.6,1.5,1.3,2.8,2.9,3.9
	c-1.6-0.8-3.2-2.7-3.5-4C39.1,13.5,39,12,40.3,11c0.8-0.6,1.9-0.9,3.1-1.5c-0.6-0.7-1.1-1.5-1.8-2.2c-0.6-0.6-1.2-0.8-1.8-0.7
	c-0.7-0.1-1.3,0.2-1.9,0.9c-1.2,1.4-1.6,3.2-1.5,5.1c0,0.3,0,0.7-0.1,1.2c-0.6-0.6-1-1.1-1.4-1.6c0.3-0.5,0.5-0.9,0.8-1.3
	c1-1.4,1.5-3,1.3-4.8c-0.2-2.3-1.8-4.5-4.1-4.3c-0.4,0-0.9,0-1.4,0.2c-0.8-1.2-1.8-2.3-3.4-1.9c-1.6,0.4-0.9,1.9-1.1,3
	c-1-0.3-1.9-0.7-2.9-1c-1.4-0.3-2.2,0.5-1.9,1.9c0.2,0.9,0.6,1.8,0.8,2.6c-1.7-0.6-3.4-1.3-5.2-1.8c-1.4-0.4-2.2,0-2.8,1.2
	c-1.4-0.1-2.7-0.3-4-0.2c-0.7,0.1-1.6,0.6-1.9,1.2C8.9,7.3,9.5,8.2,9.7,8.8C9.8,9,10,9.2,10.2,9.4C10,9.5,9.8,9.7,9.6,9.7
	C8.5,9.8,7.4,9.7,6.3,10c-0.9,0.2-1.9,0.5-2.6,1.1C3.3,11.6,3,12,2.2,12c-0.4,0-0.8,0.1-1.1,0.4C0.7,12.9,0,13.5,0,14.1
	c0,0.5,0.8,1.2,1.4,1.3c0.9,0.2,1.8,0.1,2.7,0.1c0.5,1.8,2,1.9,3.4,2.2c0.1,1.6,0.2,1.7,2.3,2.3c0,0.1-0.1,0.2-0.1,0.3
	C9.4,21,8.8,21.8,9,22.2c0.4,0.6,1.2,0.9,1.9,1.1c0.4,0.1,1-0.1,1.5-0.1c0.7-0.1,1.5-0.3,2.2-0.1c2.8,0.8,5.6,0.7,8.3,0
	c2.7-0.7,5.1-1.7,4.9-5.2c0.3,0.1,0.6,0.2,0.8,0.2c-1.6,2.4,1,2.8,2,4c-1.3,0.1-2.5,0.1-3.6,0.4c-1.3,0.3-2.7,0.7-3.9,1.1
	c0,0,0,0.1,0,0.1c0,0,0,0-0.1,0c-1.2,0.5-2.4,1-3.5,1.7c-1.8,1.2-1.6,3.4,0.4,4.3c0.6,0.3,1.3,0.5,2,0.7c0,0,0,0.1,0,0.1
	c0,0,0,0,0.1,0c0,0.1,0,0.1-0.1,0.2c0,0.4-0.1,0.8-0.3,1.2c0,0.8,0.4,1.3,1.2,1.5c0.6,0.1,1.2,0.2,1.8,0.2c0.9,0,1.8-0.1,2.7-0.6
	c2.5-1.3,4.5-3.1,6.2-5.4c0.1,0.1,0.2,0.1,0.4,0.2c-0.7,0.9-1.3,1.7-2.1,2.6c-1.4,1.6-1.3,2.4,0.4,3.7c0.4,0.3,0.8,1,0.8,1.5
	c-0.1,1.8,0.9,3.1,2.7,3.3c0.5,0,0.9,0.1,1.3,0.1c2.6,0.1,4.9-0.8,6.7-2.8c0.3-0.4,0.7-0.7,1-0.8c0.3,0,0.6,0.2,0.9,0.5
	c-0.1,1.9-0.2,3.9-0.3,6c-0.2,2.2,0.7,4.4,2.1,4.8c0.6,0.2,1.3,0.2,2.1,0.2c1.9,0.1,4-0.6,5.1-2.6c0.7-1.3,1.3-2.6,1.7-4
	c0.4-1.2,0.8-1.8,1.4-1.9c0.3,0,0.5,0.1,0.9,0.3c-0.8,1.2-2,2.3-2.5,3.6c-0.7,1.7-1.3,3.3-3,4.3c-0.7,0.5-0.8,1.3,0,1.8
	c1,0.6,2.1,1.1,3.2,1.2c0.3,0,0.5,0,0.7,0c1.5,0,1.6-0.5,0.8-2.1c-0.3-0.6-0.5-1.2-0.7-1.8c0,0,0.1,0.1,0.1,0.1
	c0.7,1.8,2,2.5,3.9,2.5c0.1,0,0.2,0,0.2,0c0.1,0,0.1,0,0.2,0c0.9,0,1.8,0,2.7,0c0.9,0,1.7,0,2.6,0c1.3,2.9,1.5,3.1,3.4,3.7
	c0.5,0.2,0.9,0.2,1.3,0.2c0.8,0.1,1.2-0.3,1.6-1.3c0-0.1,0.1-0.2,0.1-0.3c0.9,1.3,1.9,1.6,3,1.6c1.3,0.1,2.6-0.5,3.8-0.6
	c0.4,1.2,0.6,2.6,1.3,3.5c0.7,1,1.4,1.7,1.5,3.1c0.2,2.4,2.2,3.3,4.4,3.7c0.9,2.5,1.4,3,3.4,3c0.1,0,0.1,0,0.2,0c0.1,0,0.1,0,0.2,0
	c3.6,0.1,7.7-4.4,7.7-7.2c0-0.4,0.3-1.1,0.6-1.1c3.4-0.7,6.7-0.5,9.6,1.5c2.3,1.6,4.4,3.5,6.5,5.4c3.9,3.5,7.7,7.1,11.5,10.7
	c1.6,1.5,3,3.2,4.7,5c-0.6,0.5-1,0.7-1.2,1c-0.9,1.3-1.9,1.2-3.4,0.7c-4-1.2-8.1-2.3-12.3-3.3c-1.7-0.4-2.9-1-3.9-2.4
	c-0.9-1.3-2.1-2.6-3.3-3.6c-4.5-3.6-9.5-5.7-15.3-4.6c-0.7,0.1-1.4,0.6-1.8,1.1c-0.2,0.2,0.4,1.2,0.9,1.6c2.6,2.4,5.6,4,8.8,5.3
	c1.1,0.5,2.3,0.9,3.2,1.2c-3.8,0.6-7.7,1.1-11.6,1.9c-4,0.8-7.7,2.2-10.7,5c-0.8,0.7-1.5,1.6-2.3,2.5c4.4,1.7,8.5,1.3,12.5,0.3
	c4-1.1,7.9-2.4,11.9-3.7c-3.4,3.1-5.4,7-7.5,10.8c-0.7,1.3-1.1,2.9-1.6,4.4c-0.2,0.7,0,1.1,0.8,0.8c3.8-1.4,7.1-3.6,9.6-6.9
	c0.8-1,1.4-2.1,2.1-3.2c0.6-1,1.1-2.1,1.7-3.3c0,0.3,0,0.3,0,0.4c-0.9,5-1.5,10,0.5,14.9c0.1,0.3-0.2,0.7-0.4,1
	c-0.8,1.2-2.2,2.3-2.5,3.6c-0.3,1.5,0.3,3.2,0.5,4.8c0.2,0,0.3,0,0.5,0c0.2-0.4,0.5-0.7,0.7-1.1c1.5-3.2,3.5-6.1,6-8.7
	c5.2-5.4,10.9-9.9,18.2-12.2c2.2-0.7,4.1-0.6,6,0.4c0.5,0.3,1,0.6,1.6,0.8c3.7,1.5,6.9,3.6,9.9,6.3c2,1.8,3.6,3.8,4.3,6.4
	c0.3,1.2,0.9,2.3,1.4,3.4c0.1,0,0.2,0,0.4,0c0.3-0.6,0.6-1.1,0.9-1.7c0.9,1.5,1.9,3.1,2.9,4.8c0.1-0.1,0.2-0.2,0.2-0.3
	c1.3-2.9,1.6-5.6-1.4-7.7c-0.3-0.2-0.5-0.7-0.5-1c0.1-1.3,0.5-2.6,0.6-3.8c0.1-1.6,0.1-3.3,0-4.9c-0.1-1.3-0.5-2.5-0.8-3.8
	c0.1,0.1,0.2,0.1,0.2,0.1c0.2,0.4,0.4,0.8,0.6,1.2c2.3,4.5,5.4,8.2,9.8,10.9c0.7,0.5,1.6,0.8,2.4,1.1c1.2,0.4,1.7,0,1.3-1.2
	c-1.2-3.7-2.9-7.1-5.2-10.3c-1.2-1.6-2.3-3.2-3.3-4.5c3.7,1.2,7.5,2.5,11.4,3.6c4,1.1,8,0.4,12-0.3c-6.8-7.1-15.5-8.5-24.8-8.9
	c0.4-0.3,0.9-0.4,1.3-0.5c4.1-1.5,8.2-3.1,11.2-6.4c0.4-0.4,0.5-1.1,0.8-1.6c-0.5-0.2-0.9-0.4-1.4-0.6c-0.2-0.1-0.5-0.2-0.7-0.2
	c-4.1-1.2-7.8-0.2-11.3,2c-2.8,1.9-5.4,4.1-7.4,6.8c-0.4,0.5-1.1,0.9-1.7,1c-3.6,0.3-7,1.4-10.3,2.6c-3.4,1.2-3.4,1.2-5.8-1.5
	c0-0.1-0.1-0.1-0.1-0.3c4.5-5.4,9.7-10.1,15-14.8c2.3-2,4.4-4.1,7.2-5.5c2.4-1.2,4.9-2,7.6-1.2c0.2,0.1,0.4,0.2,0.6,0.3
	c0,0.1-0.1,0.2-0.1,0.3c0.1,0.1,0.2,0.2,0.2,0.3c0.6,3.3,2.5,5.6,5.6,6.9c0.8,0.3,1.6,0.5,2.2,0.5c1.8,0.1,2.9-0.9,3.5-3
	c2.6-0.2,4.3-1.3,4.4-2.9c0.1-1,0-2.1-1-2.7c-0.8-0.5-1.9-0.7-2.7-1c0.8-0.6,1.8-1.3,2.6-2c1.8-1.7,0.9-4.3-1.8-5.1
	c-0.9-0.3-1.9-0.4-2.8-0.6c-0.3-1.1,0.4-1.3,1-1.5c0.2,0.2,0.5,0.6,0.8,0.8c0.3,0.3,0.6,0.6,0.9,0.8c1.6,0.8,2.7,1.9,2.9,3.7
	c0.1,1.4-1,2.2-2,3c-0.2,0.2-0.4,0.3-0.7,0.6c0.7,0.3,1.4,0.5,1.9,0.9c0.4,0.3,0.8,0.4,1.2,0.3c0.6,0.1,1.1-0.2,1.4-0.9
	c0.6-1,0.9-2.2,1.3-3.1c0.7,0,1.5,0,2.2,0c0.8,0,1.5,0,2.3-0.1c0.9-0.1,1.8-0.2,2.1-1.3c1.1,1.3,1.5,1.6,2.6,1.6
	c0.4,0,0.8,0,1.5-0.1c0.2,0.4,0.4,0.8,0.7,1.1c0.6,0.6,2,0.8,3.4,0.8c1.5,0,3.1-0.3,3.7-0.9c0.2-0.2,0.4-0.6,0.3-0.9
	c-0.7-1.8-2.3-2.5-3.9-3.1c-0.1,0-0.2,0-0.3,0c0,0-0.1,0-0.1,0c-0.4-0.2-1.3,0.8-2,1.3c0.1-0.7,0.3-1.5,0.4-2.2
	c0.7,0.1,1.3,0.3,2,0.3c0.9,0.1,1.9,0.2,2.8,0.1c1.7,0,3.4-0.2,4.6-1.4c-0.1,0.3-0.3,0.6-0.4,0.8c-0.5,0.9-0.3,1.3,0.7,1.3
	c0.1,0,0.2,0,0.4,0c0,0,0,0,0,0c0.9,0,1.8,0,2.6-0.3c0.6-0.2,1.4-0.5,1.7-1c0.2-0.3-0.4-1.2-0.8-1.7c-0.6-0.8-1.6-1.4-1.9-2.3
	c-0.8-2-1.4-4-3.6-5.4c0.2,0,0.4-0.1,0.6-0.1c1,1.2,2.5,2.4,2.9,3.8c0.7,2.6,2.2,3.9,4.7,4.4c0.5,0.1,1,0.1,1.4,0.1
	c2.6,0.2,4-1.5,3.7-4.5c-0.2-2.2,0-4.5,0-6.8c0.3,0,0.7-0.2,1.2-0.3c0.3,0,0.5,0.2,0.7,0.5c1.2,2,3.3,2.5,5.3,2.9
	c0.8,0.2,1.6,0.3,2.2,0.2c2.1,0,3.1-1.4,3.3-4.1c0-0.4,0.4-0.8,0.7-1.1c1.2-1.1,1.3-2.3,0.2-3.5c-0.7-0.7-1.4-1.3-2.2-2.1
	c0.3-0.2,0.6-0.4,0.9-0.6c2,2.7,4.2,4.9,7.6,5.7c0.5,0.1,1,0.1,1.5,0.1c0.5,0,1,0,1.5-0.1c1.1-0.2,1.4-1.1,1-2.1
	c-0.1-0.2-0.2-0.5-0.3-0.7c0.9-0.3,1.9-0.4,2.6-0.8c0.8-0.5,1.8-1.3,1.8-2c0-0.8-0.8-1.7-1.4-2.4c-0.2-0.3-0.8-0.4-1.2-0.5
	c-1.4-0.4-2.7-0.8-4.1-1.3c0.4-0.2,0.9-0.4,1.3-0.5c0,0,0.1,0,0.1,0c0.6,0.1,1.1,0.3,1.6,0.5c0,0,0-0.1,0.1-0.1
	c0.7,0.2,1.4,0.5,2.2,0.6c2.2,0.3,4.4,0.8,6.3-0.9c0.1-0.1,0.5,0.1,0.7,0.1c1.2,0,2.4,0.1,3.5-0.1c1.2-0.2,1.5-1.3,0.8-2.2
	c-0.2-0.3-0.5-0.5-0.7-0.8c1-0.5,2.2-0.8,1.1-2.3c0.4,0,0.6-0.1,0.9,0c1.4,0.1,2.3-0.8,3.4-1.5c1-0.6,2.6-0.4,3.7-0.9
	C266.9,16.1,266.8,14.7,265.6,14z M262.3,13.7c-1.1,0.4-1.9,0.8-2.8,1.1c-0.1,0.1-0.4-0.1-0.5-0.2c-1-0.6-1.9-1.2-2.9-1.8
	C256.7,11.7,260.4,11.9,262.3,13.7z M241.3,23.9c-0.5,0.2-1,0.3-1.5,0.3c-1.7-0.1-3.1-0.9-4.6-0.8c0,0-0.1,0-0.1,0
	c0.7-0.5,1.6-0.9,2.1-1.6c0.7-1-0.3-1.5-1-2.2c0.8-0.2,1.4-0.3,2.1-0.5C237.4,21.8,239.4,22.7,241.3,23.9z M218.9,25.5
	c0-0.2,0.1-0.4,0.1-0.5c0.7,0.2,1.4,0.3,2.1,0.5c0,0.1-0.1,0.3-0.1,0.4C220.3,25.7,219.6,25.6,218.9,25.5z M225.9,32.3
	c0.4,0.6,0.2,1.1-0.3,1.1c-0.1,0-0.1,0-0.2,0c-1.2-0.2-2.3-0.6-3.5-0.9c0-0.1,0-0.3,0-0.4c0.9-0.2,1.9-0.5,2.8-0.6
	C225.2,31.6,225.7,32,225.9,32.3z M235,24c-0.3,0.1-0.5,0.2-0.6,0.3c-3.1-0.9-6.4-1.2-9.3-2.9c-0.3-0.1-0.4-0.4-0.6-0.6
	c0.3-0.2,0.5-0.4,0.8-0.5c1.1-0.2,2.3-0.2,3.5-0.4c3.9-0.8,7.8-1.8,11.8-2.5c0.6-0.1,1.1-0.1,1.7-0.1c0.7,0,1.3,0.1,1.7,0.1
	c-5.3,1.2-10.9,2.4-16.6,3.7c0,0.1-0.1,0.3-0.1,0.4C229.7,22.3,232.2,23.1,235,24z M236.7,14.8c0.3,0.4,0.6,0.8,0.7,1.2
	c0.2,0.8,0.1,1.5-1,1.6c-0.6,0.1-1.1,0.2-1.7,0.4c0.1-1.5-0.3-1.8-2.8-2.5c0.2-0.3,0.4-0.5,0.7-0.7c0.7,0.5,1.4,0.7,2.1,0.7
	C235.4,15.4,236,15.3,236.7,14.8z M237.9,2.6c0.8,1.2,0.3,2.5-1.2,3.5c-0.1-0.5-0.3-0.9-0.5-1.4c-0.5-1-0.1-2.2,1-2.6
	C237.4,2.3,237.7,2.4,237.9,2.6z M235.2,5.5c-0.6,0.3-1.3,0.7-1.9,0.8c0,0-0.1,0-0.1,0c-0.4,0-0.7-0.1-0.8-0.3
	c-0.3-0.6-0.4-1.4,0.5-1.8c0.3-0.1,0.5-0.2,0.7-0.2C234.2,4.1,234.7,4.6,235.2,5.5z M232.3,14c-0.4,0.5-0.9,1-1.3,1.5
	c-1.2,1.4-2.4,2.8-3.6,4.2c-0.1-0.1-0.3-0.3-0.4-0.4c1.7-1.9,3.3-3.7,5-5.6C232.1,13.8,232.2,13.9,232.3,14z M221.7,21.8
	c-0.9,0.7-1.9,1.5-2.9,2.3c-0.4-0.4-0.7-0.7-1.1-1.1c1.3-0.5,2.6-0.9,3.8-1.4C221.6,21.7,221.6,21.7,221.7,21.8z M218.2,17.1
	c0.3,0.1,0.6,0.4,1,1c-0.7,0.1-1.3,0.1-2.1,0.2C217.5,17.6,217.9,17.2,218.2,17.1z M218.4,14.4c0.1,0.3-0.1,0.9-0.4,1.1
	c-0.5,0.4-1.1,0.8-1.7,1.2c-0.5-1.2,0.2-2.6,1.4-2.8C217.9,14.1,218.3,14.3,218.4,14.4z M212.1,31c0.6-0.8,1.2-1.2,1.8-1.2
	c0.3,0,0.5,0.1,0.8,0.2c-0.6,0.8-1.3,1-2.1,1C212.4,31,212.2,31,212.1,31z M215.4,21.5c0.9,0.1,1.9,0.3,2.8,0.4
	c0,0.1,0.1,0.2,0.1,0.3c-0.9,0.2-1.9,0.4-2.9,0.6C215.4,22.2,215.4,21.9,215.4,21.5z M213.5,26.7c0.1,0.8-1.1,2.4-1.9,2.7
	c-0.4-0.1-0.9-0.6-0.9-1c-0.1-0.8,1.1-2,2-2.1C213.1,26.3,213.3,26.6,213.5,26.7z M221.2,34.9c0-0.2,0.1-0.3,0.1-0.5
	c2.8,0.5,5.7,1.1,8.5,1.6c0,0.1,0,0.2-0.1,0.4c-0.5,0.1-1,0.2-1.5,0.2C225.8,36.5,223.6,35.2,221.2,34.9z M229.8,27.5
	c-0.4,0.2-0.7,0.4-0.9,0.4c-0.2-0.1-0.5-0.4-0.8-0.9c0.9-0.2,1.9-0.4,2.7-0.6c0.7-0.2,1.5-0.6,2.3-0.9c-0.1,4,3.4,4.5,5.8,6.1
	c-1.8-0.3-3.4-0.9-4.8-2.2c-0.4-0.3-0.6-0.8-0.9-1.2c-0.7-1-1-1.4-1.7-1.3C231.1,26.9,230.6,27.1,229.8,27.5z M239.8,33.7
	c0.4-0.5,0.8-1,1.3-1.4c0.1-0.1,0.2-0.1,0.3-0.1c0,0,0.1,0,0.1,0.1c0.4,0.4,0.7,1,1.1,1.5c-0.5,0.3-0.9,0.5-1.3,0.5
	C240.7,34.2,240.2,34,239.8,33.7z M245.8,16.5C245.8,16.5,245.8,16.4,245.8,16.5c-0.9,0.1-1.9,0.3-2.9,0.5c1.5-4.5,8.2-7.6,12.9-4.9
	C252.7,14.3,249.4,15.7,245.8,16.5z M254.5,14c1.5-0.6,3.4,0,3.8,1.5c-1.8,1-3.5,2.3-5.9,1.6c-1.5-0.4-3.1-0.3-4.3-0.4
	C250.1,15.9,252.3,14.9,254.5,14z M255.1,7.7c0.4,0.1,0.8,0.9,0.7,1.3c-0.1,0.8-0.3,1.7-1.5,1.6c-1.6-0.1-3.2-0.2-4.8-0.4
	C250.4,8.7,253.4,7.2,255.1,7.7z M248.6,6.7c0.9-0.1,1.2,0.5,1,1.2c-0.6,1.5-1,3-2.7,3.8c-0.7,0.4-1.4,0.8-2.1,1.3
	c0-0.1-0.1-0.2-0.1-0.2c-0.5,0.4-1,0.8-1.5,1.1c-0.2-1.5-0.6-1.7-2.9-2C242.4,9.1,245.1,7.3,248.6,6.7z M243.2,5.4
	c0.1,1.7-0.7,2.9-1.7,4c-0.1,0.1-0.1,0.2-0.2,0.2c-0.1-0.1-0.1-0.1-0.2-0.2c-1,1.2-2.1,2.2-3.2,3.3c0.8-2.3,2-4.4,1.3-7.2
	c0.8-0.4,1.6-1,2.5-1.3C242.6,4,243.1,4.4,243.2,5.4z M231.8,13.5C231.8,13.5,231.8,13.6,231.8,13.5c-0.1,0.2-0.3,0.4-0.4,0.5
	C231.5,13.9,231.6,13.7,231.8,13.5z M192.7,24.2c-0.8,1.5-1.6,3-2.4,4.6C190.5,27,191.2,25.4,192.7,24.2z M198.7,33.6
	c-0.8,0.5-1.7,0.8-2.6,1.3c-0.3-1.1,0.3-1.6,0.9-1.9c0.5-0.3,1.1-0.3,1.7-0.3C198.7,32.9,198.9,33.5,198.7,33.6z M195.6,29.7
	c0.1,0,0.1-0.1,0.2-0.1c0.2,0,0.4,0,0.5,0c0,0.4,0.1,0.8-0.1,1c-0.6,0.6-1.3,1.1-2,1.7C194.1,31,194.7,30.2,195.6,29.7z M204.4,14.7
	c-0.4,0.6-0.8,1.3-1.3,1.9c0,0-0.1,0-0.1,0c-0.1-0.4-0.4-0.9-0.3-1.1c0.3-0.4,0.8-0.8,1.3-1.1C204.2,14.5,204.4,14.7,204.4,14.7z
	 M208.2,19.9C208.2,19.9,208.2,19.9,208.2,19.9c-0.4,1.6-0.8,3.1-1.1,4.7c-0.1,0.3,0,0.6,0,1c0.5,0,1,0.1,1.5,0.1
	c-0.2,0.6-0.4,1.1-0.7,1.7c-2.3-0.1-4.1,0.8-5.3,2.8c-0.5-0.3-1-0.7-1.6-1.1c0.7-0.3,1.1-0.6,1.6-0.7c2.5-0.6,3.6-2.3,4.2-4.7
	c0.3-1.1,0.6-2.3,1-3.4C207.9,20.3,208,20.1,208.2,19.9z M201.1,23c0.3-0.1,0.5-0.1,0.7-0.1c0.3,1.6,0.7,3.1,1,4.7
	c-0.2,0.1-0.4,0.2-0.7,0.3C201.8,26.2,201.5,24.7,201.1,23z M200.7,13.1c0,0.3,0.1,0.7,0,1c-0.2,0.4-0.4,0.8-0.7,1.1
	c-0.1-0.1-0.2-0.1-0.3-0.2c0-0.5-0.1-1,0.1-1.4c0.1-0.3,0.4-0.4,0.7-0.6C200.6,13,200.6,13.1,200.7,13.1z M208.1,22c0,0-0.1,0-0.1,0
	c0.1-0.4,0.3-0.8,0.4-1.2C208.3,21.2,208.2,21.6,208.1,22z M207.5,20.4c0,0.1-0.1,0.2-0.1,0.3C207.4,20.6,207.4,20.6,207.5,20.4
	C207.5,20.4,207.5,20.4,207.5,20.4z M180,17.5c0.2-0.1,0.5-0.1,0.8-0.1c0.4,0,0.8,0.1,1.1,0.1c-0.3,1.7-1.4,1.7-2.6,1.9
	C179.6,18.5,179.6,17.6,180,17.5z M189.4,31.7c0,0.1,0,0.1,0,0.2c0.3-0.2,0.6-0.3,0.8-0.3c0.5,0.1,0.8,0.6,1.1,1.2
	c0.4,0.8,0.9,1.6,1.2,2.5c0.3,0.8,0.8,1.1,1.6,1.2c1.2,0.2,2.4,0.6,3.6,0.9c0.2,0.1,0.3,0.2,0.5,0.2c0.1,0,0.2,0,0.4,0c0,0,0,0,0,0
	c0.6,0,1.2-0.1,1.9-0.1c0.1,0,0.3,0,0.4,0c0.2,0,0.5,0,0.7,0c1.6,0,2.4-0.6,2.9-2.2c0.4-1.3,0.6-1.7,1.3-1.7c0.3,0,0.6,0.1,1,0.1
	c0.3,0,0.6,0,0.9,0c0.7,0,1.5-0.1,2.3-0.2c0.3,0,0.6,0,0.9,0.1c-0.4,0.6-1.1,1.2-1,1.3c0.3,0.5,0.8,0.8,1.3,0.7c0.3,0.1,0.7,0,1-0.3
	c0.4-0.3,0.8-0.4,1.2-0.4c0.3,0,0.7,0.1,1.1,0.2c0.7,0.2,1.4,0.2,1.9,0.2c1.9,0,3-1.2,3-3.5c0-1.2-0.3-2.4-0.5-3.7
	c0.4,0.1,0.8,0.2,1.2,0.2c-0.3,1.9-0.5,3.8-0.9,5.6c-0.1,0.7-0.8,1.3-1.1,1.9c-0.7,0-1.4,0-2.1,0c-0.9,0-1.8,0-2.7,0
	c-0.5,0-1.1,0.4-1.6,0.7c-0.4,0.2-0.7,0.3-0.9,0.4c-0.4-0.1-0.7-0.4-1-1c-0.4-0.8-0.8-1.4-1.9-1.6c-0.3,0-0.6,0-0.8,0
	c-2,0-2.9,1.2-3.1,3.4c0,0.2,0,0.5-0.1,0.7c-0.7-0.4-1.4-0.6-2-0.5c-1.2-0.1-2.3,0.5-3.3,1.2c-1.7,1.2-3.5,2.4-5.4,3.7
	c1.3,0.5,2.4,1.3,2.8,2.9c-0.4-0.5-0.7-1-1.1-1.4c-0.3-0.3-0.6-0.4-0.9-0.3c-0.4-0.1-0.8,0.1-1.2,0.5c-0.4-1.5-1-2.1-2.4-2.1
	c-0.4,0-1,0-1.6,0.1c1.2,1.2,2.2,2.3,3.5,3.7c-0.1,0.3-0.2,0.8-0.3,1.4c-0.6-2.6-3.2-5-6.1-5.3c-1.4-0.1-2.9-0.5-4.3-0.7
	c0-0.2,0-0.3,0-0.5c0.4,0,0.8,0,1.1,0c0.3,0,0.7,0,1,0c0.9,0.1,1.7,0.4,2.6,0.4c0,0,0.1,0,0.1,0c0.1,0,0.2,0,0.2,0
	c0.6,0,1.5-0.3,1.6-0.8c0.2-0.4-0.3-1.2-0.7-1.7c-0.2-0.3-0.6-0.5-1-0.8c0.3-0.2,0.5-0.3,0.8-0.4c0.4,1.4,1.2,2.1,2.6,2
	c0.3,0,0.5,0,0.8,0c0.2-0.1,0.3-0.1,0.5-0.2c0.3-0.4,0.5-0.7,0.8-1.1c1-1.5,0.8-3,0-4.4c-0.5-0.8-1.2-1.7-2.3-1.6
	c-0.3,0-0.6,0-1,0.2c0.1-0.6,0.1-1.1,0.2-1.5c0.1-0.3,0.1-0.7,0.2-1c0,0.6,0,1.2,0,1.9C189.2,31.8,189.3,31.7,189.4,31.7z
	 M213.2,42.7c-0.8-1-1.5-1.9-2.3-3C213,39.8,213.8,40.9,213.2,42.7z M212.6,38.9c0.6-0.4,1.1-0.6,1.6-0.6c0.8,0.1,1.4,0.5,1.9,1.3
	c-0.3,0.2-0.6,0.3-0.9,0.3C214.3,39.8,213.5,39.3,212.6,38.9z M206.1,42.2c0.3,0.3,0.7,0.7,1,1C206.7,42.8,206.4,42.5,206.1,42.2
	C206,42.2,206,42.2,206.1,42.2z M200.3,46.5c0.6,0.1,1.1,0.4,1.6,0.9c-0.4,0.2-0.8,0.3-1.1,0.4c-0.7-0.1-1.3-0.4-2-0.6
	C199.3,46.7,199.8,46.5,200.3,46.5z M197.2,45.9c0.4-0.8,0.6-1.6,1.1-2.2c0.2-0.2,0.6-0.3,1-0.4c0.1,0.5,0.4,1.1,0.3,1.4
	c-0.3,0.8-0.9,1.1-1.7,1.1C197.7,46,197.4,45.9,197.2,45.9z M182.6,31.4c0.1,0.5-0.2,1.2-0.5,1.6c-0.2,0.3-0.6,0.4-1,0.6
	c-0.4-0.2-0.8-0.3-1-0.5c-0.1-0.2,0.1-0.8,0.3-1.1c0.3-0.5,0.8-1,1.3-1.2C182.1,30.9,182.6,31.2,182.6,31.4z M182.4,46.1
	c0.2,0,0.5,0.1,0.7,0.1c0.3,0.1,0.8,0.5,0.8,0.8c0,0.3-0.4,0.7-0.7,0.9c-0.3,0.1-0.5,0.2-0.8,0.2c-0.6-0.1-1.3-0.5-1.9-1.2
	C181.1,46.4,181.7,46.2,182.4,46.1z M186.3,37.2c-1.7,0.9-3.3,2-4.9,3c-0.4,0.2-0.7,0.4-1.2,0.6c1.2-3.7,4.4-4.2,7.1-5.5
	C187.4,36.3,187.1,36.8,186.3,37.2z M181,44c0.1,0.9-0.6,1.7-1.9,2.1C179.8,45.3,180.4,44.6,181,44z M167.6,50.9
	c0.5,0,1.1,0.2,1.7,0.5c-0.7,1.3-1.2,2.4-1.8,3.4c0,0,0,0,0,0c-1.7-0.2-3.5-0.4-5.5-0.7C164.1,53.3,165.5,51,167.6,50.9z
	 M168.5,57.7c1.3,0,2.6,0,3.8,0c0,0.1,0,0.2,0.1,0.4c-1.3,0-2.6,0-3.9,0C168.5,58,168.5,57.8,168.5,57.7z M175.3,40.1
	c0,0-0.1,0-0.1-0.1c0.4-0.8,0.9-1.5,1.3-2.3C176.5,38.7,176.2,39.4,175.3,40.1z M172.4,31.9c0.6-0.1,1.1-0.1,1.5-0.1
	c1.1,0,1.8,0.3,1.8,1.2C174.6,32.6,173.4,32.2,172.4,31.9z M170.1,43.1c-0.1-0.2-0.4-0.4-0.4-0.7c0-1,0.5-2,1.1-2.2
	c0.6,0.3,1.3,0.8,1.6,1.4C172.5,42.1,171.3,43,170.1,43.1z M169.5,48.7c0.2-0.1,0.5-0.2,0.7-0.3c0.8,0.2,1.6,0.3,2.4,0.3
	c1.1,0,2.1-0.1,3.2-0.3c-0.1,0.2-0.2,0.4-0.3,0.4c-1.3,0.1-2.6,0.7-3.9,0.8C170.9,49.5,170.2,49.3,169.5,48.7z M174.8,54.3
	c0.3,0,0.5,0.1,0.8,0.2c0.6,0.2,0.9,0.5,0.4,1.2c-0.4,0.5-1.1,0.8-1.8,0.9c-0.7-0.1-1.4-0.4-1.9-1C173.1,54.8,173.9,54.4,174.8,54.3
	z M170.5,29.8c0.2,0.1,0.4,0.7,0.3,0.9c-0.2,0.6-0.6,0.9-1,1c-0.3,0-0.7-0.2-1.2-0.4c0.3-1,0.8-1.5,1.4-1.6
	C170.2,29.7,170.3,29.7,170.5,29.8z M168.8,35.8c-1.5-0.9-2-1.9-1.6-3.3C167.7,33.6,168.3,34.6,168.8,35.8z M173.7,59.3
	c0.1,0,0.1-0.1,0.2-0.1c0.5,0.7,1,1.5,1.5,2.2c0,0-0.1,0.1-0.1,0.1C174.7,60.8,174.2,60.1,173.7,59.3z M162.3,35
	c0.1,0.7-0.7,1.4-1.8,1.5c-0.1-0.1-0.6-0.6-0.6-0.6c0.5-0.6,1.1-1.2,1.7-1.7C161.9,34.5,162.2,34.7,162.3,35z M159,40.3
	c0.1-0.7,0.3-1.3,0.4-2C159.7,38.9,159.6,39.6,159,40.3z M158.1,37.1c0,1.2-0.8,2.2-1.8,2.3c-0.7-0.1-0.9-0.5-0.9-1.6
	c0-1.1,0.6-2.2,1.4-2.4C157.6,35.5,158.1,36.1,158.1,37.1z M159,44.3c0-0.2,0.5-0.5,0.8-0.7c0.8-0.4,1.6-0.7,2.4-1.1
	c0.8,0.3,1.7,0.7,2.6,1.1c0.1,0.6,0.2,1.3,0.3,2c0,0.2,0,0.5-0.1,0.7c0.1,0.1,0.1,0.2,0.2,0.2c-1.2,1.1-2.4,2.3-3.8,3.3
	c-1.1,0.9-2.3,0.4-2.5-1C158.8,47.4,158.9,45.9,159,44.3z M98.6,49.5C98.6,49.4,98.6,49.4,98.6,49.5c2.2,0.4,3.8,2.5,5.6,3.7
	c-1.7,0.2-3.5,0.3-5.1,0.5c0,0,0,0,0,0c-0.1,0-0.1,0-0.2,0c-0.9-1.3-1.9-2.6-2.9-4.1c0.5-0.2,1-0.3,1.4-0.3
	C97.8,49.3,98.2,49.4,98.6,49.5z M96.7,56.3c-0.5,0.5-0.9,0.7-1.4,0.7c-0.5,0-1-0.2-1.6-0.3c0-0.1,0-0.3-0.1-0.4
	C94.6,56.3,95.6,56.3,96.7,56.3z M97.2,33.8c0.4-0.7,0.8-1.5,1.2-2.2C98.4,32.6,98.1,33.2,97.2,33.8z M96.8,41.9
	c0.7,0.5,1.4,1.1,2.1,1.6c0,0-0.1,0.1-0.1,0.1c-0.7-0.5-1.5-1-2.2-1.5C96.6,42,96.7,41.9,96.8,41.9z M97.1,29.7
	c-0.8,0.2-1.4,0.4-2.2,0.6c0-0.8-0.1-1.8,0.1-1.9c0.1,0,0.2-0.1,0.3-0.1C96,28.4,96.6,28.9,97.1,29.7z M95.9,39
	c0.5,0.9,0.5,1.9-0.4,3.1c-0.7-0.7-1.4-1.4-1.8-2.2c-0.2-0.4,0.4-1.5,0.8-1.7c0,0,0,0,0.1,0C95,38.3,95.6,38.6,95.9,39z M95.9,46.8
	c0,0.1,0,0.3-0.1,0.4c-1,0.5-2,0.7-3.1,0.8c-0.7,0-1.4-0.2-2-0.4c-0.3-0.1-0.4-0.5-0.5-0.7C92.2,46.8,94,46.8,95.9,46.8z M89.2,35.9
	c0.5,0.9,1,1.7,1.4,2.5c0,0-0.1,0.1-0.1,0.1C89.7,37.8,89.4,37,89.2,35.9z M88.6,33.9c-0.2-0.2-0.4-0.3-0.7-0.5
	c0.3-0.4,0.7-0.8,1-1.2C89.7,32.8,88.7,33.3,88.6,33.9z M88.8,46.5c0.1,0.1,0,0.5,0,0.8c-0.7,0.2-1.4,0.4-2,0.6c0-0.5,0-1,0.2-1.5
	c0.1-0.2,0.4-0.5,0.7-0.6C88.1,45.9,88.5,46.2,88.8,46.5z M83.3,46.3c-0.3,0-0.5-0.2-0.8-0.3c-0.2-0.1-0.4-0.5-0.4-0.7
	c0-0.2,0.3-0.5,0.6-0.5c0.7-0.1,1.4-0.1,2.2-0.1C84.5,45.7,83.9,46.2,83.3,46.3z M84.2,48.8c0.5-0.3,1.1-0.4,1.8-0.5
	c-2.1,1.1-2.4,2-1.7,4.2c-0.8-0.4-0.8-1.2-0.9-1.9C83.4,50,83.7,49.1,84.2,48.8z M92.6,30.7c-0.7,0.2-1.2,0.7-1.9,0.8
	c-0.2,0-0.5-0.1-0.7-0.3c0.8-0.3,1.7-0.5,2.5-0.8C92.5,30.5,92.5,30.6,92.6,30.7z M86.4,32.9c-0.5,0.6-1.1,1.2-1.7,1.9
	c0-0.5-0.1-1,0.1-1.2c0.4-0.4,1-0.6,1.6-0.8C86.4,32.8,86.4,32.8,86.4,32.9z M84.5,32c-1.1,0-1.5-0.5-1.8-1.5
	c-0.1-0.4,0-1.2,0.3-1.4c0.2-0.1,0.5-0.2,0.8-0.3c0.3,0,0.6,0.2,0.8,0.6c0.4,0.8,0.7,1.6,1.2,2.5C85.3,32,84.9,32,84.5,32z
	 M85.3,38.7c-0.2,0.3-0.3,0.5-0.5,0.5c-0.2,0-0.3-0.1-0.5-0.3c-1.6-1.1-3.3-2.2-4.9-3.3c-0.5-0.4-0.7-1.1-1-1.6
	c0.1,0,0.1-0.1,0.2-0.1C83,36,84.6,36.7,85.3,38.7z M81.8,47.5c-0.2,0-0.4,0.1-0.6,0.1c-1.5,0-3-0.8-3.7-1.9
	C78.9,46.2,80.3,46.8,81.8,47.5z M88,55.8c1,0.2,2,0.3,3.1,0.5c-0.6,0.2-1.1,0.3-1.5,0.3C88.8,56.6,88.4,56.3,88,55.8z M90.6,54.8
	c-0.4-0.3-0.7-0.8-1.1-1.2c0.5-0.3,1.1-0.7,1.6-0.8c0.4,0.1,0.9,0.3,1.3,0.5c0.4,0.3,0.9,0.9,0.8,1.2c-0.1,0.4-0.7,0.7-1.1,0.9
	C91.6,55.2,91.1,55.1,90.6,54.8z M110.6,36c-0.1,0.9-0.3,1.7-1.2,1.8c-1-0.1-1.2-0.9-1.2-1.5c0-1.6,0.5-2.7,1.2-2.8
	C110.1,33.6,110.7,34.8,110.6,36z M106,37.7c0.3,0.8,0.5,1.7,0.8,2.5C106.4,39.4,106.1,38.6,106,37.7z M105.5,34.1
	c-0.1,0.1-0.3,0.2-0.5,0.3c-0.6-0.4-1.1-1-1.6-1.5c0.2-0.1,0.4-0.4,0.6-0.5C104.6,32.6,105.5,32.8,105.5,34.1z M100.7,45.2
	c-0.6-0.8-0.4-2.3-0.5-3.4c1.3-0.2,2.2-0.4,3.2-0.5c0.3,0,0.7,0.1,1,0.3c1.1,0.6,2.1,1.4,3.2,2.1c-0.1,0.7-0.3,1.6-0.4,2.4
	c0.1,0,0.3,0.1,0.4,0.1c-0.1,0.8-0.3,1.6-0.5,2.4c-0.4,1.4-0.8,1.6-1.9,0.7C103.5,48,101.9,46.7,100.7,45.2z M67.8,42.2
	c0.3,0.6,0.5,1.4,0.8,2.1c-0.1,0.1-0.1,0.1-0.2,0.2c-0.6-0.3-1.2-0.5-1.7-0.8c-0.3-0.2-0.6-0.8-0.5-1c0.2-0.4,0.6-0.7,1-0.9
	C67.4,41.8,67.7,42,67.8,42.2z M67.2,45.3c-0.7,0.3-1.3,0.6-2,0.6c-0.4,0-0.7-0.1-1.1-0.3c0.5-0.4,1.1-0.6,1.6-0.7
	C66.2,45,66.7,45.1,67.2,45.3z M51.4,36.6c0.6,0.1,1.2,0.3,1.9,0.7c-1.3,0.4-2.3,0.7-3.5,1.1C50,37.3,50.6,36.7,51.4,36.6z
	 M52.4,38.7c0.4-0.2,0.9-0.5,1.3-0.7c0.1,0,0.2-0.1,0.3-0.1c0,0,0.1,0,0.1,0c0.2,0.2,0.5,0.6,0.5,0.9c-0.1,0.9-1.1,1.8-2.1,1.9
	C52.4,40.1,52.4,39.4,52.4,38.7z M11.4,11.3c-0.4-0.2-0.6-0.8-0.8-1.2C11,10,11.5,9.7,12,9.6c3.8-0.4,7,0.9,9.6,3.6
	c-0.1,0.1-0.1,0.1-0.2,0.2c0.1,0.1,0.2,0.2,0.4,0.4c0.3,0.3,0.5,0.7,0.8,1.1c-0.1,0.1-0.1,0.2-0.2,0.3
	C18.4,14.7,14.8,13.4,11.4,11.3z M17.7,14.9c-1.8,0.2-3.6,0.6-5.3,0.6c-1.2,0-2.5-0.4-3.7-0.9c-0.9-0.4-0.9-1.1,0-1.6
	c1.3-0.6,2.4-1.2,4-0.2C14.1,13.8,16,14.2,17.7,14.9z M33.2,10.7c-0.3-1-0.6-1.9-0.9-2.9C33.2,8.5,33.5,9.5,33.2,10.7z M34,12.9
	c1.4,1.1,3,3,3.5,4.5C36.4,15.9,35.2,14.4,34,12.9z M33.7,2.8c0.4,0.3,0.5,1.1,0.4,1.7c0,0.3-0.7,0.5-1.2,0.6c-0.1,0-0.2,0-0.3,0
	c-0.8-0.1-1.4-0.6-1.9-1.3c0.6-0.5,1.1-1.1,1.7-1.4c0.1,0,0.2,0,0.3-0.1C33.1,2.5,33.5,2.6,33.7,2.8z M32.6,13.5
	C32.6,13.5,32.6,13.5,32.6,13.5c0.3,0,0.6,0.1,0.8,0.3c-2.1,0.9-2.4,1.2-2.3,2.9c-1-0.2-1.9-0.4-3-0.7c0.2-0.9,0.4-1.7,0.7-2.5
	c0.6,0.3,1.2,0.4,1.8,0.3C31.3,13.8,31.9,13.7,32.6,13.5z M21.5,15.4c6.6,1.3,13.2,2.6,19.9,3.8c0,0.2,0,0.3,0,0.5
	c-3.3,1.2-6.5,2.5-10,2.9c0-0.1-0.1-0.2-0.1-0.4c2.4-0.8,4.8-1.5,7.2-2.3c-5.5-2.4-11.4-2.5-17-4.3C21.5,15.6,21.5,15.5,21.5,15.4z
	 M40.6,30.2c0.2,0,0.5,0.1,0.9,0.2c0.7,0.2,1.3,0.5,2.1,0.8c-1,1.2-2.3,0.7-3.4,1C39.9,30.8,40,30.2,40.6,30.2z M23.5,32.7
	c-0.7-0.4-0.9-0.9-0.3-1.5c0.3-0.3,0.6-0.4,0.8-0.6c0.9,0.6,1.7,1.2,2.4,1.7c-0.4,0.4-1.1,0.7-1.9,0.7
	C24.3,32.9,23.9,32.9,23.5,32.7z M33.4,25.2c-1.4,3.1-3.5,4.9-6.7,5.1c2.5-1.5,5.9-2.1,5.8-6.3c1.5,0.6,3.1,1.2,4.6,1.8
	c-0.3,0.5-0.5,0.7-0.7,0.8c-0.2-0.1-0.5-0.2-0.8-0.4c-0.6-0.3-1.2-0.6-1.8-1c0,0.1-0.1,0.1-0.1,0.2C33.6,25.3,33.5,25.3,33.4,25.2z
	 M35.5,34.7c2.4-0.5,4.9-0.9,7.3-1.4c-1.8,1.1-3.8,1.9-5.5,2C36.6,35.2,36,35,35.5,34.7z M65.7,11.6c0.3,0.7,0.5,1.4,0.7,2.1
	c-0.1,0.1-0.3,0.1-0.4,0.2c-0.3-0.7-0.6-1.3-0.9-2c0-0.1,0.1-0.4,0.3-0.6C65.5,11.4,65.6,11.5,65.7,11.6z M71.8,30.7
	c-1.3-0.5-2.3-1.1-2.7-2.5c0.3-0.2,0.5-0.3,0.8-0.4C70.6,28,71.3,28.9,71.8,30.7z M70,32.8C69.6,33,69.3,33,68.9,33
	c-0.7,0-1.3-0.3-1.9-0.7c-0.3-0.2-0.5-0.8-0.4-1.1c0.1-0.2,0.4-0.3,0.7-0.4C68.5,31.1,69.5,31.5,70,32.8z M46.6,15.8
	c0.4-0.2,0.8-0.3,1.1-0.4c0.5,0.1,0.8,0.3,1,0.7c0.1,0.3,0,0.8-0.3,0.9c-0.1,0.1-0.2,0.1-0.2,0.1C47.6,17.1,46.9,16.6,46.6,15.8z
	 M50.1,20.9c-0.6,0-1.2-0.1-1.7-0.1c0-0.1,0-0.2,0-0.3c0.6-0.1,1.2-0.3,1.9-0.4C50.2,20.4,50.2,20.8,50.1,20.9z M53.9,28.8
	c-0.3,0.3-0.7,0.5-1,0.6c-0.6-0.1-1.2-0.5-1.7-1.3c0.3-0.2,0.5-0.2,0.8-0.2C52.6,27.9,53.2,28.5,53.9,28.8z M51.5,21
	c-0.3-0.1-0.3-0.4-0.1-1.2c0.3,0.3,0.5,0.6,0.9,1C52,20.9,51.7,21,51.5,21z M52.1,25c0.2-0.1,0.3-0.1,0.5-0.1c1.2,0.1,2.4,1,2.4,2
	c0,0.2-0.5,0.6-0.8,0.6C53.3,27.5,53.1,27.2,52.1,25z M62.5,28.2c-1.2-0.8-2.5-1.7-3.7-2.6c-0.5-0.4-1-0.7-1.6-1.1
	c1.6-0.2,1.7-0.4,1.4-1.7c-0.4-1.4-0.6-2.8-1-4.2c0,0,0.1,0,0.1,0c0.1,0.2,0.3,0.4,0.4,0.6c0.3,1,0.6,1.9,0.8,2.9
	c0.4,2.5,2,4,4.2,4.9c0.6,0.2,1.2,0.5,1.8,0.8c-0.7,0.3-1.4,0.6-2,0.8C62.8,28.5,62.6,28.4,62.5,28.2z M62.8,25.8
	c0.3-0.8,0.6-1.6,0.8-2.4c0.2-0.6,0.3-1.1,0.6-1.7c0.3,1.5-0.4,3-0.5,4.6C63.3,26.1,63.1,26,62.8,25.8z M65.9,20.4
	c-0.3,0.1-0.6,0.2-0.9,0.3c-0.5-0.1-0.9-0.4-1.1-1C64.5,19.8,65.1,20.1,65.9,20.4z M63.1,14.2l-0.4,0.4c-0.6-0.4-1.3-0.8-1.9-1.2
	c0.2-0.2,0.4-0.4,0.7-0.8C62.1,13.2,62.6,13.7,63.1,14.2z M52.7,20.9C52.7,20.9,52.7,20.9,52.7,20.9C52.7,20.8,52.7,20.8,52.7,20.9
	C52.7,20.8,52.7,20.8,52.7,20.9z M49.4,14.6c0,0.1-0.3,0.4-0.5,0.5c-0.9-0.2-1.4-1.2-1.2-2.2C48.5,13.1,49.5,14,49.4,14.6z
	 M47.2,22.9c-0.8-0.7-1.5-1.3-2.4-2.1c1.2,0.2,2.3,0.5,3.3,0.7c-0.2,0.4-0.5,0.8-0.7,1.2c-0.5,1.1-0.7,1.6-1.3,1.7
	c-0.4,0-0.8-0.1-1.5-0.3C45.5,23.7,46.3,23.3,47.2,22.9z M45.8,29.5c-0.5-1.5-0.1-2.4,1-2.8c-0.3,0.7-0.8,1.6-0.8,2.5
	c0,0.9,0.4,1.8,0.8,2.6c0.1,0.2,0.2,0.4,0.3,0.5C46.6,31.4,46.1,30.4,45.8,29.5z M85.5,15.7c0.4,0.6,0.5,1.3,0.8,2
	c-0.1,0.1-0.1,0.1-0.2,0.2c-0.6-0.2-1.1-0.4-1.6-0.7c-0.3-0.2-0.6-0.7-0.6-1.1c0-0.3,0.4-0.8,0.7-0.8C85,15.3,85.4,15.5,85.5,15.7z
	 M89.9,17.8c0,0,0.1,0,0.1,0c0.1,1,0.3,2.1,0.4,3.1c0,0-0.1,0-0.1,0C90.2,19.8,90,18.8,89.9,17.8z M53.3,14.2c0.4,0.6,1,1.1,1.5,1.5
	c1.5,1.2,2,2.8,2.3,4.5c-2.1,0.2-2.4,0.4-2.3,1.7c-1.8-0.7-1.9-0.8-1.9-1.5c0.1,0,0.3,0,0.4,0c0.3,0,0.6,0,0.9,0
	c1.5-0.2,2.2-1.1,1.5-2.4c-0.5-0.9-1.5-1.6-2.2-2.4c-0.3-0.3-0.7-0.5-0.7-0.8c0-0.4-0.1-0.9-0.1-1.3C52.9,13.7,53,13.9,53.3,14.2z
	 M27.8,1.8c0.1-0.4,0.4-0.9,0.7-1c0.4-0.1,0.7,0,1,0.2c0,0.1,0,0.2,0,0.3c0.4,0.3,0.6,0.8,0.9,1.2c-0.4,0.8-0.7,1.4-1.1,2.1
	C27.8,3.7,27.5,3.3,27.8,1.8z M22.9,3.9c-0.2-1,0.3-1.4,1.2-1.2c0.4,0.1,0.8,0.3,1.2,0.4c2,0.7,1.9,0.8,2,2.9c0,0.4,0.1,0.7,0.1,1.1
	c-0.1,0.2-0.2,0.3-0.3,0.4c0.2,0.8,0.4,1.7,0.6,2.5c0.1,0.5,0.3,0.9,0.5,1.4c-0.9-0.8-1.8-1.6-2.6-2.4C24.1,7.6,23.2,5.9,22.9,3.9z
	 M18.3,5.7c2.7,0.7,5.2,2,6.9,4C25.1,9.8,25,9.9,25,10c-0.6,0.1-1.4,0.1-1.8,0.5c-0.5,0.4-0.6,1.3-0.9,2.1c-0.1,0-0.1,0.1-0.2,0.1
	c-1.4-1.3-3-2.6-4.5-3.9c-0.3-0.2-0.6-0.4-0.7-0.7c-0.4-0.8-0.6-1.5-0.9-2.3C16.8,5.7,17.6,5.5,18.3,5.7z M9.8,7.6
	c0.4-0.3,0.9-0.8,1.3-0.9c1-0.1,2-0.1,3,0c0.5,0.1,1,0.5,1.4,0.9c0.5,0.4,0.8,0.9,1.1,1.3c-1.8,0-3.7,0.1-5.5-0.1
	C10.7,8.8,10.3,8,9.8,7.6z M10.3,11.2c-1,0.6-2,1.3-3.1,2c-0.6,0.4-2.3-0.4-3.2-1.4C5.7,10.2,9.2,10,10.3,11.2z M1.7,14.8
	c-0.3-0.1-0.8-0.5-0.7-0.8c0-0.3,0.4-0.7,0.7-0.9c1.2-0.5,2.4-0.5,3.6,0.4C4.4,15.2,3.2,15.3,1.7,14.8z M6.1,16.5
	c-0.5-0.2-1.1-0.9-1-1.2c0.2-0.6,0.8-1.2,1.3-1.5c0.2-0.1,0.8,0.3,1.2,0.6c0.9,0.5,1.7,1.1,2.6,1.7C8.9,17,7.5,17.2,6.1,16.5z
	 M12.9,21.7c0,0.8-0.5,1.3-1.3,1.2c-0.8-0.1-1.9,0-2-1c0-0.9,0.8-1.5,1.8-1.5C12.3,20.3,13.1,20.4,12.9,21.7z M8.7,19
	c-0.9-0.4-0.5-1,0.1-1.3c1.4-0.6,2.9-1.2,4.3-1.5c2-0.5,4-0.5,5.9-0.3c0,0,0,0,0,0c0.4,0.1,0.9,0.1,1.3,0.2c-0.5,0.3-1,0.6-1.5,0.9
	c0,0.1,0,0.2,0,0.2c-1.2,0.7-2.5,1.4-3.8,2C12.9,20,10.8,20,8.7,19z M15.4,22.6c-1.3-0.4-1.5-1.1-0.6-2.1c1.5-1.7,3.6-2.2,5.6-2.9
	c-0.5,0.9-0.6,1.8,0.1,2.5c0.7,0.8,1.5,1,2.4,1c0.9,0.1,1.9-0.3,2.8-0.6c0.1,0.1,0.1,0.1,0.2,0.2c-0.3,0.2-0.5,0.3-0.8,0.5
	c-0.9,0.5-1.8,1-2.7,1.3c0,0,0,0.1,0.1,0.1C20.3,23.3,17.9,23.3,15.4,22.6z M19.3,27.6c-0.1-1.6,1.4-1.9,2.5-2.4
	c1.8-0.7,3.6-1.3,5.4-2C26,24.3,24.5,25,23.3,26c0,0.2-0.1,0.3-0.1,0.5c-0.4,0.5-0.8,1.1-0.9,1.8c-0.1,0.2-0.3,0.3-0.4,0.5
	c0.1,0.3,0.1,0.6,0.1,0.9c0,0,0,0-0.1,0C20.8,29.3,19.4,29,19.3,27.6z M118.7,65.3c-2.2-2-4.3-4.1-6.5-6c-3.4-2.9-7.1-4.3-11.4-3.8
	c0,0,0,0,0,0c-0.7,0.1-1.4,0.2-2.1,0.4c-0.1-1.1,0.5-1.5,1.4-1.6c1.4-0.2,2.8-0.3,4.2-0.5c0.4,0,0.9-0.1,1.5-0.2
	c-0.4-0.4-0.5-0.7-0.7-0.8c-1.3-1-2.6-1.9-3.8-2.9c-1.2-0.9-2.4-1.4-3.8-1.4c-0.7,0-1.4,0.1-2.1,0.4c0,0-0.1,0-0.1,0
	c-0.3-0.1-0.7-0.2-1-0.3c0-0.1,0-0.2,0-0.3c0.9-0.3,1.9-0.5,2.9-0.8c-0.3-0.5-0.4-0.8-0.8-1.4c0.8,0.2,1.5,0.3,2.1,0.4
	c0,0,0,0,0-0.1c0.1,0,0.2,0,0.3,0.1c0.2-0.3,0.4-0.6,0.6-0.9c0.3,0.2,0.7,0.5,0.9,0.8c0.1,0.1,0.2,0.2,0.3,0.3
	c0.1-0.1,0.2-0.1,0.3-0.1c1.4,1.5,2.8,3.1,5,3.7c0.9,0.3,1.4,0,1.6-0.9c0.3-1,0.4-2.1,0.6-3.1c0.1-0.8,0.2-1.6,0.2-2.4
	c1.1,1,1.3,2,1.2,3.1c0.1,0.1,0.2,0.2,0.3,0.3c-0.2,0.9-0.6,1.9-0.8,2.8c-0.4,1.7-0.3,3.3,0.9,4.5c2,2,4,4,6.2,5.8
	c6,4.7,11.5,9.9,16.6,15.6c0.2,0.2,0.3,0.4,0.5,0.7c-0.4,0.5-0.9,1.1-1.1,1.3C127.7,73.8,123.2,69.6,118.7,65.3z M109.3,103.9
	c-0.9,1.1-1.5,2.5-2.2,3.8c-1.5-2.8,0.2-4.7,2.1-6.6C109.8,102,110.3,102.7,109.3,103.9z M112.4,100.2c0.6-1.7,1-3.7,2-5.3
	c0.9-1.4,2.5-2.5,3.9-3.6c2.9-2.4,5.8-4.7,8.8-7.1c1.9,0.7,4.1,1.4,6.6,2.3C124.8,88.6,118.1,93.8,112.4,100.2z M114.9,86.8
	c-0.3-2.2-1-4.3-1.6-6.8c4.7,0.6,8.7,2.6,13.5,3.9c-4.1,3.4-7.9,6.6-11.8,9.7C114.9,91.4,115.1,89.1,114.9,86.8z M159.1,106.2
	c-0.8-1.1-1.7-2.2-2.3-3.4c-0.3-0.7,0-1.7,0.1-2.9C159,101.8,160.6,103.5,159.1,106.2z M151.4,79.3c1.9-0.4,3.3-1.3,4.5-2.8
	c2.9-3.5,6.3-6.4,11-7.6c2.6-0.6,5-0.1,7.9,0.5c-6.3,1.8-12.4,3.3-16.9,7.9c4.7-3.9,10.4-5.4,16.2-7.1c-0.8,1.6-2.7,2.9-6.6,4.7
	c-2.5,1.1-5,2.1-7.5,3.4c1.2,0.1,2.4,0.3,3.7,0.3c7,0.4,13.8,1.6,19.8,5.8c0.6,0.4,1.1,0.9,1.6,1.5c-7.8-3-15.9-4.5-24.2-5.3
	c1.1,0.3,2.2,0.6,3.3,0.8c7.1,0.9,14,2.7,20.8,5.2c-7.6,1.7-19.4-2.7-24.4-5c4.5,4.8,7.6,10.3,10.1,16.3
	c-4.9-4.8-8.4-10.6-12.3-16.1c-0.1,0.1-0.3,0.2-0.4,0.3c1.9,2.8,3.6,5.6,5.6,8.3c2,2.7,4.3,5.3,6.5,8c-3.3-1.6-6-3.6-8-6.5
	c-1.9-2.8-3.5-5.7-5.6-8.5c0.4,3.2,1.1,6.4,1,9.5c-0.1,3.2-1.1,6.4-1.7,9.6c-0.2,0-0.3,0-0.5-0.1c0-1,0-1.9,0-2.9
	c-0.2-3.8-0.5-7.6-0.7-11.5c-0.1-1.8,0-3.6,0-5.4c-0.7,6.7,0.3,13.4,0.2,20.1c-1.3-3.5-2.4-7.1-2.8-10.8c-0.4-3.8,0.9-7.3,1.4-11
	c-0.1-0.1-0.3-0.3-0.4-0.4c-3.3,0.9-6.6,1.7-9.9,2.7c-1.5,0.5-2.4,0.4-3.5-1.1C143.6,81.3,147.4,80.1,151.4,79.3z M151.5,92.8
	c-3.2-2.9-6.3-5.7-9.7-8.7c3.6-0.9,7.2-1.9,11.1-2.9C152,85.2,150.9,88.9,151.5,92.8z M145.1,87.8c1.7,1.5,3.3,3,5,4.5
	c1.4,1.2,2,2.7,2,4.4c-1.4-1.4-2.9-2.8-4.3-4.1c-2.3-2.2-5.2-3.5-8-4.6c-4.4-1.7-8.9-3.3-13.4-4.9c-3.7-1.3-7.5-2.5-11.3-3.6
	c-0.4-0.1-0.9-0.2-1.4-0.1c-0.8,0.2-1.3,0.6-1.1,1.6c0.5,2.4,1.1,4.7,1.4,7.1c0.6,4.5-1.1,8.6-2.9,12.9c-0.2-6.6,0.9-12.8,0.3-19.1
	c-0.5,6.3-0.9,12.6-1.4,19l-0.1,0.1c-0.4-1.8-0.8-3.6-1.2-5.5c-0.7-3.8,0.2-7.5,0.6-11.3c0.1-1,0-2,0-3c-0.1,0-0.3,0-0.4-0.1
	c-0.2,0.6-0.5,1.1-0.7,1.7c-1.6,4-3.3,7.9-6.7,10.7c-1.6,1.3-3.4,2.4-5.2,3.3c3.6-5,7.2-9.9,10.8-14.9c-0.1-0.1-0.2-0.2-0.3-0.3
	c-3.7,4.9-7.4,9.7-11,14.6c-0.1-0.1-0.2-0.2-0.3-0.2c2.6-5.7,5.5-11.3,10.1-15.7c-8.1,3.3-16.1,6.6-25,5.3c0-0.2-0.1-0.4-0.1-0.6
	c8.3-2,16.5-4,24.8-5.9c0-0.1,0-0.2-0.1-0.3c-8.1,1.1-16,3.2-24,5.1c1.1-0.8,2.1-1.6,3.2-2.3c3.3-1.9,6.9-2.8,10.6-3.3
	c3.3-0.4,6.5-0.7,9.8-1c0.4,0,0.7-0.2,1.5-0.4c-5.3-2.3-10.5-3.9-14.5-7.9c4.4,1.8,9.3,1.8,13.3,4.8c1.2,0.9,2.3,1.8,3.6,2.5
	c-1.3-1.1-2.5-2.3-3.8-3.4c-2.2-1.8-4.8-2.5-7.4-3.2c-1.8-0.5-3.6-1-5.6-1.6c4.4-1.1,8.2-0.1,12,1.8c2.7,1.3,5,3,6.7,5.6
	c1.1,1.7,2.7,2.3,4.7,2.6c2.9,0.5,5.9,1.4,8.7,2.3c3.8,1.3,7.5,2.7,11.5,2.9c0.2,0,0.3,0.1,0.7,0c-0.5-0.7-1.1-1.5-1.7-2.3
	c0.4-0.4,0.9-0.8,1.4-1.2C138.9,82.5,142,85.1,145.1,87.8z M163.3,56.8c-3,0.3-5.6,1.7-7.8,3.6c-5.2,4.4-10.3,9-15.3,13.6
	c-2.6,2.4-5,5-7.4,7.6c-1,1-1.8,0.1-2.8,0.1c2.8-3.2,5.6-6.2,8.2-9.3c4.5-5.4,9.9-9.7,15.4-13.8c0.4-0.3,0.7-0.7,1.1-1
	c2-1.7,2.8-3.8,2-6.4c-0.2-0.6-0.2-1.4-0.5-1.9c-0.6-1-0.3-1.8,0.3-2.6c0.5-0.7,0.9-1.5,1.3-2.3c-0.1,0.4-0.1,0.7-0.2,1.1
	c0.1-0.1,0.3-0.2,0.4-0.3c-0.1,0.3-0.1,0.7-0.1,1c-0.1,0.8-0.2,1.5-0.1,2.3c0.1,1.1,0.4,2.5,1.7,2.7c0.9,0.1,2.1-0.4,3-0.9
	c1.1-0.7,1.9-1.9,2.9-2.8c0.2-0.2,0.6-0.3,0.9-0.4c0.1,0.4,0.3,0.7,0.4,1.1c0.1-0.1,0.2-0.1,0.3-0.2c0,0,0,0.1,0.1,0.2
	c0.2-0.1,0.4-0.2,0.5-0.2c0.3,0.1,0.6,0.4,0.8,1c0.1,0.3,0.5,0.5,0.7,0.6c0.5,0.2,1.1,0.4,1.8,0.6c-0.3,0.3-0.6,0.6-1,0.9
	c-0.9-0.6-1.7-0.9-2.5-0.8c-0.2,0-0.5,0-0.7,0c0,0,0,0.1,0,0.1c-0.9,0.3-1.8,0.9-2.7,1.6c-1.3,1.1-2.7,2-4.1,3.1
	c0,0.1,0.1,0.2,0.1,0.3c0.8-0.1,1.6-0.2,2.4-0.2c1.2,0,2.4,0.1,3.6,0.2c0.6,0,0.9,0.2,1.2,0.5c-0.1,0.4-0.2,0.9-0.3,1.3
	C165.8,57,164.5,56.7,163.3,56.8z M245.3,27.1c0.3,0.1,0.6,0.4,0.9,0.7c1.1,1.1,1,1.7-0.4,2.5c-0.3,0.2-0.7,0.4-1,0.5
	c-0.6,0.2-1.2,0.3-2,0.4c0.4-1.4,0.2-2.6-0.8-3.6c-0.8-0.8-1.7-1.5-2.6-2.3c1.2,0.4,2.4,0.8,3.7,1.2c0,0,0-0.1,0-0.1
	C243.9,26.6,244.6,26.8,245.3,27.1z M250.8,24.4c-1.5,0.2-3,0.4-4.5,0.2c-1.8-0.3-3.5-0.9-5.2-1.4c0-0.2,0-0.3,0.1-0.5
	c0.6,0.1,1.2,0.2,1.8,0.2c1.1,0.1,2.1-0.2,2.7-1.5c0.3-0.6,0-1.5-0.1-2.2c0.3,0.1,0.6,0.2,0.9,0.4c0-0.1,0-0.1,0-0.2
	c1.8,0.7,3.6,2,5,3.7C251.9,23.6,251.6,24.3,250.8,24.4z M257.1,23.2c-0.6,0.4-1.3,0.8-1.9,1.2c0-0.1-0.1-0.2-0.1-0.3
	c-1.2,0.3-1.8-0.3-1.7-1.4c0.1-1.4,1.5-1,2.2-1C256,21.7,256.6,22.7,257.1,23.2z M257.7,20.3c-1.2,0.3-2.1,0.6-3.1,0.8
	c-0.4,0.1-0.9,0.1-1.4,0.2c-1.2,0.2-2.3,0-3.4-0.8c-1.3-1-2.9-1.7-4.3-2.5C248.9,16.6,255.1,17.7,257.7,20.3z M255.6,17.9
	c1.1-0.7,2.2-1.4,3.3-2c0.3-0.1,0.9,0,1.2,0.2c0.4,0.2,0.7,0.7,1.1,1C260,18.8,257.9,19.1,255.6,17.9z M264.8,16.4
	c-1.4,0.4-2.9,0.7-4.1-0.6c-0.1-0.1-0.3-0.2-0.5-0.3c0.7-0.4,1.3-0.8,2-1.2c0.8-0.5,3,0,3.4,0.8C266,15.9,265.3,16.2,264.8,16.4z"/>
</svg>
